<?xml version="1.0" encoding="UTF-8" standalone="no"?>
<svg
   viewBox="0 0 24 24"
   version="1.1"
   id="svg1"
   xmlns="http://www.w3.org/2000/svg"
   xmlns:svg="http://www.w3.org/2000/svg">
  <defs
     id="defs1" />
  <path
     d="m 8.5364671,8.4355558 q -0.683592,0 -1.2239552,0.2473952 Q 6.778659,8.9303463 6.4075662,9.3990951 6.0364734,9.8613335 5.8411614,10.525394 q -0.195312,0.657551 -0.195312,1.484372 0,1.106768 0.3124992,1.907547 0.3124992,0.794269 0.9505184,1.223955 0.6380193,0.423176 1.6145793,0.423176 0.6054672,0 1.1783824,-0.117187 0.5729153,-0.117187 1.1848933,-0.31901 v 1.328122 q -0.579426,0.227864 -1.1718725,0.33203 -0.5924464,0.104167 -1.367184,0.104167 -1.4583297,0 -2.4218689,-0.605468 -0.9570288,-0.605467 -1.432288,-1.705724 -0.4687489,-1.100258 -0.4687489,-2.578119 0,-1.080726 0.2994785,-1.979162 0.2994784,-0.8984347 0.8723936,-1.5494748 0.5729152,-0.6575504 1.4127568,-1.009112 0.8463521,-0.358072 1.9335889,-0.358072 0.716144,0 1.4062464,0.16276 0.6966131,0.1562496 1.2890591,0.4492176 L 10.69141,9.0084711 Q 10.196619,8.7740967 9.6562559,8.6048262 9.1158927,8.4355558 8.5364671,8.4355558 Z m 9.5898199,2.6497332 -0.364583,1.861974 h 1.757808 V 14.0345 h -1.966141 l -0.527342,2.727858 H 15.867178 L 16.401031,14.0345 h -1.6276 l -0.514322,2.727858 h -1.13281 L 13.6276,14.0345 H 12 v -1.087237 h 1.835933 l 0.371093,-1.861974 H 12.48177 V 9.9980519 h 1.920568 L 14.92317,7.250663 h 1.158851 L 15.561189,9.9980519 H 17.20181 L 17.729152,7.250663 h 1.126299 l -0.520832,2.7473889 h 1.640621 v 1.0872371 z m -3.144524,1.861974 h 1.6276 l 0.371093,-1.861974 h -1.63411 z"
     id="text1"
     style="font-weight:600;font-size:13.3333px;font-family:'Open Sans';-inkscape-font-specification:'Open Sans Semi-Bold';fill-opacity:0.91282;stroke:#ff0000;stroke-width:0"
     aria-label="C#" />
</svg>
