<?xml version="1.0" encoding="UTF-8" standalone="no"?>
<svg
   viewBox="0 0 24 24"
   version="1.1"
   id="svg1"
   xmlns="http://www.w3.org/2000/svg"
   xmlns:svg="http://www.w3.org/2000/svg">
  <defs
     id="defs1" />
  <path
     d="m 0.33656497,15.21965 q 0,-0.444838 0.22784384,-0.623858 0.2332687,-0.184445 0.56418479,-0.184445 0.330916,0 0.5641847,0.184445 0.2386936,0.17902 0.2386936,0.623858 0,0.433989 -0.2386936,0.629283 -0.2332687,0.18987 -0.5641847,0.18987 -0.33091609,0 -0.56418479,-0.18987 Q 0.33656497,15.653639 0.33656497,15.21965 Z M 10.31287,15.892332 H 8.7125387 L 4.8283437,9.5615281 H 4.77952 q 0.021699,0.3200664 0.037974,0.6781069 0.0217,0.35804 0.032549,0.73778 0.016275,0.37974 0.027124,0.770329 v 4.144588 H 3.6945493 V 7.9611964 h 1.589482 l 3.8787702,6.2874046 h 0.037974 q -0.01085,-0.276667 -0.027124,-0.634707 -0.016274,-0.358041 -0.032549,-0.73778 -0.01085,-0.385165 -0.016274,-0.743205 V 7.9611964 H 10.31287 Z m 6.574922,0 H 12.396014 V 7.9611964 h 4.491778 v 1.0958204 h -3.189813 v 2.1536672 h 2.989094 v 1.090395 h -2.989094 v 2.490008 h 3.189813 z m 4.459231,0 h -1.30739 V 9.0678665 H 17.717796 V 7.9611964 h 5.945639 v 1.1066701 h -2.316412 z"
     id="text1"
     style="font-weight:600;font-size:11.1101px;font-family:'Open Sans';-inkscape-font-specification:'Open Sans Semi-Bold';fill-opacity:0.91282;stroke:#ff0000;stroke-width:0"
     aria-label=".NET" />
</svg>
