<svg version="1.1" baseProfile="full" width="924.0" height="673.0" viewbox="0 0 924 673" xmlns="http://www.w3.org/2000/svg" xmlns:xlink="http://www.w3.org/1999/xlink" xmlns:ev="http://www.w3.org/2001/xml-events">
		<desc >#direction: right
	
	[Path|Draws a series of 
	connected lines and curves.]
	
	[Line|Draws a straight line between two points.]
	
	[Shape|Provides a base class for shape elements,
	such as Ellipse, Polygon, and Rectangle.]
	
	[Polygon|Draws a polygon, which is a connected
	series of lines that form a closed shape.]
	
	[Polyline|Draws a series of 
	connected straight lines.]
	
	[Rectangle|Draws a rectangle]
	
	[Ellipse|Draws an ellipse.]
	
	[FrameworkElement] &lt;:- [Shape] &lt;:- [Path]
	[Shape] &lt;:- [Line]
	[Shape] &lt;:- [Ellipse]
	[Shape] &lt;:- [Polygon]
	[Shape] &lt;:- [Polyline]
	[Shape] &lt;:- [Rectangle]
	
	
	
	
	
	
	
	
	
	</desc>
	<g stroke-width="1.0" text-align="left" font="12pt Helvetica, Arial, sans-serif" font-size="12pt" font-family="Helvetica" font-weight="bold" font-style="normal">
			<g font-family="Helvetica" font-size="12pt" font-weight="bold" font-style="normal" stroke-width="3.0" stroke-linejoin="round" stroke-linecap="round" stroke="#33322E">
			<g transform="translate(8, 8)" fill="#33322E">
					<g transform="translate(20, 20)" fill="#eee8d5" font-family="Helvetica" font-size="12pt" font-weight="normal" font-style="normal">
						<path d="M177.3 304.8 L184 304.75 L204 304.75 L204.0 304.8 " fill="none"></path>
					<path d="M177.3 299.4 L177.3 304.8 L177.3 310.1 L164.0 304.8 Z"></path>
					<path d="M395.7 255.2 L541 38.5 L607.5 38.5 L607.5 38.5 " fill="none"></path>
					<path d="M391.3 252.2 L395.7 255.2 L400.2 258.1 L388.3 266.3 Z"></path>
					<path d="M416.4 257.5 L541 148 L561 148 L561.0 148.0 " fill="none"></path>
					<path d="M412.8 253.4 L416.4 257.5 L419.9 261.5 L406.3 266.3 Z"></path>
					<path d="M500.8 262.3 L541 250 L645.5 250 L645.5 250.0 " fill="none"></path>
					<path d="M499.2 257.2 L500.8 262.3 L502.3 267.4 L488.0 266.3 Z"></path>
					<path d="M500.8 347.2 L541 359.5 L565.5 359.5 L565.5 359.5 " fill="none"></path>
					<path d="M502.3 342.1 L500.8 347.2 L499.2 352.3 L488.0 343.3 Z"></path>
					<path d="M412.1 352.5 L541 476.5 L620 476.5 L620.0 476.5 " fill="none"></path>
					<path d="M415.8 348.7 L412.1 352.5 L408.4 356.3 L402.5 343.3 Z"></path>
					<path d="M394.1 354.5 L541 586 L642 586 L642.0 586.0 " fill="none"></path>
					<path d="M398.6 351.6 L394.1 354.5 L389.6 357.4 L386.9 343.3 Z"></path>
					<g data-name="Path">
							<g fill="#eee8d5" stroke="#33322E" data-name="Path">
								<rect x="607.5" y="0.0" height="77.0" width="214.0" data-name="Path"></rect>
							<path d="M607.5 31.0 L821.5 31.0" fill="none" data-name="Path"></path>
							</g>
						<g transform="translate(607.5, 0)" font-family="Helvetica" font-size="12pt" font-weight="bold" font-style="normal" data-name="Path">
								<g transform="translate(8, 8)" fill="#33322E" text-align="center" data-name="Path">
									<text x="99.0" y="13.5" stroke="none" text-anchor="middle" data-name="Path">Path</text>
								
								</g>
							</g>
						<g transform="translate(607.5, 31)" font-family="Helvetica" font-size="12pt" font-weight="normal" font-style="normal" data-name="Path">
								<g transform="translate(8, 8)" fill="#33322E" text-align="left" data-name="Path">
									<text x="0.0" y="13.5" stroke="none" data-name="Path">Draws a series of</text>
								<text x="0.0" y="28.5" stroke="none" data-name="Path">connected lines and curves.</text>
								
								</g>
							</g>
						</g>
					<g data-name="Line">
							<g fill="#eee8d5" stroke="#33322E" data-name="Line">
								<rect x="561.0" y="117.0" height="62.0" width="307.0" data-name="Line"></rect>
							<path d="M561.0 148.0 L868.0 148.0" fill="none" data-name="Line"></path>
							</g>
						<g transform="translate(561, 117)" font-family="Helvetica" font-size="12pt" font-weight="bold" font-style="normal" data-name="Line">
								<g transform="translate(8, 8)" fill="#33322E" text-align="center" data-name="Line">
									<text x="145.5" y="13.5" stroke="none" text-anchor="middle" data-name="Line">Line</text>
								
								</g>
							</g>
						<g transform="translate(561, 148)" font-family="Helvetica" font-size="12pt" font-weight="normal" font-style="normal" data-name="Line">
								<g transform="translate(8, 8)" fill="#33322E" text-align="left" data-name="Line">
									<text x="0.0" y="13.5" stroke="none" data-name="Line">Draws a straight line between two points.</text>
								
								</g>
							</g>
						</g>
					<g data-name="Shape">
							<g fill="#eee8d5" stroke="#33322E" data-name="Shape">
								<rect x="204.0" y="266.3" height="77.0" width="317.0" data-name="Shape"></rect>
							<path d="M204.0 297.3 L521.0 297.3" fill="none" data-name="Shape"></path>
							</g>
						<g transform="translate(204, 266.25)" font-family="Helvetica" font-size="12pt" font-weight="bold" font-style="normal" data-name="Shape">
								<g transform="translate(8, 8)" fill="#33322E" text-align="center" data-name="Shape">
									<text x="150.5" y="13.5" stroke="none" text-anchor="middle" data-name="Shape">Shape</text>
								
								</g>
							</g>
						<g transform="translate(204, 297.25)" font-family="Helvetica" font-size="12pt" font-weight="normal" font-style="normal" data-name="Shape">
								<g transform="translate(8, 8)" fill="#33322E" text-align="left" data-name="Shape">
									<text x="0.0" y="13.5" stroke="none" data-name="Shape">Provides a base class for shape elements,</text>
								<text x="0.0" y="28.5" stroke="none" data-name="Shape">such as Ellipse, Polygon, and Rectangle.</text>
								
								</g>
							</g>
						</g>
					<g data-name="Polygon">
							<g fill="#eee8d5" stroke="#33322E" data-name="Polygon">
								<rect x="565.5" y="321.0" height="77.0" width="298.0" data-name="Polygon"></rect>
							<path d="M565.5 352.0 L863.5 352.0" fill="none" data-name="Polygon"></path>
							</g>
						<g transform="translate(565.5, 321)" font-family="Helvetica" font-size="12pt" font-weight="bold" font-style="normal" data-name="Polygon">
								<g transform="translate(8, 8)" fill="#33322E" text-align="center" data-name="Polygon">
									<text x="141.0" y="13.5" stroke="none" text-anchor="middle" data-name="Polygon">Polygon</text>
								
								</g>
							</g>
						<g transform="translate(565.5, 352)" font-family="Helvetica" font-size="12pt" font-weight="normal" font-style="normal" data-name="Polygon">
								<g transform="translate(8, 8)" fill="#33322E" text-align="left" data-name="Polygon">
									<text x="0.0" y="13.5" stroke="none" data-name="Polygon">Draws a polygon, which is a connected</text>
								<text x="0.0" y="28.5" stroke="none" data-name="Polygon">series of lines that form a closed shape.</text>
								
								</g>
							</g>
						</g>
					<g data-name="Polyline">
							<g fill="#eee8d5" stroke="#33322E" data-name="Polyline">
								<rect x="620.0" y="438.0" height="77.0" width="189.0" data-name="Polyline"></rect>
							<path d="M620.0 469.0 L809.0 469.0" fill="none" data-name="Polyline"></path>
							</g>
						<g transform="translate(620, 438)" font-family="Helvetica" font-size="12pt" font-weight="bold" font-style="normal" data-name="Polyline">
								<g transform="translate(8, 8)" fill="#33322E" text-align="center" data-name="Polyline">
									<text x="86.5" y="13.5" stroke="none" text-anchor="middle" data-name="Polyline">Polyline</text>
								
								</g>
							</g>
						<g transform="translate(620, 469)" font-family="Helvetica" font-size="12pt" font-weight="normal" font-style="normal" data-name="Polyline">
								<g transform="translate(8, 8)" fill="#33322E" text-align="left" data-name="Polyline">
									<text x="0.0" y="13.5" stroke="none" data-name="Polyline">Draws a series of</text>
								<text x="0.0" y="28.5" stroke="none" data-name="Polyline">connected straight lines.</text>
								
								</g>
							</g>
						</g>
					<g data-name="Rectangle">
							<g fill="#eee8d5" stroke="#33322E" data-name="Rectangle">
								<rect x="642.0" y="555.0" height="62.0" width="145.0" data-name="Rectangle"></rect>
							<path d="M642.0 586.0 L787.0 586.0" fill="none" data-name="Rectangle"></path>
							</g>
						<g transform="translate(642, 555)" font-family="Helvetica" font-size="12pt" font-weight="bold" font-style="normal" data-name="Rectangle">
								<g transform="translate(8, 8)" fill="#33322E" text-align="center" data-name="Rectangle">
									<text x="64.5" y="13.5" stroke="none" text-anchor="middle" data-name="Rectangle">Rectangle</text>
								
								</g>
							</g>
						<g transform="translate(642, 586)" font-family="Helvetica" font-size="12pt" font-weight="normal" font-style="normal" data-name="Rectangle">
								<g transform="translate(8, 8)" fill="#33322E" text-align="left" data-name="Rectangle">
									<text x="0.0" y="13.5" stroke="none" data-name="Rectangle">Draws a rectangle</text>
								
								</g>
							</g>
						</g>
					<g data-name="Ellipse">
							<g fill="#eee8d5" stroke="#33322E" data-name="Ellipse">
								<rect x="645.5" y="219.0" height="62.0" width="138.0" data-name="Ellipse"></rect>
							<path d="M645.5 250.0 L783.5 250.0" fill="none" data-name="Ellipse"></path>
							</g>
						<g transform="translate(645.5, 219)" font-family="Helvetica" font-size="12pt" font-weight="bold" font-style="normal" data-name="Ellipse">
								<g transform="translate(8, 8)" fill="#33322E" text-align="center" data-name="Ellipse">
									<text x="61.0" y="13.5" stroke="none" text-anchor="middle" data-name="Ellipse">Ellipse</text>
								
								</g>
							</g>
						<g transform="translate(645.5, 250)" font-family="Helvetica" font-size="12pt" font-weight="normal" font-style="normal" data-name="Ellipse">
								<g transform="translate(8, 8)" fill="#33322E" text-align="left" data-name="Ellipse">
									<text x="0.0" y="13.5" stroke="none" data-name="Ellipse">Draws an ellipse.</text>
								
								</g>
							</g>
						</g>
					<g data-name="FrameworkElement">
							<g fill="#eee8d5" stroke="#33322E" data-name="FrameworkElement">
								<rect x="0.0" y="289.3" height="31.0" width="164.0" data-name="FrameworkElement"></rect>
							</g>
						<g transform="translate(0, 289.25)" font-family="Helvetica" font-size="12pt" font-weight="bold" font-style="normal" data-name="FrameworkElement">
								<g transform="translate(8, 8)" fill="#33322E" text-align="center" data-name="FrameworkElement">
									<text x="74.0" y="13.5" stroke="none" text-anchor="middle" data-name="FrameworkElement">FrameworkElement</text>
								
								</g>
							</g>
						</g>
					</g>
				</g>
			</g>
		</g>
	</svg>