<svg version="1.1" baseProfile="full" width="1037.0" height="697.5" viewBox="0 0 1037 697.5" xmlns="http://www.w3.org/2000/svg" xmlns:xlink="http://www.w3.org/1999/xlink" xmlns:ev="http://www.w3.org/2001/xml-events">
	<title >cryptography2</title>
	<desc >#direction: right
	#spacing: 10
	#gravity: .8
	#arrowSize: 4
	#title: cryptography2
		
	[&lt;note&gt;Note: 
	SHA3 is only available on .NET 8
	or newer versions ]
	
	[HashAlgorithm|
	Represents the base class from which 
	all implementations of cryptographic
	hash algorithms must derive.]
	
	[KeyedHashAlgorithm|
	Represents the abstract class
	from which all implementations
	of keyed hash algorithms
	must derive.]
	
	[HMAC|
	Represents the abstract class
	from which all implementations
	of Hash-based Message
	AuthenticationCode (HMAC)
	must derive.]
	
	[MACTripleDES|
	Computes a Message Authentication
	Code (MAC) using TripleDES for
	the input data CryptoStream.]
	
	[HashAlgorithm] &lt;:- [MD5]
	[HashAlgorithm] &lt;:- [RIPEMD160]
	[HashAlgorithm] &lt;:- [SHA1]
	[HashAlgorithm] &lt;:- [SHA256]
	[HashAlgorithm] &lt;:- [SHA384]
	[HashAlgorithm] &lt;:- [SHA512]
	[HashAlgorithm] &lt;:- [SHA3_256]
	[HashAlgorithm] &lt;:- [SHA3_384]
	[HashAlgorithm] &lt;:- [SHA3_512]
	[HashAlgorithm] &lt;:- [KeyedHashAlgorithm]
	
	[KeyedHashAlgorithm] &lt;:- [HMAC]
	[KeyedHashAlgorithm] &lt;:-[MACTripleDES]
	
	[HMAC] &lt;:- [HMACMD5]
	[HMAC] &lt;:- [HMACRIPEMD160]
	[HMAC] &lt;:- [HMACSHA1]
	[HMAC] &lt;:- [HMACSHA256]
	[HMAC] &lt;:- [HMACSHA384]
	[HMAC] &lt;:- [HMACSHA512]
	[HMAC] &lt;:- [HMACSHA3_256]
	[HMAC] &lt;:- [HMACSHA3_384]
	[HMAC] &lt;:- [HMACSHA3_512]</desc>
	<g stroke-width="1.0" text-align="left" font="12pt Helvetica, Arial, sans-serif" font-size="12pt" font-family="Helvetica" font-weight="bold" font-style="normal">
		<g font-family="Helvetica" font-size="12pt" font-weight="bold" font-style="normal" stroke-width="3.0" stroke-linejoin="round" stroke-linecap="round" stroke="#33322E">
			<g stroke="transparent" fill="transparent">
				<rect x="0.0" y="0.0" height="697.5" width="1037.0" stroke="none"></rect>
			</g>
			<g transform="translate(8, 8)" fill="#33322E">
				<g transform="translate(20, 20)" fill="#eee8d5" font-family="Helvetica" font-size="12pt" font-weight="normal" font-style="normal">
					<path d="M190.0 416.1 L291 289.5 L388.5 289.5 L388.5 289.5 " fill="none"></path>
					<path d="M185.8 412.8 L190.0 416.1 L194.2 419.4 L181.7 426.5 Z"></path>
					<path d="M202.6 417.2 L291 331.5 L361 331.5 L361.0 331.5 " fill="none"></path>
					<path d="M198.9 413.4 L202.6 417.2 L206.3 421.0 L193.0 426.5 Z"></path>
					<path d="M224.7 419.0 L291 373.5 L384 373.5 L384.0 373.5 " fill="none"></path>
					<path d="M221.7 414.6 L224.7 419.0 L227.7 423.4 L213.7 426.5 Z"></path>
					<path d="M276.0 421.5 L291 415.5 L375.5 415.5 L375.5 415.5 " fill="none"></path>
					<path d="M274.0 416.6 L276.0 421.5 L278.0 426.5 L263.6 426.5 Z"></path>
					<path d="M299.2 456.5 L291 457.5 L375.5 457.5 L375.5 457.5 " fill="none"></path>
					<path d="M298.6 451.2 L299.2 456.5 L299.9 461.8 L286.0 458.1 Z"></path>
					<path d="M299.2 500.8 L291 499.5 L375.5 499.5 L375.5 499.5 " fill="none"></path>
					<path d="M300.0 495.6 L299.2 500.8 L298.3 506.1 L286.0 498.7 Z"></path>
					<path d="M263.1 529.0 L291 541.5 L366.5 541.5 L366.5 541.5 " fill="none"></path>
					<path d="M265.3 524.1 L263.1 529.0 L260.9 533.8 L250.9 523.5 Z"></path>
					<path d="M219.9 531.4 L291 583.5 L366.5 583.5 L366.5 583.5 " fill="none"></path>
					<path d="M223.1 527.1 L219.9 531.4 L216.8 535.7 L209.2 523.5 Z"></path>
					<path d="M200.0 533.0 L291 625.5 L366.5 625.5 L366.5 625.5 " fill="none"></path>
					<path d="M203.8 529.3 L200.0 533.0 L196.2 536.7 L190.7 523.5 Z"></path>
					<path d="M176.2 414.8 L291 207 L296 207 L296.0 207.0 " fill="none"></path>
					<path d="M171.6 412.2 L176.2 414.8 L180.9 417.4 L169.8 426.5 Z"></path>
					<path d="M538.0 144.5 L536 145.5 L562 145.5 L562.0 145.5 " fill="none"></path>
					<path d="M535.6 139.8 L538.0 144.5 L540.3 149.3 L526.0 150.5 Z"></path>
					<path d="M538.0 269.5 L536 268.5 L541 268.5 L541.0 268.5 " fill="none"></path>
					<path d="M540.3 264.7 L538.0 269.5 L535.6 274.2 L526.0 263.5 Z"></path>
					<path d="M760.9 72.1 L823 16 L855.5 16 L855.5 16.0 " fill="none"></path>
					<path d="M757.3 68.1 L760.9 72.1 L764.4 76.0 L751.0 81.0 Z"></path>
					<path d="M796.7 74.1 L823 58 L828 58 L828.0 58.0 " fill="none"></path>
					<path d="M793.9 69.5 L796.7 74.1 L799.4 78.6 L785.3 81.0 Z"></path>
					<path d="M809.7 104.2 L823 100 L851 100 L851.0 100.0 " fill="none"></path>
					<path d="M808.1 99.1 L809.7 104.2 L811.3 109.3 L797.0 108.2 Z"></path>
					<path d="M810.3 142.3 L823 142 L842.5 142 L842.5 142.0 " fill="none"></path>
					<path d="M810.2 137.0 L810.3 142.3 L810.5 147.6 L797.0 142.6 Z"></path>
					<path d="M809.9 180.5 L823 184 L842.5 184 L842.5 184.0 " fill="none"></path>
					<path d="M811.3 175.3 L809.9 180.5 L808.5 185.6 L797.0 177.0 Z"></path>
					<path d="M806.1 216.5 L823 226 L842.5 226 L842.5 226.0 " fill="none"></path>
					<path d="M808.7 211.9 L806.1 216.5 L803.5 221.2 L794.5 210.0 Z"></path>
					<path d="M765.2 218.7 L823 268 L833.5 268 L833.5 268.0 " fill="none"></path>
					<path d="M768.7 214.6 L765.2 218.7 L761.7 222.7 L755.1 210.0 Z"></path>
					<path d="M744.5 220.0 L823 310 L833.5 310 L833.5 310.0 " fill="none"></path>
					<path d="M748.5 216.5 L744.5 220.0 L740.5 223.6 L735.8 210.0 Z"></path>
					<path d="M731.9 220.9 L823 352 L833.5 352 L833.5 352.0 " fill="none"></path>
					<path d="M736.3 217.9 L731.9 220.9 L727.6 224.0 L724.3 210.0 Z"></path>
					<g data-name="Note:">
						<g fill="#eee8d5" stroke="#33322E" data-name="Note:">
							<path d="M11.0 351.5 L267.0 351.5 L275.0 359.5 L275.0 416.5 L11.0 416.5 L11.0 351.5 Z" data-name="Note:"></path>
							<path d="M267.0 351.5 L267.0 359.5 L275.0 359.5" fill="none" data-name="Note:"></path>
						</g>
						<g transform="translate(11, 351.5)" font-family="Helvetica" font-size="12pt" font-weight="normal" font-style="normal" data-name="Note:">
							<g transform="translate(8, 8)" fill="#33322E" text-align="left" data-name="Note:">
								<text x="0.0" y="14.1" stroke="none" data-name="Note:">Note:</text>
								<text x="0.0" y="30.3" stroke="none" data-name="Note:">SHA3 is only available on .NET 8</text>
								<text x="0.0" y="46.5" stroke="none" data-name="Note:">or newer versions</text>
								
							</g>
						</g>
					</g>
					<g data-name="HashAlgorithm">
						<g fill="#eee8d5" stroke="#33322E" data-name="HashAlgorithm">
							<rect x="0.0" y="426.5" height="97.0" width="286.0" data-name="HashAlgorithm"></rect>
							<path d="M0.0 458.5 L286.0 458.5" fill="none" data-name="HashAlgorithm"></path>
						</g>
						<g transform="translate(0, 426.5)" font-family="Helvetica" font-size="12pt" font-weight="bold" font-style="normal" data-name="HashAlgorithm">
							<g transform="translate(8, 8)" fill="#33322E" text-align="center" data-name="HashAlgorithm">
								<text x="135.0" y="14.1" stroke="none" text-anchor="middle" data-name="HashAlgorithm">HashAlgorithm</text>
								
							</g>
						</g>
						<g transform="translate(0, 458.5)" font-family="Helvetica" font-size="12pt" font-weight="normal" font-style="normal" data-name="HashAlgorithm">
							<g transform="translate(8, 8)" fill="#33322E" text-align="left" data-name="HashAlgorithm">
								<text x="0.0" y="14.1" stroke="none" data-name="HashAlgorithm">Represents the base class from which</text>
								<text x="0.0" y="30.3" stroke="none" data-name="HashAlgorithm">all implementations of cryptographic</text>
								<text x="0.0" y="46.5" stroke="none" data-name="HashAlgorithm">hash algorithms must derive.</text>
								
							</g>
						</g>
					</g>
					<g data-name="KeyedHashAlgorithm">
						<g fill="#eee8d5" stroke="#33322E" data-name="KeyedHashAlgorithm">
							<rect x="296.0" y="150.5" height="113.0" width="235.0" data-name="KeyedHashAlgorithm"></rect>
							<path d="M296.0 182.5 L531.0 182.5" fill="none" data-name="KeyedHashAlgorithm"></path>
						</g>
						<g transform="translate(296, 150.5)" font-family="Helvetica" font-size="12pt" font-weight="bold" font-style="normal" data-name="KeyedHashAlgorithm">
							<g transform="translate(8, 8)" fill="#33322E" text-align="center" data-name="KeyedHashAlgorithm">
								<text x="109.5" y="14.1" stroke="none" text-anchor="middle" data-name="KeyedHashAlgorithm">KeyedHashAlgorithm</text>
								
							</g>
						</g>
						<g transform="translate(296, 182.5)" font-family="Helvetica" font-size="12pt" font-weight="normal" font-style="normal" data-name="KeyedHashAlgorithm">
							<g transform="translate(8, 8)" fill="#33322E" text-align="left" data-name="KeyedHashAlgorithm">
								<text x="0.0" y="14.1" stroke="none" data-name="KeyedHashAlgorithm">Represents the abstract class</text>
								<text x="0.0" y="30.3" stroke="none" data-name="KeyedHashAlgorithm">from which all implementations</text>
								<text x="0.0" y="46.5" stroke="none" data-name="KeyedHashAlgorithm">of keyed hash algorithms</text>
								<text x="0.0" y="62.7" stroke="none" data-name="KeyedHashAlgorithm">must derive.</text>
								
							</g>
						</g>
					</g>
					<g data-name="HMAC">
						<g fill="#eee8d5" stroke="#33322E" data-name="HMAC">
							<rect x="562.0" y="81.0" height="129.0" width="235.0" data-name="HMAC"></rect>
							<path d="M562.0 113.0 L797.0 113.0" fill="none" data-name="HMAC"></path>
						</g>
						<g transform="translate(562, 81)" font-family="Helvetica" font-size="12pt" font-weight="bold" font-style="normal" data-name="HMAC">
							<g transform="translate(8, 8)" fill="#33322E" text-align="center" data-name="HMAC">
								<text x="109.5" y="14.1" stroke="none" text-anchor="middle" data-name="HMAC">HMAC</text>
								
							</g>
						</g>
						<g transform="translate(562, 113)" font-family="Helvetica" font-size="12pt" font-weight="normal" font-style="normal" data-name="HMAC">
							<g transform="translate(8, 8)" fill="#33322E" text-align="left" data-name="HMAC">
								<text x="0.0" y="14.1" stroke="none" data-name="HMAC">Represents the abstract class</text>
								<text x="0.0" y="30.3" stroke="none" data-name="HMAC">from which all implementations</text>
								<text x="0.0" y="46.5" stroke="none" data-name="HMAC">of Hash-based Message</text>
								<text x="0.0" y="62.7" stroke="none" data-name="HMAC">AuthenticationCode (HMAC)</text>
								<text x="0.0" y="78.9" stroke="none" data-name="HMAC">must derive.</text>
								
							</g>
						</g>
					</g>
					<g data-name="MACTripleDES">
						<g fill="#eee8d5" stroke="#33322E" data-name="MACTripleDES">
							<rect x="541.0" y="220.0" height="97.0" width="277.0" data-name="MACTripleDES"></rect>
							<path d="M541.0 252.0 L818.0 252.0" fill="none" data-name="MACTripleDES"></path>
						</g>
						<g transform="translate(541, 220)" font-family="Helvetica" font-size="12pt" font-weight="bold" font-style="normal" data-name="MACTripleDES">
							<g transform="translate(8, 8)" fill="#33322E" text-align="center" data-name="MACTripleDES">
								<text x="130.5" y="14.1" stroke="none" text-anchor="middle" data-name="MACTripleDES">MACTripleDES</text>
								
							</g>
						</g>
						<g transform="translate(541, 252)" font-family="Helvetica" font-size="12pt" font-weight="normal" font-style="normal" data-name="MACTripleDES">
							<g transform="translate(8, 8)" fill="#33322E" text-align="left" data-name="MACTripleDES">
								<text x="0.0" y="14.1" stroke="none" data-name="MACTripleDES">Computes a Message Authentication</text>
								<text x="0.0" y="30.3" stroke="none" data-name="MACTripleDES">Code (MAC) using TripleDES for</text>
								<text x="0.0" y="46.5" stroke="none" data-name="MACTripleDES">the input data CryptoStream.</text>
								
							</g>
						</g>
					</g>
					<g data-name="MD5">
						<g fill="#eee8d5" stroke="#33322E" data-name="MD5">
							<rect x="388.5" y="273.5" height="32.0" width="50.0" data-name="MD5"></rect>
						</g>
						<g transform="translate(388.5, 273.5)" font-family="Helvetica" font-size="12pt" font-weight="bold" font-style="normal" data-name="MD5">
							<g transform="translate(8, 8)" fill="#33322E" text-align="center" data-name="MD5">
								<text x="17.0" y="14.1" stroke="none" text-anchor="middle" data-name="MD5">MD5</text>
								
							</g>
						</g>
					</g>
					<g data-name="RIPEMD160">
						<g fill="#eee8d5" stroke="#33322E" data-name="RIPEMD160">
							<rect x="361.0" y="315.5" height="32.0" width="105.0" data-name="RIPEMD160"></rect>
						</g>
						<g transform="translate(361, 315.5)" font-family="Helvetica" font-size="12pt" font-weight="bold" font-style="normal" data-name="RIPEMD160">
							<g transform="translate(8, 8)" fill="#33322E" text-align="center" data-name="RIPEMD160">
								<text x="44.5" y="14.1" stroke="none" text-anchor="middle" data-name="RIPEMD160">RIPEMD160</text>
								
							</g>
						</g>
					</g>
					<g data-name="SHA1">
						<g fill="#eee8d5" stroke="#33322E" data-name="SHA1">
							<rect x="384.0" y="357.5" height="32.0" width="59.0" data-name="SHA1"></rect>
						</g>
						<g transform="translate(384, 357.5)" font-family="Helvetica" font-size="12pt" font-weight="bold" font-style="normal" data-name="SHA1">
							<g transform="translate(8, 8)" fill="#33322E" text-align="center" data-name="SHA1">
								<text x="21.5" y="14.1" stroke="none" text-anchor="middle" data-name="SHA1">SHA1</text>
								
							</g>
						</g>
					</g>
					<g data-name="SHA256">
						<g fill="#eee8d5" stroke="#33322E" data-name="SHA256">
							<rect x="375.5" y="399.5" height="32.0" width="76.0" data-name="SHA256"></rect>
						</g>
						<g transform="translate(375.5, 399.5)" font-family="Helvetica" font-size="12pt" font-weight="bold" font-style="normal" data-name="SHA256">
							<g transform="translate(8, 8)" fill="#33322E" text-align="center" data-name="SHA256">
								<text x="30.0" y="14.1" stroke="none" text-anchor="middle" data-name="SHA256">SHA256</text>
								
							</g>
						</g>
					</g>
					<g data-name="SHA384">
						<g fill="#eee8d5" stroke="#33322E" data-name="SHA384">
							<rect x="375.5" y="441.5" height="32.0" width="76.0" data-name="SHA384"></rect>
						</g>
						<g transform="translate(375.5, 441.5)" font-family="Helvetica" font-size="12pt" font-weight="bold" font-style="normal" data-name="SHA384">
							<g transform="translate(8, 8)" fill="#33322E" text-align="center" data-name="SHA384">
								<text x="30.0" y="14.1" stroke="none" text-anchor="middle" data-name="SHA384">SHA384</text>
								
							</g>
						</g>
					</g>
					<g data-name="SHA512">
						<g fill="#eee8d5" stroke="#33322E" data-name="SHA512">
							<rect x="375.5" y="483.5" height="32.0" width="76.0" data-name="SHA512"></rect>
						</g>
						<g transform="translate(375.5, 483.5)" font-family="Helvetica" font-size="12pt" font-weight="bold" font-style="normal" data-name="SHA512">
							<g transform="translate(8, 8)" fill="#33322E" text-align="center" data-name="SHA512">
								<text x="30.0" y="14.1" stroke="none" text-anchor="middle" data-name="SHA512">SHA512</text>
								
							</g>
						</g>
					</g>
					<g data-name="SHA3_256">
						<g fill="#eee8d5" stroke="#33322E" data-name="SHA3_256">
							<rect x="366.5" y="525.5" height="32.0" width="94.0" data-name="SHA3_256"></rect>
						</g>
						<g transform="translate(366.5, 525.5)" font-family="Helvetica" font-size="12pt" font-weight="bold" font-style="normal" data-name="SHA3_256">
							<g transform="translate(8, 8)" fill="#33322E" text-align="center" data-name="SHA3_256">
								<text x="39.0" y="14.1" stroke="none" text-anchor="middle" data-name="SHA3_256">SHA3_256</text>
								
							</g>
						</g>
					</g>
					<g data-name="SHA3_384">
						<g fill="#eee8d5" stroke="#33322E" data-name="SHA3_384">
							<rect x="366.5" y="567.5" height="32.0" width="94.0" data-name="SHA3_384"></rect>
						</g>
						<g transform="translate(366.5, 567.5)" font-family="Helvetica" font-size="12pt" font-weight="bold" font-style="normal" data-name="SHA3_384">
							<g transform="translate(8, 8)" fill="#33322E" text-align="center" data-name="SHA3_384">
								<text x="39.0" y="14.1" stroke="none" text-anchor="middle" data-name="SHA3_384">SHA3_384</text>
								
							</g>
						</g>
					</g>
					<g data-name="SHA3_512">
						<g fill="#eee8d5" stroke="#33322E" data-name="SHA3_512">
							<rect x="366.5" y="609.5" height="32.0" width="94.0" data-name="SHA3_512"></rect>
						</g>
						<g transform="translate(366.5, 609.5)" font-family="Helvetica" font-size="12pt" font-weight="bold" font-style="normal" data-name="SHA3_512">
							<g transform="translate(8, 8)" fill="#33322E" text-align="center" data-name="SHA3_512">
								<text x="39.0" y="14.1" stroke="none" text-anchor="middle" data-name="SHA3_512">SHA3_512</text>
								
							</g>
						</g>
					</g>
					<g data-name="HMACMD5">
						<g fill="#eee8d5" stroke="#33322E" data-name="HMACMD5">
							<rect x="855.5" y="0.0" height="32.0" width="98.0" data-name="HMACMD5"></rect>
						</g>
						<g transform="translate(855.5, 0)" font-family="Helvetica" font-size="12pt" font-weight="bold" font-style="normal" data-name="HMACMD5">
							<g transform="translate(8, 8)" fill="#33322E" text-align="center" data-name="HMACMD5">
								<text x="41.0" y="14.1" stroke="none" text-anchor="middle" data-name="HMACMD5">HMACMD5</text>
								
							</g>
						</g>
					</g>
					<g data-name="HMACRIPEMD160">
						<g fill="#eee8d5" stroke="#33322E" data-name="HMACRIPEMD160">
							<rect x="828.0" y="42.0" height="32.0" width="153.0" data-name="HMACRIPEMD160"></rect>
						</g>
						<g transform="translate(828, 42)" font-family="Helvetica" font-size="12pt" font-weight="bold" font-style="normal" data-name="HMACRIPEMD160">
							<g transform="translate(8, 8)" fill="#33322E" text-align="center" data-name="HMACRIPEMD160">
								<text x="68.5" y="14.1" stroke="none" text-anchor="middle" data-name="HMACRIPEMD160">HMACRIPEMD160</text>
								
							</g>
						</g>
					</g>
					<g data-name="HMACSHA1">
						<g fill="#eee8d5" stroke="#33322E" data-name="HMACSHA1">
							<rect x="851.0" y="84.0" height="32.0" width="107.0" data-name="HMACSHA1"></rect>
						</g>
						<g transform="translate(851, 84)" font-family="Helvetica" font-size="12pt" font-weight="bold" font-style="normal" data-name="HMACSHA1">
							<g transform="translate(8, 8)" fill="#33322E" text-align="center" data-name="HMACSHA1">
								<text x="45.5" y="14.1" stroke="none" text-anchor="middle" data-name="HMACSHA1">HMACSHA1</text>
								
							</g>
						</g>
					</g>
					<g data-name="HMACSHA256">
						<g fill="#eee8d5" stroke="#33322E" data-name="HMACSHA256">
							<rect x="842.5" y="126.0" height="32.0" width="124.0" data-name="HMACSHA256"></rect>
						</g>
						<g transform="translate(842.5, 126)" font-family="Helvetica" font-size="12pt" font-weight="bold" font-style="normal" data-name="HMACSHA256">
							<g transform="translate(8, 8)" fill="#33322E" text-align="center" data-name="HMACSHA256">
								<text x="54.0" y="14.1" stroke="none" text-anchor="middle" data-name="HMACSHA256">HMACSHA256</text>
								
							</g>
						</g>
					</g>
					<g data-name="HMACSHA384">
						<g fill="#eee8d5" stroke="#33322E" data-name="HMACSHA384">
							<rect x="842.5" y="168.0" height="32.0" width="124.0" data-name="HMACSHA384"></rect>
						</g>
						<g transform="translate(842.5, 168)" font-family="Helvetica" font-size="12pt" font-weight="bold" font-style="normal" data-name="HMACSHA384">
							<g transform="translate(8, 8)" fill="#33322E" text-align="center" data-name="HMACSHA384">
								<text x="54.0" y="14.1" stroke="none" text-anchor="middle" data-name="HMACSHA384">HMACSHA384</text>
								
							</g>
						</g>
					</g>
					<g data-name="HMACSHA512">
						<g fill="#eee8d5" stroke="#33322E" data-name="HMACSHA512">
							<rect x="842.5" y="210.0" height="32.0" width="124.0" data-name="HMACSHA512"></rect>
						</g>
						<g transform="translate(842.5, 210)" font-family="Helvetica" font-size="12pt" font-weight="bold" font-style="normal" data-name="HMACSHA512">
							<g transform="translate(8, 8)" fill="#33322E" text-align="center" data-name="HMACSHA512">
								<text x="54.0" y="14.1" stroke="none" text-anchor="middle" data-name="HMACSHA512">HMACSHA512</text>
								
							</g>
						</g>
					</g>
					<g data-name="HMACSHA3_256">
						<g fill="#eee8d5" stroke="#33322E" data-name="HMACSHA3_256">
							<rect x="833.5" y="252.0" height="32.0" width="142.0" data-name="HMACSHA3_256"></rect>
						</g>
						<g transform="translate(833.5, 252)" font-family="Helvetica" font-size="12pt" font-weight="bold" font-style="normal" data-name="HMACSHA3_256">
							<g transform="translate(8, 8)" fill="#33322E" text-align="center" data-name="HMACSHA3_256">
								<text x="63.0" y="14.1" stroke="none" text-anchor="middle" data-name="HMACSHA3_256">HMACSHA3_256</text>
								
							</g>
						</g>
					</g>
					<g data-name="HMACSHA3_384">
						<g fill="#eee8d5" stroke="#33322E" data-name="HMACSHA3_384">
							<rect x="833.5" y="294.0" height="32.0" width="142.0" data-name="HMACSHA3_384"></rect>
						</g>
						<g transform="translate(833.5, 294)" font-family="Helvetica" font-size="12pt" font-weight="bold" font-style="normal" data-name="HMACSHA3_384">
							<g transform="translate(8, 8)" fill="#33322E" text-align="center" data-name="HMACSHA3_384">
								<text x="63.0" y="14.1" stroke="none" text-anchor="middle" data-name="HMACSHA3_384">HMACSHA3_384</text>
								
							</g>
						</g>
					</g>
					<g data-name="HMACSHA3_512">
						<g fill="#eee8d5" stroke="#33322E" data-name="HMACSHA3_512">
							<rect x="833.5" y="336.0" height="32.0" width="142.0" data-name="HMACSHA3_512"></rect>
						</g>
						<g transform="translate(833.5, 336)" font-family="Helvetica" font-size="12pt" font-weight="bold" font-style="normal" data-name="HMACSHA3_512">
							<g transform="translate(8, 8)" fill="#33322E" text-align="center" data-name="HMACSHA3_512">
								<text x="63.0" y="14.1" stroke="none" text-anchor="middle" data-name="HMACSHA3_512">HMACSHA3_512</text>
								
							</g>
						</g>
					</g>
				</g>
			</g>
		</g>
	</g>
</svg>