<svg
   width="195.03816mm"
   height="30mm"
   viewBox="0 0 195.03816 30"
   version="1.1"
   id="svg5"
   xml:space="preserve"
   inkscape:version="1.2.2 (732a01da63, 2022-12-09)"
   sodipodi:docname="header.svg"
   xmlns:inkscape="http://www.inkscape.org/namespaces/inkscape"
   xmlns:sodipodi="http://sodipodi.sourceforge.net/DTD/sodipodi-0.dtd"
   xmlns="http://www.w3.org/2000/svg"
   xmlns:svg="http://www.w3.org/2000/svg"><sodipodi:namedview
     id="namedview7"
     pagecolor="#ffffff"
     bordercolor="#666666"
     borderopacity="1.0"
     inkscape:showpageshadow="2"
     inkscape:pageopacity="0.0"
     inkscape:pagecheckerboard="0"
     inkscape:deskcolor="#d1d1d1"
     inkscape:document-units="mm"
     showgrid="false"
     inkscape:zoom="1.829812"
     inkscape:cx="147.28289"
     inkscape:cy="187.99745"
     inkscape:window-width="3344"
     inkscape:window-height="1417"
     inkscape:window-x="88"
     inkscape:window-y="-8"
     inkscape:window-maximized="1"
     inkscape:current-layer="layer1" /><defs
     id="defs2"><linearGradient
       id="paint0_linear"
       x1="159.10899"
       y1="176.992"
       x2="149.226"
       y2="224.063"
       gradientUnits="userSpaceOnUse"><stop
         offset="0.1342"
         stop-color="#522CD5"
         id="stop512" /><stop
         offset="0.53"
         stop-color="#8A6FE8"
         id="stop514" /></linearGradient><linearGradient
       id="paint1_linear"
       x1="151.48801"
       y1="221.694"
       x2="122.128"
       y2="274.039"
       gradientUnits="userSpaceOnUse"><stop
         stop-color="#522CD5"
         id="stop517" /><stop
         offset="0.4397"
         stop-color="#8A6FE8"
         id="stop519" /></linearGradient><radialGradient
       id="paint2_radial"
       cx="0"
       cy="0"
       r="1"
       gradientUnits="userSpaceOnUse"
       gradientTransform="matrix(-20.347689,-0.09269066,0.09269066,-20.347689,129.613,250.735)"><stop
         offset="0.034"
         stop-color="#522CD5"
         id="stop522" /><stop
         offset="0.9955"
         stop-color="#8A6FE8"
         id="stop524" /></radialGradient><linearGradient
       id="paint3_linear"
       x1="209.573"
       y1="176.22"
       x2="198.21001"
       y2="229.675"
       gradientUnits="userSpaceOnUse"><stop
         offset="0.1194"
         stop-color="#522CD5"
         id="stop527" /><stop
         offset="0.5181"
         stop-color="#8A6FE8"
         id="stop529" /></linearGradient><linearGradient
       id="paint4_linear"
       x1="215.728"
       y1="225.617"
       x2="190.265"
       y2="274.13699"
       gradientUnits="userSpaceOnUse"><stop
         stop-color="#522CD5"
         id="stop532" /><stop
         offset="0.4397"
         stop-color="#8A6FE8"
         id="stop534" /></linearGradient><radialGradient
       id="paint5_radial"
       cx="0"
       cy="0"
       r="1"
       gradientUnits="userSpaceOnUse"
       gradientTransform="matrix(-22.14497,-0.10087789,0.10077129,-22.12157,198.811,250.697)"><stop
         offset="0.034"
         stop-color="#522CD5"
         id="stop537" /><stop
         offset="0.9955"
         stop-color="#8A6FE8"
         id="stop539" /></radialGradient><radialGradient
       id="paint6_radial"
       cx="0"
       cy="0"
       r="1"
       gradientUnits="userSpaceOnUse"
       gradientTransform="matrix(-61.113414,-10.160004,10.160004,-61.113414,175.003,123.191)"><stop
         offset="0.4744"
         stop-color="#A08BE8"
         id="stop542" /><stop
         offset="0.8618"
         stop-color="#8065E0"
         id="stop544" /></radialGradient><linearGradient
       id="paint7_linear"
       x1="220.99001"
       y1="170.353"
       x2="264.40399"
       y2="170.353"
       gradientUnits="userSpaceOnUse"><stop
         offset="0.2296"
         stop-color="#9780E6"
         id="stop547" /><stop
         offset="0.9374"
         stop-color="#8A6FE8"
         id="stop549" /></linearGradient><radialGradient
       id="paint8_radial"
       cx="0"
       cy="0"
       r="1"
       gradientUnits="userSpaceOnUse"
       gradientTransform="matrix(-11.4254,0,0,-11.4254,218.919,139.115)"><stop
         stop-color="#8065E0"
         id="stop552" /><stop
         offset="1"
         stop-color="#512BD4"
         id="stop554" /></radialGradient><radialGradient
       id="paint9_radial"
       cx="0"
       cy="0"
       r="1"
       gradientUnits="userSpaceOnUse"
       gradientTransform="matrix(-22.7821,0,0,-22.7821,257.338,187.554)"><stop
         stop-color="#8065E0"
         id="stop557" /><stop
         offset="1"
         stop-color="#512BD4"
         id="stop559" /></radialGradient><radialGradient
       id="paint10_radial"
       cx="0"
       cy="0"
       r="1"
       gradientUnits="userSpaceOnUse"
       gradientTransform="matrix(-47.606596,-7.9145176,7.9145176,-47.606596,131.383,112.016)"><stop
         offset="0.0933"
         stop-color="#E1DFDD"
         id="stop562" /><stop
         offset="0.8998"
         stop-color="white"
         id="stop564" /></radialGradient><radialGradient
       id="paint11_radial"
       cx="0"
       cy="0"
       r="1"
       gradientUnits="userSpaceOnUse"
       gradientTransform="matrix(8.8237196,1.4668939,-1.4668939,8.8237196,191.646,69.3536)"><stop
         stop-color="#8065E0"
         id="stop567" /><stop
         offset="1"
         stop-color="#512BD4"
         id="stop569" /></radialGradient><radialGradient
       id="paint12_radial"
       cx="0"
       cy="0"
       r="1"
       gradientUnits="userSpaceOnUse"
       gradientTransform="matrix(17.5764,0,0,17.5764,96.1603,81.6591)"><stop
         stop-color="#8065E0"
         id="stop572" /><stop
         offset="1"
         stop-color="#512BD4"
         id="stop574" /></radialGradient></defs><g
     inkscape:label="Réteg 1"
     inkscape:groupmode="layer"
     id="layer1"
     transform="translate(-1.0462759,-3.783327)"><g
       aria-label=".NET"
       id="text236"
       style="font-size:21.0086px;line-height:1.25;font-family:'Open Sans';-inkscape-font-specification:'Open Sans';stroke-width:0.43768"><path
         d="m 32.725571,24.929234 q 0,-0.718068 0.348776,-1.015553 0.348775,-0.307743 0.851423,-0.307743 0.523163,0 0.882197,0.307743 0.359033,0.297485 0.359033,1.015553 0,0.707809 -0.359033,1.036068 -0.359034,0.318002 -0.882197,0.318002 -0.502648,0 -0.851423,-0.318002 -0.348776,-0.328259 -0.348776,-1.036068 z"
         style="fill:#512bd4"
         id="path2064" /><path
         d="m 50.482352,25.996077 h -2.010589 l -8.17571,-12.596954 h -0.08207 q 0.03077,0.502647 0.07181,1.148908 0.04103,0.636002 0.06155,1.364328 0.03077,0.718067 0.03077,1.466909 v 8.616809 H 38.757337 V 10.998726 h 2.000331 l 8.144936,12.555921 h 0.07181 q -0.02052,-0.359033 -0.05129,-1.015552 -0.03077,-0.666777 -0.06155,-1.425877 -0.02052,-0.769358 -0.02052,-1.425876 v -8.688616 h 1.641297 z"
         style="fill:#512bd4"
         id="path2066" /><path
         d="M 62.925435,25.996077 H 54.575337 V 10.998726 h 8.350098 v 1.538716 h -6.60622 v 4.852084 h 6.22667 v 1.5182 h -6.22667 v 5.549635 h 6.60622 z"
         style="fill:#512bd4"
         id="path2068" /><path
         d="M 70.854948,25.996077 H 69.100812 V 12.537442 H 64.382083 V 10.998726 H 75.55316 v 1.538716 h -4.698212 z"
         style="fill:#512bd4"
         id="path2070" /></g><g
       aria-label="Cheat Sheet"
       id="text290"
       style="font-size:20.1421px;line-height:1.25;font-family:'Open Sans';-inkscape-font-specification:'Open Sans';stroke-width:0.419625"><path
         d="m 89.484435,12.69738 q -1.190036,0 -2.144032,0.41307 -0.944161,0.403236 -1.612942,1.180201 -0.658945,0.767131 -1.013006,1.858817 -0.35406,1.091686 -0.35406,2.458753 0,1.809641 0.560595,3.147203 0.570431,1.327726 1.691622,2.055517 1.131026,0.72779 2.822648,0.72779 0.963831,0 1.809642,-0.15736 0.855645,-0.167195 1.662116,-0.41307 v 1.455581 q -0.786801,0.29505 -1.652281,0.43274 -0.865481,0.147526 -2.055517,0.147526 -2.193208,0 -3.668459,-0.904821 -1.465416,-0.914656 -2.203042,-2.576773 -0.727791,-1.662116 -0.727791,-3.924169 0,-1.632611 0.452411,-2.980007 0.462245,-1.357232 1.337561,-2.340733 0.885151,-0.983501 2.163702,-1.514591 1.288386,-0.540926 2.950503,-0.540926 1.091686,0 2.104692,0.216371 1.013006,0.21637 1.829312,0.619605 l -0.668781,1.416242 Q 92.080877,13.159625 91.254737,12.93342 90.438431,12.69738 89.484435,12.69738 Z"
         style="fill:#d4a435"
         id="path2169" /><path
         d="m 97.411453,10.504173 v 4.573279 q 0,0.3934 -0.01967,0.796636 -0.01967,0.3934 -0.06885,0.727791 h 0.108185 q 0.33439,-0.570431 0.845811,-0.953996 0.521255,-0.393401 1.180201,-0.590101 0.658945,-0.206535 1.396575,-0.206535 1.29822,0 2.1637,0.41307 0.87531,0.413071 1.30805,1.278552 0.44258,0.86548 0.44258,2.242382 v 7.022196 h -1.61294 v -6.914011 q 0,-1.347397 -0.61961,-2.016177 -0.60977,-0.668781 -1.87848,-0.668781 -1.199875,0 -1.917831,0.462246 -0.708121,0.45241 -1.022841,1.337561 -0.304885,0.885151 -0.304885,2.163702 v 5.63546 H 95.778841 V 10.504173 Z"
         style="fill:#d4a435"
         id="path2171" /><path
         d="m 112.28199,14.831577 q 1.3769,0 2.3604,0.60977 0.9835,0.609771 1.50476,1.711292 0.52125,1.091686 0.52125,2.557103 v 1.013006 h -7.4451 q 0.0295,1.898156 0.94416,2.891492 0.91466,0.993336 2.57677,0.993336 1.02284,0 1.80964,-0.186865 0.7868,-0.186865 1.63262,-0.55076 v 1.435911 q -0.81631,0.363895 -1.62278,0.53109 -0.79664,0.167196 -1.88832,0.167196 -1.55393,0 -2.71447,-0.629441 -1.15069,-0.639276 -1.78997,-1.868652 -0.63927,-1.229376 -0.63927,-3.009513 0,-1.740796 0.58026,-3.009513 0.5901,-1.278551 1.65228,-1.967001 1.07202,-0.688451 2.51777,-0.688451 z m -0.0197,1.337561 q -1.30806,0 -2.08503,0.855646 -0.77696,0.855646 -0.92449,2.389907 h 5.70431 q -0.01,-0.963831 -0.30489,-1.691621 -0.28521,-0.737626 -0.87531,-1.140861 -0.5901,-0.413071 -1.51459,-0.413071 z"
         style="fill:#d4a435"
         id="path2173" /><path
         d="m 123.47423,14.851247 q 1.92766,0 2.86199,0.865481 0.93432,0.865481 0.93432,2.763637 v 7.327082 h -1.19003 l -0.31472,-1.593271 h -0.0787 q -0.45241,0.5901 -0.94416,0.993336 -0.49175,0.3934 -1.14087,0.599935 -0.63927,0.196701 -1.5736,0.196701 -0.9835,0 -1.75063,-0.344226 -0.75729,-0.344225 -1.19987,-1.042511 -0.43274,-0.698285 -0.43274,-1.770301 0,-1.612942 1.27855,-2.478423 1.27855,-0.865481 3.89466,-0.944161 l 1.85882,-0.07868 v -0.658945 q 0,-1.396572 -0.59993,-1.957167 -0.59994,-0.560596 -1.69163,-0.560596 -0.84581,0 -1.61294,0.245875 -0.76713,0.245876 -1.45558,0.580266 l -0.50158,-1.239211 q 0.72779,-0.373731 1.67195,-0.639276 0.94416,-0.265545 1.98667,-0.265545 z m 2.18337,5.645295 -1.64245,0.06884 q -2.01617,0.07868 -2.84231,0.658946 -0.82614,0.580266 -0.82614,1.642447 0,0.92449 0.56059,1.367066 0.5606,0.442575 1.48509,0.442575 1.43591,0 2.35057,-0.796635 0.91465,-0.796636 0.91465,-2.389908 z"
         style="fill:#d4a435"
         id="path2175" /><path
         d="m 134.11571,24.666586 q 0.40323,0 0.82614,-0.06884 0.4229,-0.06884 0.68845,-0.167195 v 1.268716 q -0.28522,0.127855 -0.79664,0.216371 -0.50158,0.08852 -0.9835,0.08852 -0.85564,0 -1.55393,-0.295051 -0.69829,-0.304885 -1.12119,-1.022841 -0.41307,-0.717955 -0.41307,-1.986672 v -6.392756 h -1.53426 v -0.796635 l 1.54409,-0.639276 0.64911,-2.340732 h 0.98351 v 2.498092 h 3.15703 v 1.278551 h -3.15703 v 6.343581 q 0,1.013006 0.46224,1.514592 0.47208,0.501585 1.24905,0.501585 z"
         style="fill:#d4a435"
         id="path2177" /><path
         d="m 151.40565,21.981629 q 0,1.278551 -0.63927,2.183372 -0.62944,0.894986 -1.7703,1.367066 -1.14087,0.472081 -2.68496,0.472081 -0.81631,0 -1.5441,-0.07868 -0.72779,-0.07868 -1.33756,-0.226206 -0.60977,-0.147525 -1.07202,-0.363895 V 23.73226 q 0.73763,0.304886 1.79981,0.570431 1.06218,0.25571 2.22271,0.25571 1.08185,0 1.82931,-0.285215 0.74747,-0.29505 1.13103,-0.835976 0.3934,-0.55076 0.3934,-1.317891 0,-0.737626 -0.32455,-1.229376 -0.32456,-0.501586 -1.08186,-0.904821 -0.74746,-0.413071 -2.04568,-0.875316 -0.91465,-0.324555 -1.61294,-0.708121 -0.69828,-0.3934 -1.17036,-0.885151 -0.47209,-0.49175 -0.71796,-1.140861 -0.23604,-0.64911 -0.23604,-1.485086 0,-1.150696 0.58026,-1.967002 0.59011,-0.826141 1.62278,-1.258881 1.04251,-0.442576 2.38991,-0.442576 1.15069,0 2.12436,0.216371 0.9835,0.21637 1.79981,0.580265 l -0.52126,1.435912 q -0.77696,-0.324556 -1.65228,-0.540926 -0.86548,-0.21637 -1.78997,-0.21637 -0.92449,0 -1.56377,0.27538 -0.62944,0.265545 -0.96383,0.757296 -0.33439,0.49175 -0.33439,1.170366 0,0.757296 0.31472,1.258881 0.32456,0.501586 1.02284,0.894986 0.70812,0.383565 1.86865,0.806471 1.26872,0.462245 2.15387,0.983501 0.88515,0.51142 1.3474,1.258881 0.46224,0.737626 0.46224,1.878487 z"
         style="fill:#d4a435"
         id="path2179" /><path
         d="m 155.72322,10.504173 v 4.573279 q 0,0.3934 -0.0197,0.796636 -0.0197,0.3934 -0.0688,0.727791 h 0.10818 q 0.33439,-0.570431 0.84581,-0.953996 0.52126,-0.393401 1.1802,-0.590101 0.65895,-0.206535 1.39658,-0.206535 1.29822,0 2.1637,0.41307 0.87531,0.413071 1.30805,1.278552 0.44258,0.86548 0.44258,2.242382 v 7.022196 h -1.61294 v -6.914011 q 0,-1.347397 -0.61961,-2.016177 -0.60977,-0.668781 -1.87848,-0.668781 -1.19988,0 -1.91783,0.462246 -0.70812,0.45241 -1.02284,1.337561 -0.30489,0.885151 -0.30489,2.163702 v 5.63546 h -1.63261 V 10.504173 Z"
         style="fill:#d4a435"
         id="path2181" /><path
         d="m 170.59376,14.831577 q 1.3769,0 2.3604,0.60977 0.9835,0.609771 1.50476,1.711292 0.52125,1.091686 0.52125,2.557103 v 1.013006 h -7.4451 q 0.0295,1.898156 0.94416,2.891492 0.91466,0.993336 2.57678,0.993336 1.02284,0 1.80964,-0.186865 0.7868,-0.186865 1.63261,-0.55076 v 1.435911 q -0.81631,0.363895 -1.62278,0.53109 -0.79663,0.167196 -1.88832,0.167196 -1.55393,0 -2.71446,-0.629441 -1.1507,-0.639276 -1.78997,-1.868652 -0.63928,-1.229376 -0.63928,-3.009513 0,-1.740796 0.58027,-3.009513 0.5901,-1.278551 1.65228,-1.967001 1.07201,-0.688451 2.51776,-0.688451 z m -0.0197,1.337561 q -1.30806,0 -2.08502,0.855646 -0.77697,0.855646 -0.92449,2.389907 h 5.7043 q -0.01,-0.963831 -0.30488,-1.691621 -0.28522,-0.737626 -0.87532,-1.140861 -0.5901,-0.413071 -1.51459,-0.413071 z"
         style="fill:#d4a435"
         id="path2183" /><path
         d="m 181.90402,14.831577 q 1.3769,0 2.3604,0.60977 0.9835,0.609771 1.50476,1.711292 0.52125,1.091686 0.52125,2.557103 v 1.013006 h -7.4451 q 0.0295,1.898156 0.94416,2.891492 0.91466,0.993336 2.57677,0.993336 1.02284,0 1.80964,-0.186865 0.78681,-0.186865 1.63262,-0.55076 v 1.435911 q -0.81631,0.363895 -1.62278,0.53109 -0.79664,0.167196 -1.88832,0.167196 -1.55393,0 -2.71447,-0.629441 -1.15069,-0.639276 -1.78997,-1.868652 -0.63927,-1.229376 -0.63927,-3.009513 0,-1.740796 0.58026,-3.009513 0.5901,-1.278551 1.65228,-1.967001 1.07202,-0.688451 2.51777,-0.688451 z m -0.0197,1.337561 q -1.30806,0 -2.08502,0.855646 -0.77697,0.855646 -0.9245,2.389907 h 5.70431 q -0.01,-0.963831 -0.30489,-1.691621 -0.28521,-0.737626 -0.87531,-1.140861 -0.5901,-0.413071 -1.51459,-0.413071 z"
         style="fill:#d4a435"
         id="path2185" /><path
         d="m 192.5455,24.666586 q 0.40324,0 0.82614,-0.06884 0.42291,-0.06884 0.68845,-0.167195 v 1.268716 q -0.28521,0.127855 -0.79663,0.216371 -0.50159,0.08852 -0.9835,0.08852 -0.85565,0 -1.55394,-0.295051 -0.69828,-0.304885 -1.12119,-1.022841 -0.41307,-0.717955 -0.41307,-1.986672 v -6.392756 h -1.53426 v -0.796635 l 1.5441,-0.639276 0.64911,-2.340732 h 0.9835 v 2.498092 h 3.15704 v 1.278551 h -3.15704 v 6.343581 q 0,1.013006 0.46224,1.514592 0.47209,0.501585 1.24905,0.501585 z"
         style="fill:#d4a435"
         id="path2187" /></g><g
       style="fill:none"
       id="g678"
       transform="matrix(0.10294914,0,0,0.10294914,3.0454186,4.7278313)"><path
         d="M 203.894,162.022 H 24.3646 v 4.466 H 203.894 Z"
         fill="#b3afab"
         id="path400" /><path
         d="m 4.07945,158.695 c -0.28035,0 -0.50844,-0.228 -0.50844,-0.508 V 4.37355 c 0,-0.28035 0.22809,-0.50844 0.50844,-0.50844 H 229.445 c 1.335,0 2.418,1.0834 2.418,2.41863 V 158.182 c 0,0.281 -0.228,0.509 -0.508,0.509 H 4.07945 Z"
         fill="#ffffff"
         id="path402" /><path
         d="M 228.542,7.19148 V 155.369 H 6.8972 V 7.19148 Z m 0.907,-6.652418 H 4.07943 c -2.11927,0 -3.834649,1.715378 -3.834649,3.834648 V 158.182 c 0,2.12 1.715379,3.835 3.834649,3.835 H 231.355 c 2.119,0 3.834,-1.715 3.834,-3.835 V 6.2839 c 0.005,-3.17415 -2.566,-5.744838 -5.74,-5.744838 z"
         fill="#e1eff9"
         id="path404" /><path
         d="m 25.6903,36.9849 c -3.4212,0 -5.7638,-0.6083 -6.1772,-2.7846 -0.7271,-3.8061 -0.0428,-10.43 -0.0095,-10.7104 0.057,-0.5226 0.5226,-0.898 1.0453,-0.8458 0.5227,0.0571 0.9029,0.5227 0.8458,1.0454 -0.0047,0.0665 -0.6842,6.6239 -0.0095,10.1545 0.3327,1.7581 6.049,1.2544 11.0953,0.8078 2.7323,-0.2424 5.5548,-0.4895 8.2966,-0.5227 27.1941,-0.3184 57.2821,-0.4942 63.0369,-0.5275 l -0.466,-14.5973 c -2.438,0.2899 -8.8384,0.9076 -16.4507,0.5797 -28.4438,-1.2212 -66.1916,0.5132 -66.5717,0.5322 -0.5274,0.0238 -0.9693,-0.3801 -0.9931,-0.9028 -0.0238,-0.5227 0.3801,-0.9694 0.9028,-0.9931 0.3802,-0.019 38.2087,-1.7534 66.7428,-0.5322 9.5082,0.4086 17.0729,-0.689 17.1489,-0.6985 0.266,-0.038 0.542,0.038 0.746,0.2091 0.209,0.1758 0.333,0.4276 0.342,0.6985 l 0.518,16.6263 c 0.01,0.2566 -0.085,0.5036 -0.266,0.689 -0.18,0.1853 -0.423,0.2898 -0.679,0.2898 -0.338,0 -33.9372,0.1806 -63.9967,0.5322 -2.6657,0.0333 -5.455,0.2756 -8.1492,0.5132 -2.5754,0.2281 -4.9466,0.4372 -6.9518,0.4372 z"
         fill="#86d3cd"
         id="path406" /><path
         d="m 24.5166,53.8963 c -0.2566,0 -0.5084,-0.1046 -0.689,-0.2946 L 20.1165,49.71 c -0.3611,-0.3801 -0.3469,-0.9788 0.0333,-1.3447 0.3801,-0.3659 0.9836,-0.3469 1.3447,0.0332 l 2.8606,2.9984 c 1.1356,-1.8104 3.5685,-5.5025 5.8588,-7.7881 0.3707,-0.3706 0.9742,-0.3706 1.3448,0 0.3706,0.3706 0.3706,0.9741 0,1.3447 -2.8843,2.8843 -6.1868,8.4201 -6.22,8.4771 -0.1521,0.2566 -0.4134,0.4277 -0.708,0.4609 -0.0428,0 -0.0808,0.0048 -0.1141,0.0048 z"
         fill="#c8c6c4"
         id="path408" /><path
         d="m 43.4332,46.9967 c -0.5131,0 -0.936,-0.4086 -0.9503,-0.9218 -0.0143,-0.5227 0.3991,-0.9599 0.9218,-0.9789 18.7171,-0.5227 50.6345,-0.3563 50.9528,-0.3516 0.5227,0.0048 0.9456,0.4324 0.9456,0.9551 -0.0047,0.5227 -0.4276,0.9456 -0.9503,0.9456 H 94.348 c -0.3183,0 -32.2024,-0.1711 -50.891,0.3516 -0.0047,0 -0.0142,0 -0.0238,0 z"
         fill="#c8c6c4"
         id="path410" /><path
         d="m 49.5392,53.5351 c -4.7517,0 -9.0853,-0.1236 -9.7267,-0.4514 -0.4657,-0.2424 -0.6463,-0.8126 -0.4087,-1.283 0.2281,-0.4419 0.7603,-0.6272 1.2069,-0.4419 1.4398,0.3564 18.0044,0.4086 21.7962,-0.0665 0.5275,-0.0666 0.9979,0.3041 1.0597,0.8268 0.0665,0.5227 -0.3041,0.9978 -0.8268,1.0596 -1.5158,0.1901 -7.5885,0.3564 -13.1006,0.3564 z"
         fill="#c8c6c4"
         id="path412" /><path
         d="m 25.5763,74.7564 c -0.2281,0 -0.4515,-0.0808 -0.6273,-0.2376 l -4.4191,-3.8917 c -0.3944,-0.3469 -0.4324,-0.9456 -0.0855,-1.34 0.3469,-0.3944 0.9456,-0.4324 1.34,-0.0855 l 3.3072,2.9128 c 0.7412,-2.1715 2.4566,-6.144 5.5072,-7.8071 0.461,-0.2518 1.0407,-0.0808 1.2877,0.3801 0.2519,0.461 0.0808,1.0359 -0.3801,1.2878 -3.4687,1.8912 -4.9988,7.9924 -5.0131,8.0541 -0.0807,0.3232 -0.3231,0.5798 -0.6367,0.6795 -0.0903,0.0333 -0.1853,0.0476 -0.2803,0.0476 z"
         fill="#c8c6c4"
         id="path414" /><path
         d="m 67.5055,67.5479 c -0.8268,0 -1.6773,-0.0142 -2.5374,-0.0428 -1.3495,-0.0475 -2.794,-0.1758 -4.4619,-0.3231 -4.7707,-0.4229 -10.7104,-0.9456 -19.273,-0.038 -0.5227,0.057 -0.9884,-0.3231 -1.0454,-0.8458 -0.057,-0.5227 0.3231,-0.9883 0.8458,-1.0454 8.7432,-0.9266 15.044,-0.3706 19.6389,0.0333 1.6441,0.1473 3.0602,0.2708 4.3621,0.3136 5.0036,0.1758 9.9121,-0.2566 9.9596,-0.2613 0.5275,-0.0476 0.9837,0.3373 1.0312,0.86 0.0475,0.5227 -0.3374,0.9836 -0.8601,1.0312 -0.0428,0.0142 -3.5305,0.3183 -7.6598,0.3183 z"
         fill="#c8c6c4"
         id="path416" /><path
         d="m 37.3843,112.143 c -5.8446,0 -10.4538,-0.019 -11.0288,-0.086 -1.9102,-0.213 -1.8817,-3.302 -1.8294,-8.914 0.019,-2.171 0.0428,-4.4189 -0.076,-6.4717 -0.3564,-6.201 0.4989,-13.3096 0.5369,-13.6089 0.057,-0.4752 0.4609,-0.8363 0.9456,-0.8363 0.6985,0 9.5035,-0.1806 18.0186,-0.3516 8.9142,-0.1806 17.3343,-0.3517 18.0518,-0.3517 2.2713,0 3.426,4.2481 3.426,12.6206 0,7.5076 0.1758,16.8636 0.1758,16.9546 0.0048,0.256 -0.0903,0.499 -0.2708,0.684 -0.1758,0.18 -0.4229,0.285 -0.6748,0.285 -2.4091,0.009 -16.8259,0.076 -27.2749,0.076 z m -10.5441,-1.844 h 0.0048 z m -0.0665,-0.118 c 2.4946,0.104 22.7845,0.052 36.9114,-0.015 -0.0427,-2.589 -0.1615,-9.917 -0.1615,-16.0273 0,-7.8784 -1.1405,-10.4063 -1.5776,-10.7199 -1.0074,0.0095 -9.6223,0.1853 -17.9616,0.3516 -7.5409,0.1521 -14.7303,0.2994 -17.2012,0.3421 -0.2138,2.0623 -0.708,7.6171 -0.4324,12.4448 0.1188,2.1145 0.0998,4.3957 0.0808,6.5997 -0.0286,2.614 -0.0618,6.14 0.3421,7.024 z"
         fill="#86d3cd"
         id="path418" /><path
         d="m 69.0736,103.576 c -0.0285,0 -0.0618,0 -0.0903,-0.005 -2.143,-0.205 -17.0682,-0.266 -42.0195,-0.176 l -1.207,0.005 c -0.5227,0 -0.9503,-0.428 -0.9503,-0.951 0,-0.522 0.4276,-0.95 0.9503,-0.95 l 1.2022,-0.005 c 17.6955,-0.061 39.3823,-0.085 42.2049,0.186 0.5227,0.047 0.9076,0.513 0.8553,1.036 -0.0475,0.494 -0.4657,0.86 -0.9456,0.86 z"
         fill="#6ecfc3"
         id="path420" /><path
         d="m 144.132,222.953 c -0.109,-9.879 1.297,-29.931 11.494,-46.724 l 9.97,6.054 c -9.252,15.23 -9.946,33.006 -9.732,40.761 0.019,0.641 -5.959,1.221 -11.732,-0.091 z"
         fill="url(#paint0_linear)"
         id="path422"
         style="fill:url(#paint0_linear)" /><path
         d="m 155.859,222.934 -9.232,-0.043 -8.62,49.38 18.532,0.086 c 1.411,0.005 2.48,-1.131 2.385,-2.542 z"
         fill="#522cd5"
         id="path424" /><path
         d="m 118.249,259.285 c -1.601,1.264 -1.573,3.093 -1.449,5.023 l 0.385,5.915 c 0.071,1.06 0.993,1.93 2.053,1.934 l 19.311,0.086 c 1.202,0.005 2.109,-0.965 2.029,-2.162 l -0.129,-6.13 c -0.147,-2.228 0.604,-3.046 2.329,-5.146 2.955,-3.588 11.694,-23.141 10.862,-35.88 l -9.508,-0.043 c -0.632,7.565 -10.611,24.357 -25.883,36.403 z"
         fill="url(#paint1_linear)"
         id="path426"
         style="fill:url(#paint1_linear)" /><path
         d="m 116.8,264.307 c -0.09,-1.349 -0.114,-2.641 0.413,-3.734 l 24.087,0.109 c -0.665,0.979 -0.946,1.834 -0.855,3.264 l 0.128,6.13 c 0.081,1.202 -0.832,2.172 -2.029,2.162 l -19.311,-0.085 c -1.06,-0.005 -1.982,-0.875 -2.053,-1.934 z"
         fill="url(#paint2_radial)"
         id="path428"
         style="fill:url(#paint2_radial)" /><path
         d="m 201.314,230.333 11.785,-1.464 -6.629,-53.31 -11.789,1.469 z"
         fill="url(#paint3_linear)"
         id="path430"
         style="fill:url(#paint3_linear)" /><path
         d="m 212.248,222.544 -9.342,-0.042 -2.585,49.931 18.75,0.085 c 1.426,0.005 2.367,-1.145 2.096,-2.57 z"
         fill="#522cd5"
         id="path432" /><path
         d="m 185.097,259.48 c -1.44,1.302 -1.407,2.974 -1.036,4.927 l 1.126,5.983 c 0.199,1.069 1.245,1.948 2.314,1.953 l 26.814,0.123 c 1.216,0.005 2.015,-0.974 1.787,-2.19 l -0.955,-6.201 c -0.423,-2.253 -0.096,-2.918 -0.138,-5.807 -0.081,-5.417 -2.58,-22.856 -5.004,-35.733 l -9.622,-0.043 c 0.299,7.646 -3.022,25.869 -15.286,36.988 z"
         fill="url(#paint4_linear)"
         id="path434"
         style="fill:url(#paint4_linear)" /><path
         d="m 215.142,264.075 0.955,6.201 c 0.228,1.211 -0.57,2.195 -1.787,2.19 l -26.814,-0.123 c -1.074,-0.005 -2.114,-0.884 -2.314,-1.953 l -1.126,-5.983 c -0.266,-1.416 -0.347,-2.685 0.171,-3.773 l 30.725,0.138 c -0.048,1.102 -0.076,1.891 0.19,3.303 z"
         fill="url(#paint5_radial)"
         id="path436"
         style="fill:url(#paint5_radial)" /><path
         d="m 141.77,147.819 0.19,-11.404 C 127.596,136.172 116.943,131.91 110.304,123.742 98.273,108.94 102.497,85.9371 102.545,85.7043 l -11.2001,-2.143 c -0.2185,1.1546 -5.2316,28.4957 10.1121,47.3697 8.862,10.906 22.428,16.589 40.313,16.888 z"
         fill="#8a6fe8"
         id="path438" /><path
         d="m 252.666,204.635 -7.717,8.672 c -2.071,2.295 -5.611,2.476 -7.911,0.404 -2.295,-2.072 -2.476,-5.612 -0.404,-7.911 l 9.508,-10.454 z"
         fill="#8a6fe8"
         id="path440" /><path
         d="m 123.985,143.433 c -1.469,-16.241 3.217,-28.235 3.217,-28.235 l -3.664,-0.608 -0.081,-0.086 c 9.993,-27.6926 38.617,-45.179 68.696,-40.1754 33.889,5.6355 56.797,37.6764 51.162,71.5654 -5.636,33.89 -37.677,56.798 -71.566,51.162 -26.743,-4.447 -46.638,-25.336 -51.076,-50.601 -0.072,-1.055 0.251,-2.87 3.312,-3.022 z"
         fill="url(#paint6_radial)"
         id="path442"
         style="fill:url(#paint6_radial)" /><path
         d="m 123.88,157.973 105.816,17.596 c -3.046,3.64 -6.491,6.904 -10.254,9.751 l -89.009,-14.802 c -2.647,-3.911 -4.847,-8.116 -6.553,-12.545 z"
         fill="#d8cff7"
         id="path444" /><path
         d="m 264.755,200.606 1.843,11.461 c 0.471,3.055 -1.625,5.916 -4.685,6.386 -3.055,0.471 -5.916,-1.625 -6.386,-4.685 l -1.891,-11.751 z"
         fill="#8a6fe8"
         id="path446" /><path
         d="m 257.318,201.898 1.554,11.504 c 0.394,3.07 -1.777,5.874 -4.847,6.268 -3.069,0.394 -5.873,-1.777 -6.267,-4.847 l -1.592,-11.794 z"
         fill="#8a6fe8"
         id="path448" /><path
         d="m 267.634,197.18 4.153,10.839 c 1.088,2.893 -0.38,6.124 -3.274,7.213 -2.894,1.088 -6.125,-0.381 -7.213,-3.274 l -4.262,-11.115 z"
         fill="#8a6fe8"
         id="path450" /><path
         d="m 259.917,201.913 c 4.624,-9.447 7.323,-25.598 -0.299,-40.038 -4.628,-8.767 -14.773,-19.886 -36.826,-23.08 l -1.801,11.115 c 13.386,1.938 24.324,8.966 29.043,17.899 5.108,9.675 4.01,21.659 0.399,29.043 z"
         fill="url(#paint7_linear)"
         id="path452"
         style="fill:url(#paint7_linear)" /><path
         d="m 218.544,154.476 c 6.309,0 11.423,-5.114 11.423,-11.423 0,-6.309 -5.114,-11.423 -11.423,-11.423 -6.309,0 -11.423,5.114 -11.423,11.423 0,6.309 5.114,11.423 11.423,11.423 z"
         fill="url(#paint8_radial)"
         id="path454"
         style="fill:url(#paint8_radial)" /><path
         d="m 256.715,208.028 c 6.474,0 11.722,-5.248 11.722,-11.722 0,-6.475 -5.248,-11.723 -11.722,-11.723 -6.474,0 -11.723,5.248 -11.723,11.723 0,6.474 5.249,11.722 11.723,11.722 z"
         fill="url(#paint9_radial)"
         id="path456"
         style="fill:url(#paint9_radial)" /><path
         d="m 123.985,143.433 c -1.45,-16.042 3.098,-27.931 3.212,-28.22 l 63.663,10.586 c 0,0 4.077,0.262 3.469,3.925 -0.608,3.664 -2.48,13.989 -4.386,25.441 -0.389,2.357 -2.509,3.169 -4.024,2.918 0,-0.005 -55.529,-9.247 -61.934,-14.65 z"
         fill="url(#paint10_radial)"
         id="path458"
         style="fill:url(#paint10_radial)" /><path
         d="m 162.326,149.838 c 0,0 -8.501,-9.38 -10.173,-11.128 -1.673,-1.749 -3.331,-2.11 -5.336,-0.889 -2.006,1.221 -13.082,7.261 -13.082,7.261 z"
         fill="#a08be8"
         id="path460" /><path
         d="m 120.806,147.206 c 0,0 -1.155,-3.554 3.183,-3.773 0,-0.019 62.6,10.359 62.6,10.359 1.458,0.242 3.473,-0.314 3.872,-1.701 -0.171,1.012 -0.342,2.033 -0.513,3.069 -0.356,2.139 -2.129,3.003 -3.587,2.956 -0.148,-0.005 -0.29,-0.014 -0.438,-0.038 l -4.281,-0.713 z"
         fill="#512bd4"
         id="path462" /><path
         d="m 138.224,130.902 c 0.674,-4.469 -0.933,-8.416 -3.59,-8.818 -2.657,-0.401 -5.358,2.896 -6.033,7.365 -0.675,4.468 0.933,8.416 3.59,8.817 2.657,0.401 5.358,-2.896 6.033,-7.364 z"
         fill="#512bd4"
         id="path464" /><path
         d="m 134.177,125.913 c 1.464,2.044 0.988,4.885 -1.055,6.349 -1.402,1.002 -3.174,1.093 -4.623,0.394 -0.1,-1.007 -0.072,-2.091 0.095,-3.212 0.332,-2.191 1.15,-4.096 2.209,-5.427 1.307,0.1 2.557,0.751 3.374,1.896 z"
         fill="#8065e0"
         id="path466" /><path
         d="m 176.841,137.5 c 0.808,-4.446 -0.681,-8.44 -3.325,-8.92 -2.644,-0.48 -5.442,2.735 -6.249,7.181 -0.808,4.446 0.681,8.44 3.325,8.92 2.644,0.48 5.442,-2.735 6.249,-7.181 z"
         fill="#512bd4"
         id="path468" /><path
         d="m 172.766,132.599 c 1.463,2.043 0.988,4.885 -1.055,6.349 -1.392,0.993 -3.155,1.092 -4.595,0.408 -0.114,-1.116 -0.076,-2.333 0.152,-3.592 0.366,-2.02 1.145,-3.778 2.134,-5.056 1.297,0.095 2.547,0.746 3.364,1.891 z"
         fill="#8065e0"
         id="path470" /><path
         d="m 134.334,174.579 20.1,3.248 2.873,-17.779 -20.101,-3.247 z"
         fill="#512bd4"
         id="path472" /><path
         d="m 138.915,168.513 c -0.134,-0.024 -0.238,-0.086 -0.319,-0.19 -0.081,-0.105 -0.109,-0.224 -0.085,-0.347 0.019,-0.128 0.085,-0.228 0.194,-0.304 0.11,-0.076 0.229,-0.105 0.362,-0.081 0.137,0.024 0.242,0.085 0.323,0.195 0.08,0.109 0.109,0.223 0.09,0.351 -0.019,0.124 -0.086,0.228 -0.195,0.304 -0.114,0.067 -0.237,0.091 -0.37,0.072 z"
         fill="#ffffff"
         id="path474" /><path
         d="m 144.27,169.311 -0.87,-0.143 -1.696,-3.986 c -0.043,-0.1 -0.076,-0.205 -0.095,-0.309 l -0.019,-0.005 c 0,0.109 -0.029,0.333 -0.086,0.68 l -0.527,3.221 -0.77,-0.128 0.808,-4.913 0.926,0.152 1.635,3.887 c 0.071,0.161 0.114,0.27 0.133,0.332 h 0.014 c 0,-0.133 0.024,-0.356 0.076,-0.665 l 0.518,-3.165 0.765,0.124 z"
         fill="#ffffff"
         id="path476" /><path
         d="m 148.009,169.929 -2.689,-0.442 0.808,-4.914 2.585,0.423 -0.114,0.694 -1.787,-0.294 -0.228,1.392 1.649,0.271 -0.114,0.689 -1.649,-0.271 -0.238,1.454 1.896,0.309 z"
         fill="#ffffff"
         id="path478" /><path
         d="m 152.528,166.336 -1.378,-0.228 -0.694,4.22 -0.793,-0.129 0.694,-4.219 -1.374,-0.223 0.115,-0.694 3.544,0.58 z"
         fill="#ffffff"
         id="path480" /><path
         d="m 197.304,70.6081 -11.856,-1.972 3.692,-11.8935 8.515,1.4112 z"
         fill="#8577e5"
         id="path482" /><path
         d="m 194.348,59.2989 c 4.729,0 8.563,-3.8336 8.563,-8.5626 0,-4.729 -3.834,-8.5626 -8.563,-8.5626 -4.729,0 -8.562,3.8336 -8.562,8.5626 0,4.729 3.833,8.5626 8.562,8.5626 z"
         fill="#d8cff7"
         id="path484" /><path
         d="m 200.602,78.8048 c 0.536,0.0903 1.04,-0.3041 1.069,-0.8458 0.309,-5.7353 -3.735,-10.9052 -9.532,-11.8698 -5.797,-0.9646 -11.295,2.6182 -12.858,8.1445 -0.148,0.5227 0.204,1.0549 0.736,1.1451 z"
         fill="url(#paint11_radial)"
         id="path486"
         style="fill:url(#paint11_radial)" /><path
         d="M 87.3773,80.9193 83.9465,69.8335 c -0.8933,-2.9603 0.7841,-6.087 3.7444,-6.9803 2.9603,-0.8933 6.0869,0.7841 6.9803,3.7444 l 3.5163,11.3709 z"
         fill="#8a6fe8"
         id="path488" /><path
         d="M 84.9064,89.4202 79.3801,79.2135 c -1.454,-2.7323 -0.4181,-6.1203 2.3093,-7.5743 2.7323,-1.454 6.1203,-0.4181 7.5743,2.3093 l 5.6688,10.4681 z"
         fill="#8a6fe8"
         id="path490" /><path
         d="M 94.0677,83.0957 90.7082,57.2273 c -0.3659,-3.0697 1.8294,-5.8589 4.8991,-6.2201 3.0696,-0.3658 5.8587,1.8295 6.2197,4.8991 l 3.398,26.1583 z"
         fill="#8a6fe8"
         id="path492" /><path
         d="m 86.636,45.115 -5.5168,-2.946 c -0.3848,-0.2044 -0.8648,-0.1378 -1.1784,0.1663 -0.3136,0.3041 -0.3944,0.7793 -0.1996,1.1737 l 2.7751,5.6022 c 0.0475,0.0951 0.1092,0.1806 0.1805,0.2566 l 35.1962,36.2795 c 0.39,0.3991 1.026,0.4087 1.425,0.0238 l 2.737,-2.6563 c 0.4,-0.3896 0.409,-1.0263 0.024,-1.4255 L 86.8831,45.3004 C 86.8118,45.2243 86.7263,45.1626 86.636,45.115 Z"
         fill="#faf9f8"
         id="path494" /><path
         d="m 85.2865,48.3937 -5.3457,-6.0633 c -0.3136,0.3042 -0.3944,0.7793 -0.1996,1.1737 l 2.7751,5.6023 c 0.0475,0.095 0.1092,0.1806 0.1805,0.2566 l 35.1962,36.2795 c 0.39,0.3991 1.026,0.4086 1.425,0.0237 l 0.965,-0.9361 z"
         fill="#e1dfdd"
         id="path496" /><path
         d="M 95.2461,85.6663 107.225,67.0301 c 1.73,-2.5612 5.213,-3.2407 7.774,-1.5063 2.566,1.7296 3.241,5.2126 1.506,7.7738 l -12.14,18.8786 z"
         fill="#8a6fe8"
         id="path498" /><path
         d="m 96.282,98.9046 c 6.474,0 11.723,-5.2483 11.723,-11.7225 0,-6.4742 -5.249,-11.7225 -11.723,-11.7225 -6.4742,0 -11.7225,5.2483 -11.7225,11.7225 0,6.4742 5.2483,11.7225 11.7225,11.7225 z"
         fill="url(#paint12_radial)"
         id="path500"
         style="fill:url(#paint12_radial)" /><path
         d="M 68.6269,154.115 H 37.332 v 7.84 h 31.2949 z"
         fill="#b3afab"
         id="path502" /><path
         d="M 68.6269,156.282 H 37.332 v 5.673 h 31.2949 z"
         fill="#797673"
         id="path504" /><path
         d="M 110.157,157.546 H 74.2815 v 4.409 h 35.8755 z"
         fill="#ffffff"
         id="path506" /><path
         d="m 83.9465,157.546 h -9.665 v 4.409 h 9.665 z"
         fill="#6ecfc3"
         id="path508" /><path
         d="M 86.7738,45.2148 C 86.7263,45.1815 86.6883,45.1387 86.636,45.1102 L 81.5612,42.397 79.8743,40.5866 C 79.6795,40.3775 79.3516,40.368 79.1425,40.5628 l -0.8458,0.7888 c -0.2091,0.1948 -0.2186,0.5227 -0.0237,0.7318 l 1.6298,1.7486 2.6135,5.2697 z"
         fill="#b3afab"
         id="path510" /></g></g></svg>
