<?xml version="1.0" encoding="UTF-8" standalone="no"?>
<!-- Created with Inkscape (http://www.inkscape.org/) -->

<svg
   width="200mm"
   height="240mm"
   viewBox="0 0 200 240"
   version="1.1"
   id="svg1"
   xml:space="preserve"
   inkscape:version="1.3 (0e150ed6c4, 2023-07-21)"
   sodipodi:docname="header.svg"
   xmlns:inkscape="http://www.inkscape.org/namespaces/inkscape"
   xmlns:sodipodi="http://sodipodi.sourceforge.net/DTD/sodipodi-0.dtd"
   xmlns="http://www.w3.org/2000/svg"
   xmlns:svg="http://www.w3.org/2000/svg"><sodipodi:namedview
     id="namedview1"
     pagecolor="#ffffff"
     bordercolor="#000000"
     borderopacity="0.25"
     inkscape:showpageshadow="2"
     inkscape:pageopacity="0.0"
     inkscape:pagecheckerboard="0"
     inkscape:deskcolor="#d1d1d1"
     inkscape:document-units="mm"
     inkscape:zoom="1.0449705"
     inkscape:cx="377.52262"
     inkscape:cy="542.12057"
     inkscape:window-width="3440"
     inkscape:window-height="1369"
     inkscape:window-x="-8"
     inkscape:window-y="-8"
     inkscape:window-maximized="1"
     inkscape:current-layer="layer1" /><defs
     id="defs1"><linearGradient
       id="paint0_linear"
       x1="171.286"
       y1="177.125"
       x2="258.36899"
       y2="138.60899"
       gradientUnits="userSpaceOnUse"><stop
         offset="0.2495"
         stop-color="#967FE6"
         id="stop148" /><stop
         offset="1"
         stop-color="#8A6FE8"
         id="stop149" /></linearGradient><linearGradient
       id="paint1_linear"
       x1="259.63901"
       y1="133.14"
       x2="171.90601"
       y2="107.584"
       gradientUnits="userSpaceOnUse"><stop
         offset="0.2495"
         stop-color="#967FE6"
         id="stop150" /><stop
         offset="1"
         stop-color="#8A6FE8"
         id="stop151" /></linearGradient><linearGradient
       id="paint2_linear"
       x1="366.14001"
       y1="186.04601"
       x2="417.22101"
       y2="186.04601"
       gradientUnits="userSpaceOnUse"><stop
         offset="0.2495"
         stop-color="#967FE6"
         id="stop152" /><stop
         offset="1"
         stop-color="#8A6FE8"
         id="stop153" /></linearGradient><linearGradient
       id="paint3_linear"
       x1="223.08299"
       y1="190.399"
       x2="283.16501"
       y2="190.399"
       gradientUnits="userSpaceOnUse"><stop
         offset="0.2495"
         stop-color="#967FE6"
         id="stop154" /><stop
         offset="1"
         stop-color="#8A6FE8"
         id="stop155" /></linearGradient><linearGradient
       id="paint4_linear"
       x1="231.10899"
       y1="57.759602"
       x2="265.27802"
       y2="113.885"
       gradientUnits="userSpaceOnUse"><stop
         offset="0.2495"
         stop-color="#967FE6"
         id="stop156" /><stop
         offset="1"
         stop-color="#8A6FE8"
         id="stop157" /></linearGradient><linearGradient
       id="paint5_linear"
       x1="368.483"
       y1="116.565"
       x2="416.43701"
       y2="88.7239"
       gradientUnits="userSpaceOnUse"><stop
         offset="0.2495"
         stop-color="#967FE6"
         id="stop158" /><stop
         offset="1"
         stop-color="#8A6FE8"
         id="stop159" /></linearGradient><linearGradient
       id="paint6_linear"
       x1="376.94"
       y1="142.539"
       x2="448.53299"
       y2="107.734"
       gradientUnits="userSpaceOnUse"><stop
         offset="0.2495"
         stop-color="#967FE6"
         id="stop160" /><stop
         offset="1"
         stop-color="#8A6FE8"
         id="stop161" /></linearGradient><linearGradient
       id="paint7_linear"
       x1="375.01401"
       y1="162.369"
       x2="453.21201"
       y2="162.369"
       gradientUnits="userSpaceOnUse"><stop
         offset="0.2495"
         stop-color="#967FE6"
         id="stop162" /><stop
         offset="1"
         stop-color="#8A6FE8"
         id="stop163" /></linearGradient><radialGradient
       id="paint8_radial"
       cx="0"
       cy="0"
       r="1"
       gradientUnits="userSpaceOnUse"
       gradientTransform="matrix(-11.172158,0.34875702,-0.34875702,-11.172158,370.461,116.932)"><stop
         stop-color="#8065E0"
         id="stop164" /><stop
         offset="1"
         stop-color="#512BD4"
         id="stop165" /></radialGradient><radialGradient
       id="paint9_radial"
       cx="0"
       cy="0"
       r="1"
       gradientUnits="userSpaceOnUse"
       gradientTransform="matrix(-11.172158,0.34875702,-0.34875702,-11.172158,372.565,132.686)"><stop
         stop-color="#8065E0"
         id="stop166" /><stop
         offset="1"
         stop-color="#512BD4"
         id="stop167" /></radialGradient><radialGradient
       id="paint10_radial"
       cx="0"
       cy="0"
       r="1"
       gradientUnits="userSpaceOnUse"
       gradientTransform="matrix(-11.172158,0.34875702,-0.34875702,-11.172158,371.15,148.227)"><stop
         stop-color="#8065E0"
         id="stop168" /><stop
         offset="1"
         stop-color="#512BD4"
         id="stop169" /></radialGradient><radialGradient
       id="paint11_radial"
       cx="0"
       cy="0"
       r="1"
       gradientUnits="userSpaceOnUse"
       gradientTransform="matrix(-7.9238171,-7.8846378,7.8846378,-7.9238171,367.858,166.905)"><stop
         stop-color="#8065E0"
         id="stop170" /><stop
         offset="1"
         stop-color="#512BD4"
         id="stop171" /></radialGradient><linearGradient
       id="paint12_linear"
       x1="329.064"
       y1="187.946"
       x2="338.72101"
       y2="233.935"
       gradientUnits="userSpaceOnUse"><stop
         offset="0.252"
         stop-color="#522CD5"
         id="stop172" /><stop
         offset="0.5558"
         stop-color="#8A6FE8"
         id="stop173" /></linearGradient><linearGradient
       id="paint13_linear"
       x1="334.89301"
       y1="232.57001"
       x2="363.57901"
       y2="283.711"
       gradientUnits="userSpaceOnUse"><stop
         stop-color="#522CD5"
         id="stop174" /><stop
         offset="0.4397"
         stop-color="#8A6FE8"
         id="stop175" /></linearGradient><radialGradient
       id="paint14_radial"
       cx="0"
       cy="0"
       r="1"
       gradientUnits="userSpaceOnUse"
       gradientTransform="matrix(19.882594,-0.09053243,0.09053243,19.882594,357.765,260.074)"><stop
         offset="0.034"
         stop-color="#522CD5"
         id="stop176" /><stop
         offset="0.9955"
         stop-color="#8A6FE8"
         id="stop177" /></radialGradient><linearGradient
       id="paint15_linear"
       x1="310.12601"
       y1="188.032"
       x2="300.88599"
       y2="234.11"
       gradientUnits="userSpaceOnUse"><stop
         offset="0.258"
         stop-color="#522CD5"
         id="stop178" /><stop
         offset="0.5602"
         stop-color="#8A6FE8"
         id="stop179" /></linearGradient><linearGradient
       id="paint16_linear"
       x1="301.76901"
       y1="233.045"
       x2="301.98999"
       y2="281.33801"
       gradientUnits="userSpaceOnUse"><stop
         stop-color="#522CD5"
         id="stop180" /><stop
         offset="0.4397"
         stop-color="#8A6FE8"
         id="stop181" /></linearGradient><radialGradient
       id="paint17_radial"
       cx="0"
       cy="0"
       r="1"
       gradientUnits="userSpaceOnUse"
       gradientTransform="matrix(-21.797774,0.09929629,-0.09929629,-21.797774,302.518,260.248)"><stop
         offset="0.034"
         stop-color="#522CD5"
         id="stop182" /><stop
         offset="0.9955"
         stop-color="#8A6FE8"
         id="stop183" /></radialGradient><radialGradient
       id="paint18_radial"
       cx="0"
       cy="0"
       r="1"
       gradientUnits="userSpaceOnUse"
       gradientTransform="matrix(65.5164,0,0,65.5164,319.182,99.2081)"><stop
         offset="0.186"
         stop-color="#A08BE8"
         id="stop184" /><stop
         offset="0.7272"
         stop-color="#8065E0"
         id="stop185" /></radialGradient><linearGradient
       id="paint19_linear"
       x1="309.33401"
       y1="68.8713"
       x2="321.14301"
       y2="68.8713"
       gradientUnits="userSpaceOnUse"><stop
         offset="0.2495"
         stop-color="#967FE6"
         id="stop186" /><stop
         offset="1"
         stop-color="#8A6FE8"
         id="stop187" /></linearGradient><radialGradient
       id="paint20_radial"
       cx="0"
       cy="0"
       r="1"
       gradientUnits="userSpaceOnUse"
       gradientTransform="matrix(14.8412,0,0,14.8412,315.789,74.2553)"><stop
         stop-color="#8065E0"
         id="stop188" /><stop
         offset="1"
         stop-color="#512BD4"
         id="stop189" /></radialGradient><linearGradient
       id="paint21_linear"
       x1="254.021"
       y1="55.2901"
       x2="271.90601"
       y2="55.2901"
       gradientUnits="userSpaceOnUse"><stop
         offset="0.2495"
         stop-color="#967FE6"
         id="stop190" /><stop
         offset="1"
         stop-color="#8A6FE8"
         id="stop191" /></linearGradient><radialGradient
       id="paint22_radial"
       cx="0"
       cy="0"
       r="1"
       gradientUnits="userSpaceOnUse"
       gradientTransform="matrix(1.8870143,12.952262,-12.952262,1.8870143,255.87,51.9693)"><stop
         stop-color="#8065E0"
         id="stop192" /><stop
         offset="1"
         stop-color="#512BD4"
         id="stop193" /></radialGradient><linearGradient
       id="paint23_linear"
       x1="246.435"
       y1="35.244701"
       x2="258.388"
       y2="35.244701"
       gradientUnits="userSpaceOnUse"><stop
         offset="0.2495"
         stop-color="#967FE6"
         id="stop194" /><stop
         offset="1"
         stop-color="#8A6FE8"
         id="stop195" /></linearGradient><linearGradient
       id="paint24_linear"
       x1="234.91299"
       y1="38.677502"
       x2="246.802"
       y2="38.677502"
       gradientUnits="userSpaceOnUse"><stop
         offset="0.2495"
         stop-color="#967FE6"
         id="stop196" /><stop
         offset="1"
         stop-color="#8A6FE8"
         id="stop197" /></linearGradient><linearGradient
       id="paint25_linear"
       x1="243.22"
       y1="32.972801"
       x2="255.10899"
       y2="32.972801"
       gradientUnits="userSpaceOnUse"><stop
         offset="0.2495"
         stop-color="#967FE6"
         id="stop198" /><stop
         offset="1"
         stop-color="#8A6FE8"
         id="stop199" /></linearGradient><linearGradient
       id="paint26_linear"
       x1="375.12299"
       y1="67.583199"
       x2="399.341"
       y2="67.583199"
       gradientUnits="userSpaceOnUse"><stop
         offset="0.2495"
         stop-color="#967FE6"
         id="stop200" /><stop
         offset="1"
         stop-color="#8A6FE8"
         id="stop201" /></linearGradient><radialGradient
       id="paint27_radial"
       cx="0"
       cy="0"
       r="1"
       gradientUnits="userSpaceOnUse"
       gradientTransform="matrix(13.603577,-7.8982207,7.8982207,13.603577,400.277,63.2329)"><stop
         stop-color="#8065E0"
         id="stop202" /><stop
         offset="1"
         stop-color="#512BD4"
         id="stop203" /></radialGradient><radialGradient
       id="paint28_radial"
       cx="0"
       cy="0"
       r="1"
       gradientUnits="userSpaceOnUse"
       gradientTransform="matrix(11.172158,0.34873557,-0.34873557,11.172158,255.633,116.89)"><stop
         stop-color="#8065E0"
         id="stop204" /><stop
         offset="1"
         stop-color="#512BD4"
         id="stop205" /></radialGradient><radialGradient
       id="paint29_radial"
       cx="0"
       cy="0"
       r="1"
       gradientUnits="userSpaceOnUse"
       gradientTransform="matrix(11.172158,0.34873557,-0.34873557,11.172158,253.53,132.645)"><stop
         stop-color="#8065E0"
         id="stop206" /><stop
         offset="1"
         stop-color="#512BD4"
         id="stop207" /></radialGradient><radialGradient
       id="paint30_radial"
       cx="0"
       cy="0"
       r="1"
       gradientUnits="userSpaceOnUse"
       gradientTransform="matrix(11.172158,0.34873557,-0.34873557,11.172158,254.943,148.187)"><stop
         stop-color="#8065E0"
         id="stop208" /><stop
         offset="1"
         stop-color="#512BD4"
         id="stop209" /></radialGradient><linearGradient
       id="paint31_linear"
       x1="455.285"
       y1="156.52499"
       x2="472.80899"
       y2="156.52499"
       gradientUnits="userSpaceOnUse"><stop
         offset="0.2495"
         stop-color="#967FE6"
         id="stop210" /><stop
         offset="1"
         stop-color="#8A6FE8"
         id="stop211" /></linearGradient><linearGradient
       id="paint32_linear"
       x1="455.659"
       y1="174.94"
       x2="473.64801"
       y2="174.94"
       gradientUnits="userSpaceOnUse"><stop
         offset="0.2495"
         stop-color="#967FE6"
         id="stop212" /><stop
         offset="1"
         stop-color="#8A6FE8"
         id="stop213" /></linearGradient><linearGradient
       id="paint33_linear"
       x1="459.80499"
       y1="167.97301"
       x2="477.827"
       y2="167.97301"
       gradientUnits="userSpaceOnUse"><stop
         offset="0.2495"
         stop-color="#967FE6"
         id="stop214" /><stop
         offset="1"
         stop-color="#8A6FE8"
         id="stop215" /></linearGradient><linearGradient
       id="paint34_linear"
       x1="450.005"
       y1="178.13699"
       x2="467.50101"
       y2="178.13699"
       gradientUnits="userSpaceOnUse"><stop
         offset="0.2495"
         stop-color="#967FE6"
         id="stop216" /><stop
         offset="1"
         stop-color="#8A6FE8"
         id="stop217" /></linearGradient><radialGradient
       id="paint35_radial"
       cx="0"
       cy="0"
       r="1"
       gradientUnits="userSpaceOnUse"
       gradientTransform="matrix(-3.7368218,15.746477,-15.746477,-3.7368218,451.403,167.503)"><stop
         stop-color="#8065E0"
         id="stop218" /><stop
         offset="1"
         stop-color="#512BD4"
         id="stop219" /></radialGradient><radialGradient
       id="paint36_radial"
       cx="0"
       cy="0"
       r="1"
       gradientUnits="userSpaceOnUse"
       gradientTransform="matrix(7.9238033,-7.8846517,7.8846517,7.9238033,256.967,166.914)"><stop
         stop-color="#8065E0"
         id="stop220" /><stop
         offset="1"
         stop-color="#512BD4"
         id="stop221" /></radialGradient><linearGradient
       id="paint37_linear"
       x1="159.82899"
       y1="96.621597"
       x2="177.435"
       y2="96.621597"
       gradientUnits="userSpaceOnUse"><stop
         offset="0.2495"
         stop-color="#967FE6"
         id="stop222" /><stop
         offset="1"
         stop-color="#8A6FE8"
         id="stop223" /></linearGradient><radialGradient
       id="paint38_radial"
       cx="0"
       cy="0"
       r="1"
       gradientUnits="userSpaceOnUse"
       gradientTransform="matrix(-10.268169,12.508683,-12.508683,-10.268169,179.227,89.7751)"><stop
         stop-color="#8065E0"
         id="stop224" /><stop
         offset="1"
         stop-color="#512BD4"
         id="stop225" /></radialGradient><linearGradient
       id="paint39_linear"
       x1="407.41101"
       y1="62.451599"
       x2="422.56699"
       y2="62.451599"
       gradientUnits="userSpaceOnUse"><stop
         offset="0.2495"
         stop-color="#967FE6"
         id="stop226" /><stop
         offset="1"
         stop-color="#8A6FE8"
         id="stop227" /></linearGradient><linearGradient
       id="paint40_linear"
       x1="403.561"
       y1="52.908501"
       x2="418.716"
       y2="52.908501"
       gradientUnits="userSpaceOnUse"><stop
         offset="0.2495"
         stop-color="#967FE6"
         id="stop228" /><stop
         offset="1"
         stop-color="#8A6FE8"
         id="stop229" /></linearGradient><linearGradient
       id="paint41_linear"
       x1="170.256"
       y1="157.323"
       x2="194.47701"
       y2="157.323"
       gradientUnits="userSpaceOnUse"><stop
         offset="0.2495"
         stop-color="#967FE6"
         id="stop230" /><stop
         offset="1"
         stop-color="#8A6FE8"
         id="stop231" /></linearGradient><radialGradient
       id="paint42_radial"
       cx="0"
       cy="0"
       r="1"
       gradientUnits="userSpaceOnUse"
       gradientTransform="matrix(-13.603545,-7.8980755,7.8980755,-13.603545,169.243,152.932)"><stop
         stop-color="#8065E0"
         id="stop232" /><stop
         offset="1"
         stop-color="#512BD4"
         id="stop233" /></radialGradient><linearGradient
       id="paint43_linear"
       x1="147.02901"
       y1="152.189"
       x2="162.185"
       y2="152.189"
       gradientUnits="userSpaceOnUse"><stop
         offset="0.2495"
         stop-color="#967FE6"
         id="stop234" /><stop
         offset="1"
         stop-color="#8A6FE8"
         id="stop235" /></linearGradient><linearGradient
       id="paint44_linear"
       x1="150.89"
       y1="142.64799"
       x2="166.035"
       y2="142.64799"
       gradientUnits="userSpaceOnUse"><stop
         offset="0.2495"
         stop-color="#967FE6"
         id="stop236" /><stop
         offset="1"
         stop-color="#8A6FE8"
         id="stop237" /></linearGradient><linearGradient
       id="paint45_linear"
       x1="441.479"
       y1="104.521"
       x2="460.436"
       y2="104.521"
       gradientUnits="userSpaceOnUse"><stop
         offset="0.2495"
         stop-color="#967FE6"
         id="stop238" /><stop
         offset="1"
         stop-color="#8A6FE8"
         id="stop239" /></linearGradient><linearGradient
       id="paint46_linear"
       x1="431.96201"
       y1="87.0886"
       x2="452.10199"
       y2="87.0886"
       gradientUnits="userSpaceOnUse"><stop
         offset="0.2495"
         stop-color="#967FE6"
         id="stop240" /><stop
         offset="1"
         stop-color="#8A6FE8"
         id="stop241" /></linearGradient><radialGradient
       id="paint47_radial"
       cx="0"
       cy="0"
       r="1"
       gradientUnits="userSpaceOnUse"
       gradientTransform="matrix(10.262427,14.194818,-14.194818,10.262427,435.736,93.9466)"><stop
         stop-color="#8065E0"
         id="stop242" /><stop
         offset="1"
         stop-color="#512BD4"
         id="stop243" /></radialGradient><linearGradient
       id="paint48_linear"
       x1="291.51001"
       y1="194.451"
       x2="311.271"
       y2="194.451"
       gradientUnits="userSpaceOnUse"><stop
         offset="0.2495"
         stop-color="#967FE6"
         id="stop244" /><stop
         offset="1"
         stop-color="#8A6FE8"
         id="stop245" /></linearGradient><linearGradient
       id="paint49_linear"
       x1="344.72601"
       y1="188.72301"
       x2="365.43201"
       y2="188.72301"
       gradientUnits="userSpaceOnUse"><stop
         offset="0.2495"
         stop-color="#967FE6"
         id="stop246" /><stop
         offset="1"
         stop-color="#8A6FE8"
         id="stop247" /></linearGradient><radialGradient
       id="paint50_radial"
       cx="0"
       cy="0"
       r="1"
       gradientUnits="userSpaceOnUse"
       gradientTransform="matrix(50.5541,0,0,50.5541,327.141,225.639)"><stop
         offset="0.2667"
         stop-color="#605D5A"
         id="stop248" /><stop
         offset="1"
         stop-color="#33312D"
         id="stop249" /></radialGradient><linearGradient
       id="paint51_linear"
       x1="289.20599"
       y1="205.78799"
       x2="311.79199"
       y2="205.78799"
       gradientUnits="userSpaceOnUse"><stop
         offset="0.2495"
         stop-color="#967FE6"
         id="stop250" /><stop
         offset="1"
         stop-color="#8A6FE8"
         id="stop251" /></linearGradient><linearGradient
       id="paint52_linear"
       x1="288.19"
       y1="213.173"
       x2="307.07199"
       y2="213.173"
       gradientUnits="userSpaceOnUse"><stop
         offset="0.2495"
         stop-color="#967FE6"
         id="stop252" /><stop
         offset="1"
         stop-color="#8A6FE8"
         id="stop253" /></linearGradient><linearGradient
       id="paint53_linear"
       x1="283.827"
       y1="218.351"
       x2="301.14499"
       y2="218.351"
       gradientUnits="userSpaceOnUse"><stop
         offset="0.2495"
         stop-color="#967FE6"
         id="stop254" /><stop
         offset="1"
         stop-color="#8A6FE8"
         id="stop255" /></linearGradient><radialGradient
       id="paint54_radial"
       cx="0"
       cy="0"
       r="1"
       gradientUnits="userSpaceOnUse"
       gradientTransform="matrix(-6.5827222,11.15876,-11.15876,-6.5827222,283.444,203.351)"><stop
         stop-color="#8065E0"
         id="stop256" /><stop
         offset="1"
         stop-color="#512BD4"
         id="stop257" /></radialGradient><linearGradient
       id="paint55_linear"
       x1="347.84698"
       y1="198.73599"
       x2="368.034"
       y2="198.73599"
       gradientUnits="userSpaceOnUse"><stop
         offset="0.2495"
         stop-color="#967FE6"
         id="stop258" /><stop
         offset="1"
         stop-color="#8A6FE8"
         id="stop259" /></linearGradient><linearGradient
       id="paint56_linear"
       x1="353.73001"
       y1="205.021"
       x2="371.36499"
       y2="205.021"
       gradientUnits="userSpaceOnUse"><stop
         offset="0.2495"
         stop-color="#967FE6"
         id="stop260" /><stop
         offset="1"
         stop-color="#8A6FE8"
         id="stop261" /></linearGradient><linearGradient
       id="paint57_linear"
       x1="360.08301"
       y1="209.37399"
       x2="376.59"
       y2="209.37399"
       gradientUnits="userSpaceOnUse"><stop
         offset="0.2495"
         stop-color="#967FE6"
         id="stop262" /><stop
         offset="1"
         stop-color="#8A6FE8"
         id="stop263" /></linearGradient><radialGradient
       id="paint58_radial"
       cx="0"
       cy="0"
       r="1"
       gradientUnits="userSpaceOnUse"
       gradientTransform="matrix(9.3191828,9.0003103,-9.0003103,9.3191828,373.949,193.748)"><stop
         stop-color="#8065E0"
         id="stop264" /><stop
         offset="1"
         stop-color="#512BD4"
         id="stop265" /></radialGradient></defs><g
     inkscape:label="Réteg 1"
     inkscape:groupmode="layer"
     id="layer1"
     transform="translate(-5,-5.1851698)"><g
       id="g4"
       transform="translate(-4.9180003e-7,29.990394)"><g
         style="fill:none"
         id="g1"
         transform="matrix(0.54644809,0,0,0.54644809,-68.234973,31.43389)"><path
           d="m 205.88,176.35 c -14,0 -27.56,-3.92 -40.13,-11.72 l 6.11,-9.85 c 43.51,27.01 84.82,-9.65 85.23,-10.02 l 7.78,8.59 c -0.49,0.44 -12.14,10.89 -30.06,17.57 -9.72,3.63 -19.43,5.43 -28.93,5.43 z"
           fill="url(#paint0_linear)"
           id="path1"
           style="fill:url(#paint0_linear)" /><path
           d="m 245.68,144.06 c -15.5,0 -44.67,-5.92 -71.56,-44.1 l 9.48,-6.67 c 33.24,47.21 68.73,38.77 70.22,38.39 l 2.98,11.2 c -0.53,0.14 -4.63,1.18 -11.12,1.18 z"
           fill="url(#paint1_linear)"
           id="path2"
           style="fill:url(#paint1_linear)" /><path
           d="m 374.22,204.12 -2.78,-10.59 c 19.14,-5.04 27.96,-8.63 31.98,-10.74 -4.64,-1.27 -14.87,-3 -37.27,-3.89 l 0.44,-10.93 c 41.48,1.65 49.78,5.98 50.59,13.35 0.76,7.08 -6.03,13.08 -42.96,22.8 z"
           fill="url(#paint2_linear)"
           id="path3"
           style="fill:url(#paint2_linear)" /><path
           d="m 282.8,212.68 c -8.58,-0.28 -21.71,-1.34 -32.88,-3.45 -17.15,-3.25 -25.38,-7.95 -26.67,-15.22 -1.57,-8.86 7.59,-16.61 30.6,-25.9 l 4.1,10.15 c -20.06,8.1 -23.32,12.8 -23.83,13.87 0.67,0.79 4.17,3.92 19.32,6.61 10.25,1.83 22.07,2.74 29.72,2.99 z"
           fill="url(#paint3_linear)"
           id="path4"
           style="fill:url(#paint3_linear)" /><path
           d="m 248.8,123.91 c -0.81,-0.71 -20,-19.25 -19.24,-41.4 0.44,-12.79 5.73,-25.27 18.79,-35.25 l 7.17,9.38 c -10.1,7.71 -13.79,18.65 -14.11,27.71 -0.61,16.54 15.04,30.56 15.2,30.7 z"
           fill="url(#paint4_linear)"
           id="path5"
           style="fill:url(#paint4_linear)" /><path
           d="m 374.91,127.64 0.89,-11.89 c 11.01,0.82 19.2,-1.92 23.08,-7.71 4.61,-6.88 3.39,-18.15 -3.43,-31.75 l 10.66,-5.34 c 11.32,22.56 7.7,36.24 2.68,43.72 -6.38,9.51 -18.41,14.13 -33.88,12.97 z"
           fill="url(#paint5_linear)"
           id="path6"
           style="fill:url(#paint5_linear)" /><path
           d="M 446.35,103.24 435,99.45 c -5.51,12.81 -12.96,22.77 -22.24,28.27 -8.16,4.83 -21.6,6.95 -32.69,6.13 l -1.94,11.14 c 20.63,1.53 50.52,-1.74 68.22,-41.75 z"
           fill="url(#paint6_linear)"
           id="path7"
           style="fill:url(#paint6_linear)" /><path
           d="m 451.56,173.71 -76.55,-11.56 1.67,-11.13 76.52,11.56 z"
           fill="url(#paint7_linear)"
           id="path8"
           style="fill:url(#paint7_linear)" /><path
           d="m 368.69,134.31 c -6.17,0 -11.18,-5.01 -11.18,-11.18 0,-6.17 5.01,-11.18 11.18,-11.18 6.17,0 11.18,5.01 11.18,11.18 0,6.18 -5.01,11.18 -11.18,11.18 z"
           fill="url(#paint8_radial)"
           id="path9"
           style="fill:url(#paint8_radial)" /><path
           d="m 370.79,150.06 c -6.17,0 -11.18,-5.01 -11.18,-11.18 0,-6.17 5.01,-11.18 11.18,-11.18 6.17,0 11.18,5.01 11.18,11.18 0,6.18 -5.01,11.18 -11.18,11.18 z"
           fill="url(#paint9_radial)"
           id="path10"
           style="fill:url(#paint9_radial)" /><path
           d="m 369.37,165.6 c -6.17,0 -11.18,-5.01 -11.18,-11.18 0,-6.17 5.01,-11.18 11.18,-11.18 6.17,0 11.18,5.01 11.18,11.18 0,6.19 -5,11.18 -11.18,11.18 z"
           fill="url(#paint10_radial)"
           id="path11"
           style="fill:url(#paint10_radial)" /><path
           d="m 362.19,181.16 c -6.17,0 -11.18,-5.01 -11.18,-11.18 0,-6.17 5.01,-11.18 11.18,-11.18 6.17,0 11.18,5.01 11.18,11.18 0,6.18 -5,11.18 -11.18,11.18 z"
           fill="url(#paint11_radial)"
           id="path12"
           style="fill:url(#paint11_radial)" /><path
           d="m 343.6,232.91 c 0.1,-9.66 -1.26,-29.25 -11.23,-45.65 l -9.75,5.91 c 9.04,14.89 9.72,32.25 9.5,39.83 0,0.63 5.84,1.19 11.48,-0.09 z"
           fill="url(#paint12_linear)"
           id="path13"
           style="fill:url(#paint12_linear)" /><path
           d="m 332.14,232.89 9.03,-0.04 8.42,48.26 -18.11,0.08 c -1.38,0 -2.42,-1.11 -2.33,-2.49 z"
           fill="#522cd5"
           id="path14" /><path
           d="m 368.9,268.41 c 1.56,1.24 1.53,3.03 1.42,4.91 l -0.37,5.78 c -0.06,1.03 -0.97,1.88 -2.01,1.89 l -18.87,0.09 c -1.17,0 -2.06,-0.94 -1.98,-2.11 l 0.13,-5.99 c 0.14,-2.18 -0.59,-2.97 -2.28,-5.02 -2.88,-3.5 -11.42,-22.61 -10.61,-35.07 l 9.3,-0.04 c 0.59,7.38 10.34,23.79 25.27,35.56 z"
           fill="url(#paint13_linear)"
           id="path15"
           style="fill:url(#paint13_linear)" /><path
           d="m 370.31,273.32 c 0.09,-1.31 0.12,-2.58 -0.41,-3.64 l -23.54,0.1 c 0.66,0.95 0.93,1.79 0.84,3.19 l -0.13,5.99 c -0.08,1.17 0.81,2.12 1.98,2.11 l 18.87,-0.09 c 1.03,0 1.93,-0.85 2.01,-1.89 z"
           fill="url(#paint14_radial)"
           id="path16"
           style="fill:url(#paint14_radial)" /><path
           d="m 295.99,233.12 c -0.19,-9.65 1,-29.26 10.82,-45.76 l 9.8,5.83 c -8.9,14.96 -9.43,32.34 -9.14,39.91 0.01,0.63 -5.82,1.26 -11.48,0.02 z"
           fill="url(#paint15_linear)"
           id="path17"
           style="fill:url(#paint15_linear)" /><path
           d="m 286.13,272.03 c -0.01,-1.29 0.18,-2.42 0.72,-4.3 8.42,-23.04 9.14,-34.66 9.14,-34.66 l 11.49,-0.05 c 0,0 0.79,11.4 9.43,34.35 0.68,1.64 0.76,3.13 0.85,4.51 l 0.05,7.37 c 0,1.11 -0.9,2.02 -2.01,2.03 h -0.55 l -26.5,0.12 h -0.55 c -1.12,0 -2.02,-0.89 -2.03,-2.01 z"
           fill="url(#paint16_linear)"
           id="path18"
           style="fill:url(#paint16_linear)" /><path
           d="m 286.13,272.03 c 0,-0.21 0,-0.41 0.01,-0.62 0.06,-0.64 0.35,-1.37 1.75,-1.37 l 28.35,-0.13 c 1.02,0.04 1.37,0.82 1.47,1.31 0.01,0.22 0.03,0.44 0.05,0.66 l 0.05,7.37 c 0,0.7 -0.35,1.31 -0.89,1.67 -0.32,0.22 -0.71,0.35 -1.12,0.35 h -0.55 l -26.5,0.12 h -0.55 c -0.55,0 -1.07,-0.22 -1.43,-0.58 -0.36,-0.36 -0.59,-0.86 -0.59,-1.43 z"
           fill="url(#paint17_radial)"
           id="path19"
           style="fill:url(#paint17_radial)" /><path
           d="m 315.32,200.41 c 33.74,0 61.1,-27.35 61.1,-61.1 0,-33.74 -27.35,-61.1 -61.1,-61.1 -33.74,0 -61.1,27.35 -61.1,61.1 0.01,33.75 27.36,61.1 61.1,61.1 z"
           fill="url(#paint18_radial)"
           id="path20"
           style="fill:url(#paint18_radial)" /><path
           d="m 262.65,170.25 h 105.36 c -2.37,4.02 -5.18,7.74 -8.37,11.1 h -88.63 c -3.18,-3.36 -6,-7.08 -8.36,-11.1 z"
           fill="#d8cff7"
           id="path21" /><path
           d="M 321.14,74.94 H 309.33 L 311,62.81 h 8.49 z"
           fill="url(#paint19_linear)"
           id="path22"
           style="fill:url(#paint19_linear)" /><path
           d="m 325.66,82.34 c 0.53,0 0.95,-0.46 0.9,-0.99 -0.63,-5.6 -5.37,-9.97 -11.15,-9.97 -5.77,0 -10.52,4.35 -11.15,9.97 -0.06,0.53 0.36,0.99 0.9,0.99 z"
           fill="url(#paint20_radial)"
           id="path23"
           style="fill:url(#paint20_radial)" /><path
           d="m 337.14,165.81 h -19.72 v 19.72 h 19.72 z"
           fill="#512bd4"
           id="path24" /><path
           d="m 320.94,178.4 c -0.14,0 -0.26,-0.05 -0.36,-0.14 -0.1,-0.09 -0.14,-0.21 -0.14,-0.33 0,-0.12 0.05,-0.24 0.14,-0.35 0.1,-0.09 0.22,-0.14 0.36,-0.14 0.14,0 0.26,0.05 0.36,0.14 0.1,0.09 0.15,0.21 0.15,0.35 0,0.13 -0.05,0.24 -0.15,0.33 -0.11,0.1 -0.22,0.14 -0.36,0.14 z"
           fill="#ffffff"
           id="path25" /><path
           d="m 326.5,178.33 h -0.9 l -2.38,-3.76 c -0.06,-0.09 -0.12,-0.19 -0.15,-0.3 h -0.03 c 0.01,0.12 0.03,0.35 0.03,0.71 v 3.36 h -0.8 v -5.13 h 0.97 l 2.31,3.67 c 0.1,0.15 0.15,0.26 0.19,0.31 h 0.01 c -0.03,-0.14 -0.04,-0.36 -0.04,-0.7 v -3.3 h 0.8 v 5.14 z"
           fill="#ffffff"
           id="path26" /><path
           d="m 330.4,178.33 h -2.81 v -5.13 h 2.69 v 0.72 h -1.87 v 1.46 h 1.71 v 0.72 h -1.71 v 1.52 h 1.97 v 0.71 z"
           fill="#ffffff"
           id="path27" /><path
           d="m 334.4,173.92 h -1.43 v 4.4 h -0.82 v -4.4 h -1.43 v -0.72 h 3.7 v 0.72 z"
           fill="#ffffff"
           id="path28" /><path
           d="m 315.39,65.31 c 4.65,0 8.41,-3.77 8.41,-8.41 0,-4.64 -3.76,-8.41 -8.41,-8.41 -4.64,0 -8.41,3.77 -8.41,8.41 0,4.64 3.76,8.41 8.41,8.41 z"
           fill="#d0c5f3"
           id="path29" /><path
           d="m 255,49.36 11.63,0.63 c 3.09,0.19 5.45,2.85 5.27,5.95 -0.19,3.09 -2.85,5.45 -5.95,5.27 l -11.93,-0.63 z"
           fill="url(#paint21_linear)"
           id="path30"
           style="fill:url(#paint21_linear)" /><path
           d="m 252.66,61.57 c 6.44,-0.88 10.95,-6.8 10.07,-13.24 -0.88,-6.44 -6.8,-10.95 -13.24,-10.07 -6.44,0.88 -10.95,6.8 -10.07,13.24 0.87,6.44 6.8,10.94 13.24,10.07 z"
           fill="url(#paint22_radial)"
           id="path31"
           style="fill:url(#paint22_radial)" /><path
           d="m 246.44,43.11 0.73,-11.62 c 0.22,-3.1 2.9,-5.42 6,-5.2 3.1,0.22 5.42,2.9 5.2,6 l -0.76,11.91 z"
           fill="url(#paint23_linear)"
           id="path32"
           style="fill:url(#paint23_linear)" /><path
           d="m 253.25,44.79 5.04,-10.5 c 1.37,-2.78 4.73,-3.94 7.51,-2.58 2.78,1.37 3.94,4.73 2.58,7.51 l -5.16,10.75 z"
           fill="#d0c5f3"
           id="path33" /><path
           d="m 239.3,44.84 6.85,12.94 c 0.89,1.69 2.99,2.33 4.67,1.43 L 278.7,44.44 c 1.69,-0.89 2.33,-2.99 1.43,-4.67 l -6.85,-12.93 c -0.89,-1.69 -2.99,-2.33 -4.67,-1.43 l -27.87,14.77 c -1.68,0.89 -2.33,2.97 -1.44,4.66 z"
           fill="#505050"
           id="path34" /><path
           d="m 271.61,28.9 c -0.09,0.08 -0.19,0.15 -0.27,0.26 l -0.62,0.88 c -0.46,0.66 -0.53,1.52 -0.15,2.23 l 3.72,7.03 c 0.37,0.71 1.12,1.15 1.92,1.13 l 1.07,-0.03 c 0.13,0 0.24,-0.04 0.36,-0.08 l 0.54,1.02 c 0.26,0.48 0.06,1.07 -0.4,1.33 l -28.15,14.91 c -0.48,0.26 -1.07,0.06 -1.33,-0.4 l -7.11,-13.42 c -0.26,-0.48 -0.06,-1.07 0.4,-1.33 L 269.76,27.5 c 0.48,-0.26 1.07,-0.06 1.33,0.4 z"
           fill="#f7b548"
           id="path35" /><path
           d="m 254.02,55.24 -4.38,2.32 c -0.48,0.26 -1.07,0.06 -1.33,-0.4 L 241.2,43.74 c -0.26,-0.48 -0.06,-1.07 0.4,-1.33 l 4.38,-2.32 z"
           fill="#969696"
           id="path36" /><path
           d="m 269.06,42.72 0.63,1.2 c 0.39,0.73 1.3,1.02 2.03,0.63 l 0.91,-0.48 c 0.73,-0.39 1.02,-1.3 0.63,-2.03 l -0.63,-1.2 c -0.39,-0.73 -1.3,-1.02 -2.03,-0.63 l -0.91,0.48 c -0.73,0.38 -1.01,1.29 -0.63,2.03 z"
           fill="#ffd590"
           id="path37" /><path
           d="m 266.6,38.05 0.63,1.2 c 0.39,0.73 1.3,1.02 2.03,0.63 l 0.91,-0.48 c 0.73,-0.39 1.02,-1.3 0.63,-2.03 l -0.63,-1.2 c -0.39,-0.73 -1.3,-1.02 -2.03,-0.63 l -0.91,0.48 c -0.74,0.4 -1.01,1.31 -0.63,2.03 z"
           fill="#ffd590"
           id="path38" /><path
           d="m 264.74,45.01 0.63,1.2 c 0.39,0.73 1.3,1.02 2.03,0.63 l 0.91,-0.48 c 0.73,-0.39 1.02,-1.3 0.63,-2.03 l -0.63,-1.2 c -0.39,-0.73 -1.3,-1.02 -2.03,-0.63 l -0.91,0.48 c -0.74,0.38 -1.02,1.29 -0.63,2.03 z"
           fill="#ffd590"
           id="path39" /><path
           d="m 262.28,40.35 0.63,1.2 c 0.39,0.73 1.3,1.02 2.03,0.63 l 0.91,-0.48 c 0.73,-0.39 1.02,-1.3 0.63,-2.03 l -0.63,-1.2 c -0.39,-0.73 -1.3,-1.02 -2.03,-0.63 l -0.91,0.48 c -0.74,0.38 -1.02,1.31 -0.63,2.03 z"
           fill="#ffd590"
           id="path40" /><path
           d="m 260.42,47.3 0.63,1.2 c 0.39,0.73 1.3,1.02 2.03,0.63 l 0.91,-0.48 c 0.73,-0.39 1.02,-1.3 0.63,-2.03 l -0.63,-1.2 c -0.39,-0.73 -1.3,-1.02 -2.03,-0.63 l -0.91,0.48 c -0.74,0.38 -1.03,1.29 -0.63,2.03 z"
           fill="#ffd590"
           id="path41" /><path
           d="m 257.95,42.64 0.63,1.2 c 0.39,0.73 1.3,1.02 2.03,0.63 l 0.91,-0.48 c 0.73,-0.39 1.02,-1.3 0.63,-2.03 l -0.63,-1.2 c -0.39,-0.73 -1.3,-1.02 -2.03,-0.63 l -0.91,0.48 c -0.73,0.38 -1.03,1.29 -0.63,2.03 z"
           fill="#ffd590"
           id="path42" /><path
           d="m 264.13,33.4 0.63,1.2 c 0.39,0.73 1.3,1.02 2.03,0.63 l 0.91,-0.48 c 0.73,-0.39 1.02,-1.3 0.63,-2.03 l -0.63,-1.2 c -0.39,-0.73 -1.3,-1.02 -2.03,-0.63 l -0.91,0.48 c -0.73,0.39 -1.02,1.3 -0.63,2.03 z"
           fill="#ffd590"
           id="path43" /><path
           d="m 259.8,35.7 0.63,1.2 c 0.39,0.73 1.3,1.02 2.03,0.63 l 0.91,-0.48 c 0.73,-0.39 1.02,-1.3 0.63,-2.03 l -0.63,-1.2 c -0.39,-0.73 -1.3,-1.02 -2.03,-0.63 l -0.91,0.48 c -0.73,0.36 -1.01,1.29 -0.63,2.03 z"
           fill="#ffd590"
           id="path44" /><path
           d="m 255.49,37.99 0.63,1.2 c 0.39,0.73 1.3,1.02 2.03,0.63 l 0.91,-0.48 c 0.73,-0.39 1.02,-1.3 0.63,-2.03 l -0.63,-1.2 c -0.39,-0.73 -1.3,-1.02 -2.03,-0.63 l -0.91,0.48 c -0.75,0.37 -1.02,1.3 -0.63,2.03 z"
           fill="#ffd590"
           id="path45" /><path
           d="m 234.97,37.05 0.71,4.87 c 0.44,3.05 3.28,5.16 6.34,4.73 3.05,-0.44 5.16,-3.28 4.73,-6.34 l -0.71,-4.87 c -0.44,-3.05 -3.28,-5.16 -6.34,-4.73 -3.05,0.45 -5.18,3.29 -4.73,6.34 z"
           fill="url(#paint24_linear)"
           id="path46"
           style="fill:url(#paint24_linear)" /><path
           d="m 243.28,31.34 0.71,4.87 c 0.44,3.05 3.28,5.16 6.34,4.73 3.05,-0.44 5.16,-3.28 4.73,-6.34 l -0.71,-4.87 c -0.44,-3.05 -3.28,-5.16 -6.34,-4.73 -3.06,0.43 -5.18,3.28 -4.73,6.34 z"
           fill="url(#paint25_linear)"
           id="path47"
           style="fill:url(#paint25_linear)" /><path
           d="m 377.33,67.03 13.47,9.8 c 2.41,1.75 5.76,1.21 7.51,-1.18 1.75,-2.41 1.21,-5.76 -1.18,-7.51 l -13.47,-9.8 c -2.41,-1.75 -5.76,-1.21 -7.51,1.18 -1.74,2.41 -1.21,5.77 1.18,7.51 z"
           fill="url(#paint26_linear)"
           id="path48"
           style="fill:url(#paint26_linear)" /><path
           d="m 410.02,74.56 8.19,-7.64 c 2.16,-2.05 2.27,-5.47 0.22,-7.64 -2.05,-2.17 -5.47,-2.27 -7.64,-0.22 l -8.4,7.83 z"
           fill="#d0c5f3"
           id="path49" /><path
           d="m 409.85,68.51 5.91,-14.27 c 1.13,-2.77 -0.19,-5.91 -2.95,-7.06 -2.77,-1.13 -5.91,0.19 -7.06,2.95 l -4.43,10.59 z"
           fill="#d0c5f3"
           id="path50" /><path
           d="m 403.31,67.58 2.52,-15.25 c 0.49,-2.95 -1.49,-5.73 -4.43,-6.22 -2.95,-0.49 -5.73,1.49 -6.22,4.43 l -2.58,15.53 z"
           fill="#d0c5f3"
           id="path51" /><path
           d="m 400.35,80.81 c 6.25,0 11.32,-5.06 11.32,-11.32 0,-6.25 -5.06,-11.32 -11.32,-11.32 -6.25,0 -11.32,5.06 -11.32,11.32 0,6.25 5.06,11.32 11.32,11.32 z"
           fill="url(#paint27_radial)"
           id="path52"
           style="fill:url(#paint27_radial)" /><path
           d="m 257.41,134.31 c 6.17,0 11.18,-5.01 11.18,-11.18 0,-6.17 -5.01,-11.18 -11.18,-11.18 -6.17,0 -11.18,5.01 -11.18,11.18 0,6.18 5,11.18 11.18,11.18 z"
           fill="url(#paint28_radial)"
           id="path53"
           style="fill:url(#paint28_radial)" /><path
           d="m 255.3,150.06 c 6.17,0 11.18,-5.01 11.18,-11.18 0,-6.17 -5.01,-11.18 -11.18,-11.18 -6.17,0 -11.18,5.01 -11.18,11.18 0.01,6.18 5.01,11.18 11.18,11.18 z"
           fill="url(#paint29_radial)"
           id="path54"
           style="fill:url(#paint29_radial)" /><path
           d="m 256.71,165.6 c 6.17,0 11.18,-5.01 11.18,-11.18 0,-6.17 -5.01,-11.18 -11.18,-11.18 -6.17,0 -11.18,5.01 -11.18,11.18 0,6.19 5.01,11.18 11.18,11.18 z"
           fill="url(#paint30_radial)"
           id="path55"
           style="fill:url(#paint30_radial)" /><path
           d="m 463.48,165.25 7.84,-8.22 c 2.07,-2.2 1.97,-5.68 -0.23,-7.75 -2.2,-2.07 -5.68,-1.97 -7.75,0.23 l -8.05,8.42 z"
           fill="url(#paint31_linear)"
           id="path56"
           style="fill:url(#paint31_linear)" /><path
           d="m 455.66,176.32 9.67,5.96 c 2.59,1.57 5.96,0.75 7.52,-1.84 1.57,-2.59 0.75,-5.96 -1.84,-7.52 l -9.92,-6.12 z"
           fill="url(#paint32_linear)"
           id="path57"
           style="fill:url(#paint32_linear)" /><path
           d="m 459.81,169.59 9.81,5.71 c 2.63,1.51 5.98,0.59 7.48,-2.03 1.5,-2.62 0.59,-5.98 -2.03,-7.48 L 465,159.92 Z"
           fill="url(#paint33_linear)"
           id="path58"
           style="fill:url(#paint33_linear)" /><path
           d="m 450,177.7 8.32,7.73 c 2.23,2.03 5.71,1.89 7.74,-0.33 2.03,-2.23 1.89,-5.71 -0.33,-7.74 l -8.54,-7.93 z"
           fill="url(#paint34_linear)"
           id="path59"
           style="fill:url(#paint34_linear)" /><path
           d="m 457.23,180.43 c 6.34,0 11.47,-5.14 11.47,-11.47 0,-6.34 -5.14,-11.47 -11.47,-11.47 -6.33,0 -11.47,5.14 -11.47,11.47 0,6.33 5.13,11.47 11.47,11.47 z"
           fill="url(#paint35_radial)"
           id="path60"
           style="fill:url(#paint35_radial)" /><path
           d="m 262.61,181.16 c 6.17,0 11.18,-5.01 11.18,-11.18 0,-6.17 -5.01,-11.18 -11.18,-11.18 -6.17,0 -11.18,5.01 -11.18,11.18 0,6.18 5.01,11.18 11.18,11.18 z"
           fill="url(#paint36_radial)"
           id="path61"
           style="fill:url(#paint36_radial)" /><path
           d="m 191.99,82.7 6.7,-9.18 c 1.79,-2.43 5.23,-2.95 7.66,-1.15 2.43,1.79 2.95,5.23 1.15,7.66 l -6.86,9.41 z"
           fill="#d0c5f3"
           id="path62" /><path
           d="m 174.74,92.59 -11.33,-0.84 c -3.01,-0.24 -5.27,-2.88 -5.02,-5.9 0.24,-3.01 2.88,-5.27 5.9,-5.02 l 11.62,0.86 z"
           fill="#d0c5f3"
           id="path63" /><path
           d="m 175.97,88.49 -7.35,-8.65 c -1.94,-2.32 -1.64,-5.78 0.7,-7.73 2.32,-1.94 5.78,-1.64 7.73,0.7 l 7.53,8.89 z"
           fill="#d0c5f3"
           id="path64" /><path
           d="m 176.08,102.6 -11.31,-1.03 c -3.01,-0.3 -5.22,-2.97 -4.92,-5.99 0.3,-3.01 2.97,-5.22 5.99,-4.92 l 11.59,1.06 z"
           fill="url(#paint37_linear)"
           id="path65"
           style="fill:url(#paint37_linear)" /><path
           d="m 171.96,102.05 c 5.04,3.85 12.23,2.88 16.07,-2.15 3.85,-5.04 2.88,-12.23 -2.15,-16.07 -5.04,-3.85 -12.23,-2.88 -16.07,2.15 -3.85,5.02 -2.88,12.22 2.15,16.07 z"
           fill="url(#paint38_radial)"
           id="path66"
           style="fill:url(#paint38_radial)" /><path
           d="M 215.59,95.39 H 145.97 C 135.77,95.57 135,94.12 134.73,93.77 h 89.63 c -0.25,0.3 -0.81,1.8 -8.77,1.62 z"
           fill="#505050"
           id="path67" /><path
           d="M 215.32,92.59 V 46.93 c 0,-1.97 -1.6,-3.57 -3.57,-3.57 h -64.39 c -1.97,0 -3.57,1.6 -3.57,3.57 v 45.65 h 71.53 z"
           fill="#505050"
           id="path68" /><path
           d="m 210.15,86.13 h -61.19 c -1.07,0 -1.93,-0.86 -1.93,-1.93 V 48.22 c 0,-1.07 0.86,-1.93 1.93,-1.93 h 61.19 c 1.07,0 1.93,0.86 1.93,1.93 v 36 c -0.01,1.05 -0.86,1.91 -1.93,1.91 z"
           fill="#72acf1"
           id="path69" /><path
           d="m 224.26,93.77 h -89.43 c -0.45,0 -0.81,-0.36 -0.81,-0.81 0,-0.45 0.36,-0.81 0.81,-0.81 h 89.43 c 0.45,0 0.81,0.36 0.81,0.81 0.02,0.45 -0.36,0.81 -0.81,0.81 z"
           fill="#969696"
           id="path70" /><path
           d="m 148.96,86.13 h 24.1 c -0.23,-5 -4.35,-8.98 -9.39,-8.98 -2.03,0 -3.94,0.66 -5.47,1.76 -0.68,-6.3 -5.19,-11.45 -11.15,-13.11 v 18.4 c -0.02,1.07 0.84,1.93 1.91,1.93 z"
           fill="#a7cbf6"
           id="path71" /><path
           d="m 173.31,86.13 h 4.64 c -1.67,-0.76 -3.31,-0.65 -4.64,0 z"
           fill="#7bddef"
           id="path72" /><path
           d="m 161.63,73.5 c -0.37,0 -0.68,-0.12 -0.95,-0.37 -0.26,-0.26 -0.4,-0.55 -0.4,-0.91 0,-0.36 0.13,-0.66 0.4,-0.93 0.26,-0.26 0.58,-0.39 0.95,-0.39 0.37,0 0.7,0.13 0.97,0.39 0.27,0.26 0.4,0.55 0.4,0.93 0,0.35 -0.14,0.66 -0.4,0.91 -0.26,0.25 -0.58,0.37 -0.97,0.37 z"
           fill="#ffffff"
           id="path73" /><path
           d="m 176.6,73.29 h -2.43 l -6.4,-10.1 c -0.17,-0.26 -0.3,-0.52 -0.4,-0.8 h -0.06 c 0.05,0.3 0.08,0.93 0.08,1.88 v 9 h -2.15 V 59.55 h 2.59 l 6.19,9.86 c 0.26,0.41 0.42,0.68 0.5,0.85 h 0.04 c -0.06,-0.36 -0.09,-0.98 -0.09,-1.85 v -8.86 h 2.14 v 13.74 z"
           fill="#ffffff"
           id="path74" /><path
           d="m 186.15,73.35 h -7.52 V 59.6 h 7.22 v 1.93 h -5 v 3.89 h 4.61 v 1.93 h -4.61 v 4.07 h 5.31 v 1.92 h -0.01 z"
           fill="#ffffff"
           id="path75" /><path
           d="m 196.84,61.54 h -3.85 v 11.81 h -2.23 V 61.54 h -3.82 V 59.6 h 9.92 z"
           fill="#ffffff"
           id="path76" /><path
           d="m 410.83,64.96 h -27.65 c -2.67,0 -4.84,-2.16 -4.84,-4.84 v -24.6 c 0,-2.67 2.16,-4.84 4.84,-4.84 h 27.65 c 2.67,0 4.84,2.16 4.84,4.84 v 24.6 c 0,2.67 -2.16,4.84 -4.84,4.84 z"
           fill="#28c2d1"
           id="path77" /><path
           d="M 410.61,45.56 398.2,34.16 c -0.3,-0.27 -0.76,-0.27 -1.06,0 l -3.76,3.44 c -0.5,0.45 -1.31,0.1 -1.31,-0.58 v -0.75 c 0,-0.43 -0.35,-0.79 -0.79,-0.79 h -1.93 c -0.42,0 -0.79,0.35 -0.79,0.79 v 5.4 c 0,0.22 -0.09,0.42 -0.24,0.58 l -3.59,3.31 c -0.53,0.48 -0.18,1.37 0.53,1.37 h 0.55 c 0.42,0 0.79,0.35 0.79,0.79 v 11.04 c 0,0.42 0.35,0.79 0.79,0.79 h 20.58 c 0.42,0 0.79,-0.35 0.79,-0.79 V 47.7 c 0,-0.42 0.35,-0.79 0.79,-0.79 h 0.55 c 0.69,0 1.02,-0.87 0.51,-1.35 z"
           fill="#ffffff"
           id="path78" /><path
           d="m 395.28,46.53 v -2.46 c 0,-1.35 1.11,-2.46 2.46,-2.46 1.35,0 2.46,1.11 2.46,2.46 v 2.46 h 1.65 v -2.46 c 0,-2.27 -1.84,-4.1 -4.1,-4.1 -2.26,0 -4.1,1.84 -4.1,4.1 v 2.46 z"
           fill="#969696"
           id="path79" /><path
           d="m 402.23,55.62 h -9.13 c -1.24,0 -2.24,-1 -2.24,-2.25 v -5.1 c 0,-1.24 1,-2.25 2.24,-2.25 h 9.13 c 1.24,0 2.24,1 2.24,2.25 v 5.1 c 0,1.26 -1.01,2.25 -2.24,2.25 z"
           fill="#969696"
           id="path80" /><path
           d="m 398.81,49.93 c 0,-0.66 -0.53,-1.18 -1.18,-1.18 -0.66,0 -1.18,0.53 -1.18,1.18 0,0.48 0.28,0.9 0.7,1.08 l -0.26,2.11 h 1.55 L 398.17,51 c 0.37,-0.21 0.64,-0.61 0.64,-1.07 z"
           fill="#ffffff"
           id="path81" /><path
           d="m 410.27,24.44 c 6.32,-0.01 11.51,5.07 11.55,11.37 0,0.06 -0.01,0.14 -0.01,0.22 l 1.34,-0.01 0.01,-0.01 c 0.06,-7.13 -5.77,-12.93 -12.9,-12.9 z"
           fill="#c7e0f4"
           id="path82" /><path
           d="m 410.31,29 0.01,1.34 c 3.05,0.01 5.55,2.47 5.58,5.52 0,0.06 -0.01,0.14 -0.01,0.22 l 1.34,-0.01 0.01,-0.01 C 417.33,32.18 414.19,29 410.31,29 Z"
           fill="#c7e0f4"
           id="path83" /><path
           d="m 410.3,26.05 0.01,1.34 c 4.69,0 8.54,3.77 8.56,8.45 0,0.06 -0.01,0.14 -0.01,0.22 l 1.34,-0.01 0.01,-0.01 c 0.08,-5.52 -4.41,-9.99 -9.91,-9.99 z"
           fill="#c7e0f4"
           id="path84" /><path
           d="m 411.65,37.12 c 1.22,0 2.22,-0.99 2.22,-2.22 0,-1.22 -0.99,-2.22 -2.22,-2.22 -1.22,0 -2.22,0.99 -2.22,2.22 0.01,1.23 1,2.22 2.22,2.22 z"
           fill="#c7e0f4"
           id="path85" /><path
           d="m 421,56.64 c -2.05,-2.07 -5.37,-2.14 -7.51,-0.17 l -4.38,4.06 c -2.18,2.03 -2.28,5.46 -0.24,7.64 2.04,2.18 5.46,2.28 7.64,0.24 l 4.33,-4.01 c 2.24,-2.07 2.31,-5.6 0.16,-7.76 z"
           fill="url(#paint39_linear)"
           id="path86"
           style="fill:url(#paint39_linear)" /><path
           d="m 417.15,47.09 c -2.05,-2.07 -5.37,-2.14 -7.51,-0.17 l -4.38,4.06 c -2.18,2.03 -2.28,5.46 -0.24,7.64 2.04,2.18 5.46,2.28 7.64,0.24 l 4.33,-4.01 c 2.24,-2.06 2.31,-5.58 0.16,-7.76 z"
           fill="url(#paint40_linear)"
           id="path87"
           style="fill:url(#paint40_linear)" /><path
           d="m 192.26,156.77 -13.47,9.8 c -2.41,1.75 -5.76,1.21 -7.51,-1.18 -1.75,-2.41 -1.21,-5.76 1.18,-7.51 l 13.47,-9.8 c 2.41,-1.75 5.76,-1.21 7.51,1.18 1.75,2.41 1.23,5.77 -1.18,7.51 z"
           fill="url(#paint41_linear)"
           id="path88"
           style="fill:url(#paint41_linear)" /><path
           d="m 169.26,170.55 c 6.25,0 11.32,-5.06 11.32,-11.32 0,-6.25 -5.06,-11.32 -11.32,-11.32 -6.26,0 -11.32,5.06 -11.32,11.32 0.02,6.26 5.08,11.32 11.32,11.32 z"
           fill="url(#paint42_radial)"
           id="path89"
           style="fill:url(#paint42_radial)" /><path
           d="m 160.06,154.79 h 27.65 c 2.67,0 4.84,-2.16 4.84,-4.84 v -24.61 c 0,-2.67 -2.16,-4.84 -4.84,-4.84 h -27.65 c -2.67,0 -4.84,2.16 -4.84,4.84 v 24.6 c -0.01,2.67 2.16,4.85 4.84,4.85 z"
           fill="#28c2d1"
           id="path90" /><path
           d="m 176,134.03 h 5.41 v -2.28 H 176 Z"
           fill="#feffff"
           id="path91" /><path
           d="m 177.97,138.6 h 1.49 v -4.69 h -1.49 z"
           fill="#ffffff"
           id="path92" /><path
           d="m 163.29,125.91 h 20.72 c 0.91,0 1.66,0.75 1.66,1.66 v 3.77 c 0,0.91 -0.75,1.66 -1.66,1.66 h -11.17 c -0.91,0 -1.66,0.75 -1.66,1.66 v 10.08 c 0,1.29 1.04,2.33 2.33,2.33 h 12.14 v 1.53 c 0,0.9 -0.72,1.62 -1.62,1.62 h -14.51 -5.96 -0.27 c -0.91,0 -1.66,-0.75 -1.66,-1.66 v -0.27 -1.21 -19.52 c 0.01,-0.9 0.74,-1.65 1.66,-1.65 z"
           fill="#505050"
           id="path93" /><path
           d="m 179.57,128.91 h 2.41 c 0.35,0 0.63,-0.28 0.63,-0.63 0,-0.35 -0.28,-0.63 -0.63,-0.63 h -2.41 c -0.35,0 -0.63,0.28 -0.63,0.63 0,0.35 0.28,0.63 0.63,0.63 z"
           fill="#b3afab"
           id="path94" /><path
           d="m 163.92,131.68 h 5.16 c 0.33,0 0.61,-0.27 0.61,-0.61 v -2.64 c 0,-0.33 -0.27,-0.61 -0.61,-0.61 h -5.16 c -0.33,0 -0.61,0.27 -0.61,0.61 v 2.64 c 0,0.34 0.27,0.61 0.61,0.61 z"
           fill="#72acf1"
           id="path95" /><path
           d="m 168.22,135.37 c 0.58,0 1.06,-0.48 1.06,-1.06 0,-0.58 -0.48,-1.06 -1.06,-1.06 -0.58,0 -1.06,0.48 -1.06,1.06 0,0.59 0.47,1.06 1.06,1.06 z"
           fill="#77d672"
           id="path96" /><path
           d="m 164.69,135.37 c 0.58,0 1.06,-0.48 1.06,-1.06 0,-0.58 -0.48,-1.06 -1.06,-1.06 -0.58,0 -1.06,0.48 -1.06,1.06 0.02,0.59 0.48,1.06 1.06,1.06 z"
           fill="#f7b548"
           id="path97" /><path
           d="m 173.54,139.41 1.39,7.02 c 0.08,0.4 0.42,0.68 0.82,0.68 h 6.04 c 0.4,0 0.75,-0.28 0.82,-0.68 l 0.32,-1.6 h 1.65 c 0.95,0 1.71,-0.77 1.71,-1.71 v -1.52 c 0,-0.95 -0.77,-1.71 -1.71,-1.71 h -0.67 l 0.09,-0.48 c 0.1,-0.53 -0.3,-1 -0.82,-1 h -8.82 c -0.51,-0.02 -0.92,0.47 -0.82,1 z"
           fill="#ffffff"
           id="path98" /><path
           d="m 183.12,143.97 0.63,-3.22 h 0.85 c 0.48,0 0.85,0.37 0.85,0.85 v 1.52 c 0,0.48 -0.37,0.85 -0.85,0.85 z"
           fill="#ffffff"
           id="path99" /><path
           d="m 160.92,114.86 c -6.32,-0.01 -11.51,5.07 -11.55,11.37 0,0.06 0.01,0.14 0.01,0.22 l -1.34,-0.01 -0.01,-0.01 c -0.06,-7.13 5.77,-12.93 12.9,-12.9 z"
           fill="#c7e0f4"
           id="path100" /><path
           d="m 160.89,119.42 -0.01,1.33 c -3.05,0.01 -5.55,2.47 -5.58,5.52 0,0.06 0.01,0.14 0.01,0.22 l -1.34,-0.01 -0.01,-0.01 c -0.09,-3.87 3.06,-7.05 6.93,-7.05 z"
           fill="#c7e0f4"
           id="path101" /><path
           d="m 160.91,116.47 -0.01,1.34 c -4.69,0 -8.54,3.77 -8.56,8.45 0,0.06 0.01,0.14 0.01,0.22 l -1.34,-0.01 -0.01,-0.01 c -0.09,-5.51 4.41,-9.99 9.91,-9.99 z"
           fill="#c7e0f4"
           id="path102" /><path
           d="m 159.55,127.56 c 1.22,0 2.22,-0.99 2.22,-2.22 0,-1.22 -0.99,-2.22 -2.22,-2.22 -1.23,0 -2.22,0.99 -2.22,2.22 0.01,1.23 1,2.22 2.22,2.22 z"
           fill="#c7e0f4"
           id="path103" /><path
           d="m 148.59,146.37 c 2.05,-2.07 5.37,-2.14 7.51,-0.17 l 4.38,4.06 c 2.18,2.03 2.28,5.46 0.24,7.64 -2.03,2.18 -5.46,2.28 -7.64,0.24 l -4.33,-4.01 c -2.23,-2.06 -2.31,-5.59 -0.16,-7.76 z"
           fill="url(#paint43_linear)"
           id="path104"
           style="fill:url(#paint43_linear)" /><path
           d="m 152.44,136.83 c 2.05,-2.07 5.37,-2.14 7.51,-0.17 l 4.38,4.06 c 2.18,2.03 2.28,5.46 0.24,7.64 -2.03,2.18 -5.46,2.28 -7.64,0.24 l -4.33,-4.01 c -2.22,-2.06 -2.29,-5.58 -0.16,-7.76 z"
           fill="url(#paint44_linear)"
           id="path105"
           style="fill:url(#paint44_linear)" /><path
           d="m 425.37,172.01 3.68,0.55 c 0.58,0.09 1.12,-0.31 1.2,-0.89 l 2.01,-13.32 c 0.09,-0.58 -0.31,-1.12 -0.89,-1.2 l -3.68,-0.55 c -0.58,-0.09 -1.12,0.31 -1.2,0.89 l -2.01,13.32 c -0.09,0.57 0.32,1.11 0.89,1.2 z"
           fill="#f7b548"
           id="path106" /><path
           d="m 425.63,168.61 4.2,0.63 c 0.17,0.03 0.32,-0.09 0.33,-0.26 l 1.22,-8.1 c 0.03,-0.17 -0.09,-0.32 -0.26,-0.33 l -4.2,-0.63 c -0.17,-0.03 -0.32,0.09 -0.33,0.26 l -1.22,8.1 c -0.04,0.15 0.09,0.31 0.26,0.33 z"
           fill="#505050"
           id="path107" /><path
           d="m 426.31,165.68 -0.12,0.75 3.89,0.59 0.12,-0.75 z"
           fill="#969696"
           id="path108" /><path
           d="m 426.12,166.93 -0.12,0.75 3.89,0.59 0.12,-0.75 z"
           fill="#969696"
           id="path109" /><path
           d="m 428.65,164.51 c -0.94,0 -1.7,-0.77 -1.7,-1.7 0,-0.93 0.77,-1.7 1.7,-1.7 0.93,0 1.7,0.77 1.7,1.7 0,0.93 -0.76,1.7 -1.7,1.7 z"
           fill="#969696"
           id="path110" /><path
           d="m 441.48,109.45 12.16,1.88 c 3.25,0.48 6.26,-1.76 6.74,-5.01 0.48,-3.25 -1.76,-6.26 -5.01,-6.74 L 442.9,97.65 Z"
           fill="url(#paint45_linear)"
           id="path111"
           style="fill:url(#paint45_linear)" /><path
           d="m 457.83,78.89 c -0.46,0 -0.85,0.37 -0.85,0.85 v 14.54 c 0,0.46 0.37,0.85 0.85,0.85 h 31.73 c 0.46,0 0.85,-0.37 0.85,-0.85 V 79.72 c 0,-0.46 -0.37,-0.85 -0.85,-0.85 h -31.73 z"
           fill="#7bddef"
           id="path112" /><path
           d="m 448.15,89.24 c 0,0 1.26,11.46 3.22,14.84 0.67,1.16 1.91,1.85 3.25,1.85 h 38.92 c 1.34,0 2.58,-0.71 3.25,-1.85 1.96,-3.37 3.22,-14.84 3.22,-14.84 0,0 -1.26,-11.46 -3.22,-14.84 -0.67,-1.16 -1.91,-1.85 -3.25,-1.85 h -38.92 c -1.34,0 -2.58,0.71 -3.25,1.85 -1.94,3.37 -3.22,14.84 -3.22,14.84 z"
           fill="#e5e5e1"
           id="path113" /><path
           d="m 451.38,104.07 c 0.67,1.16 1.91,1.85 3.25,1.85 h 38.92 c 1.34,0 2.58,-0.71 3.25,-1.85 1.96,-3.37 3.22,-14.84 3.22,-14.84 h -51.85 c -0.02,0.01 1.26,11.47 3.21,14.84 z"
           fill="#969696"
           id="path114" /><path
           d="m 489.57,97.52 h -31.73 c -1.8,0 -3.26,-1.47 -3.26,-3.26 V 79.72 c 0,-1.8 1.47,-3.26 3.26,-3.26 h 31.73 c 1.8,0 3.26,1.47 3.26,3.26 v 14.54 c 0.01,1.8 -1.46,3.26 -3.26,3.26 z"
           fill="#505050"
           id="path115" /><path
           d="m 462.73,102.81 c 0.81,0 1.47,-0.66 1.47,-1.47 0,-0.81 -0.66,-1.47 -1.47,-1.47 -0.81,0 -1.47,0.66 -1.47,1.47 0,0.82 0.66,1.47 1.47,1.47 z"
           fill="#505050"
           id="path116" /><path
           d="m 470.1,102.81 c 0.81,0 1.47,-0.66 1.47,-1.47 0,-0.81 -0.66,-1.47 -1.47,-1.47 -0.81,0 -1.47,0.66 -1.47,1.47 0,0.82 0.65,1.47 1.47,1.47 z"
           fill="#505050"
           id="path117" /><path
           d="m 477.47,102.81 c 0.81,0 1.47,-0.66 1.47,-1.47 0,-0.81 -0.66,-1.47 -1.47,-1.47 -0.81,0 -1.47,0.66 -1.47,1.47 0.01,0.82 0.66,1.47 1.47,1.47 z"
           fill="#505050"
           id="path118" /><path
           d="m 484.84,102.81 c 0.81,0 1.47,-0.66 1.47,-1.47 0,-0.81 -0.66,-1.47 -1.47,-1.47 -0.81,0 -1.47,0.66 -1.47,1.47 0,0.82 0.66,1.47 1.47,1.47 z"
           fill="#505050"
           id="path119" /><path
           d="m 457.83,78.89 c -0.46,0 -0.85,0.37 -0.85,0.85 v 14.54 c 0,0.46 0.37,0.85 0.85,0.85 h 31.73 c 0.46,0 0.85,-0.37 0.85,-0.85 V 79.72 c 0,-0.46 -0.37,-0.85 -0.85,-0.85 h -31.73 z"
           fill="#72acf1"
           id="path120" /><path
           d="m 462.07,78.89 h -4.24 c -0.46,0 -0.85,0.37 -0.85,0.85 v 14.54 c 0,0.46 0.37,0.85 0.85,0.85 h 11.05 z"
           fill="#a7cbf6"
           id="path121" /><path
           d="m 479.12,82.72 v 0.79 l -3.84,8.02 h -1.24 l 3.82,-7.79 v -0.03 h -4.31 v -0.99 z"
           fill="#ffffff"
           id="path122" /><path
           d="m 482.94,83.83 h -0.03 l -1.53,0.82 -0.23,-0.9 1.92,-1.03 h 1.02 v 8.81 h -1.15 z"
           fill="#ffffff"
           id="path123" /><path
           d="m 487.58,85.8 c -0.97,0 -1.76,-0.79 -1.76,-1.76 0,-0.97 0.79,-1.76 1.76,-1.76 0.97,0 1.76,0.79 1.76,1.76 0,0.97 -0.79,1.76 -1.76,1.76 z m 0,-2.67 c -0.5,0 -0.91,0.41 -0.91,0.91 0,0.5 0.41,0.91 0.91,0.91 0.5,0 0.91,-0.41 0.91,-0.91 0,-0.5 -0.4,-0.91 -0.91,-0.91 z"
           fill="#ffffff"
           id="path124" /><path
           d="m 444.4,96.81 6.75,-10.29 c 1.78,-2.76 0.99,-6.43 -1.76,-8.2 -2.76,-1.78 -6.43,-0.99 -8.2,1.76 l -9.22,13.74 z"
           fill="url(#paint46_linear)"
           id="path125"
           style="fill:url(#paint46_linear)" /><path
           d="m 440.94,113.81 c 6.86,0 12.43,-5.56 12.43,-12.43 0,-6.86 -5.56,-12.43 -12.43,-12.43 -6.86,0 -12.43,5.56 -12.43,12.43 0,6.87 5.56,12.43 12.43,12.43 z"
           fill="url(#paint47_radial)"
           id="path126"
           style="fill:url(#paint47_radial)" /><path
           d="M 300.78,204.31 309.6,195 c 2.33,-2.5 2.2,-6.41 -0.3,-8.74 -2.5,-2.33 -6.41,-2.2 -8.74,0.3 l -9.05,9.55 z"
           fill="url(#paint48_linear)"
           id="path127"
           style="fill:url(#paint48_linear)" /><path
           d="m 358.67,197.77 -10.99,-6.62 c -2.92,-1.78 -3.84,-5.6 -2.03,-8.51 1.78,-2.92 5.6,-3.84 8.51,-2.05 l 11.27,6.8 z"
           fill="url(#paint49_linear)"
           id="path128"
           style="fill:url(#paint49_linear)" /><path
           d="m 360.04,195.96 c -4.53,-11.62 -9.89,-16 -15.15,-15.36 -3.21,0.37 -33.46,3.97 -36.66,4.35 -5.27,0.62 -9.54,6.14 -11.44,18.52 -1.91,12.38 0.97,20.03 7.43,19.27 4.82,-0.57 9.38,-8.29 14.59,-10.69 3.39,-1.57 10.34,-2.15 10.34,-2.15 0,0 7.64,-1.15 11.27,-0.41 5.6,1.12 11.71,7.57 16.54,7.01 6.48,-0.8 7.61,-8.93 3.08,-20.54 z"
           fill="url(#paint50_radial)"
           id="path129"
           style="fill:url(#paint50_radial)" /><path
           d="m 306.89,188.23 c 3.5,-0.41 36.5,-4.33 40,-4.74 2.63,-0.31 5.27,0.44 7.82,2.43 -3.16,-4.13 -6.5,-5.73 -9.83,-5.34 -3.21,0.37 -33.46,3.97 -36.66,4.35 -3.31,0.4 -6.23,2.73 -8.42,7.5 2.06,-2.53 4.46,-3.88 7.09,-4.2 z"
           fill="#605d5a"
           id="path130" /><path
           d="m 290,199.97 0.42,-0.72 c 1.62,-2.74 5.15,-3.66 7.88,-2.03 l 10.65,6.5 c 2.74,1.62 3.64,5.15 2.03,7.88 l -0.42,0.72 c -1.62,2.74 -5.15,3.66 -7.88,2.03 l -10.65,-6.5 c -2.74,-1.6 -3.64,-5.13 -2.03,-7.88 z"
           fill="url(#paint51_linear)"
           id="path131"
           style="fill:url(#paint51_linear)" /><path
           d="m 289.05,208.11 c 1.73,-2.95 5.52,-3.92 8.46,-2.19 l 6.52,3.85 c 2.95,1.73 3.92,5.52 2.19,8.46 -1.73,2.95 -5.52,3.92 -8.46,2.19 l -6.52,-3.85 c -2.95,-1.72 -3.93,-5.52 -2.19,-8.46 z"
           fill="url(#paint52_linear)"
           id="path132"
           style="fill:url(#paint52_linear)" /><path
           d="m 284.43,214.51 c 1.47,-3.08 5.15,-4.4 8.24,-2.92 l 4.95,2.36 c 3.08,1.47 4.4,5.15 2.92,8.24 -1.47,3.08 -5.15,4.4 -8.24,2.92 l -4.95,-2.36 c -3.06,-1.46 -4.39,-5.15 -2.92,-8.24 z"
           fill="url(#paint53_linear)"
           id="path133"
           style="fill:url(#paint53_linear)" /><path
           d="m 289.14,220.01 c 7.16,0 12.96,-5.81 12.96,-12.96 0,-7.16 -5.81,-12.96 -12.96,-12.96 -7.15,0 -12.96,5.81 -12.96,12.96 0,7.15 5.81,12.96 12.96,12.96 z"
           fill="url(#paint54_radial)"
           id="path134"
           style="fill:url(#paint54_radial)" /><path
           d="m 366.28,191.09 -0.61,-0.58 c -2.29,-2.22 -5.94,-2.14 -8.15,0.14 l -8.06,7.59 c -2.22,2.29 -2.14,5.94 0.14,8.15 l 0.61,0.58 c 2.29,2.22 5.94,2.14 8.15,-0.14 l 8.06,-7.59 c 2.21,-2.29 2.14,-5.94 -0.14,-8.15 z"
           fill="url(#paint55_linear)"
           id="path135"
           style="fill:url(#paint55_linear)" /><path
           d="m 369.48,197.85 c -2.46,-2.37 -6.37,-2.31 -8.74,0.15 l -5.27,5.45 c -2.37,2.46 -2.31,6.37 0.15,8.74 2.46,2.37 6.37,2.31 8.74,-0.15 l 5.27,-5.45 c 2.37,-2.46 2.31,-6.37 -0.15,-8.74 z"
           fill="url(#paint56_linear)"
           id="path136"
           style="fill:url(#paint56_linear)" /><path
           d="m 375.08,203.54 c -2.23,-2.59 -6.14,-2.87 -8.72,-0.63 l -4.13,3.58 c -2.59,2.23 -2.87,6.14 -0.63,8.72 2.23,2.59 6.14,2.87 8.72,0.63 l 4.13,-3.58 c 2.59,-2.23 2.87,-6.13 0.63,-8.72 z"
           fill="url(#paint57_linear)"
           id="path137"
           style="fill:url(#paint57_linear)" /><path
           d="m 369.46,211.69 c 7.16,0 12.96,-5.81 12.96,-12.96 0,-7.16 -5.81,-12.96 -12.96,-12.96 -7.15,0 -12.96,5.81 -12.96,12.96 0.01,7.15 5.82,12.96 12.96,12.96 z"
           fill="url(#paint58_radial)"
           id="path138"
           style="fill:url(#paint58_radial)" /><path
           d="m 328.79,184.22 -0.14,-1.26 c -0.09,-0.85 -0.95,-1.43 -1.92,-1.31 l -1.21,0.14 c -0.97,0.12 -1.66,0.89 -1.57,1.73 l 0.14,1.26 z"
           fill="#33312d"
           id="path139" /><path
           d="m 318.04,185.42 -0.03,-0.21 c -0.09,-0.82 -0.71,-1.44 -1.37,-1.37 l -9.56,1.11 c -0.66,0.08 -1.11,0.81 -1.02,1.64 l 0.03,0.21 z"
           fill="#33312d"
           id="path140" /><path
           d="m 346.68,181.94 -0.03,-0.21 c -0.09,-0.82 -0.71,-1.44 -1.37,-1.37 l -9.56,1.11 c -0.66,0.08 -1.11,0.81 -1.02,1.64 l 0.03,0.21 z"
           fill="#33312d"
           id="path141" /><path
           d="m 371.69,139.48 c 0,6.75 -1.3,13.19 -3.66,19.1 -0.57,1.43 -1.96,2.37 -3.5,2.37 h -79.06 c -1.55,0 -2.92,-0.94 -3.5,-2.37 -2.36,-5.91 -3.66,-12.35 -3.66,-19.1 0,-2.76 0.22,-5.47 0.64,-8.11 0.28,-1.82 1.88,-3.13 3.71,-3.13 h 84.68 c 1.84,0 3.43,1.33 3.71,3.13 0.42,2.65 0.64,5.36 0.64,8.11 z"
           fill="#ffffff"
           id="path142" /><path
           d="m 343.67,156.62 c 0,0 -9.94,-7.87 -11.89,-9.32 -1.95,-1.45 -3.64,-1.53 -5.42,0 -1.78,1.53 -11.73,9.32 -11.73,9.32 z"
           fill="#a08be8"
           id="path143" /><path
           d="m 371.05,131.38 c -0.28,-1.82 -1.88,-3.13 -3.71,-3.13 h -4.35 c 1.84,0 3.43,1.33 3.71,3.13 0.42,2.64 0.64,5.34 0.64,8.11 0,3.98 -0.46,7.84 -1.31,11.56 -0.26,1.07 -0.54,2.14 -0.85,3.19 -0.44,1.48 -1.96,2.37 -3.5,2.37 h -77.95 c -1.44,0 -2.76,-0.71 -3.19,-2.1 -0.31,-1.03 -0.85,-3.17 -0.85,-3.17 1.65,8.99 3.22,9.61 5.13,9.61 h 0.45 74.93 4.35 c 1.55,0 2.92,-0.94 3.5,-2.37 2.36,-5.91 3.66,-12.35 3.66,-19.1 -0.02,-2.75 -0.24,-5.46 -0.66,-8.1 z"
           fill="#512bd4"
           id="path144" /><path
           d="m 304.29,149.66 c 2.64,-0.04 4.72,-3.67 4.66,-8.11 -0.07,-4.44 -2.26,-8 -4.9,-7.96 -2.64,0.04 -4.72,3.67 -4.66,8.11 0.07,4.44 2.26,8 4.9,7.96 z"
           fill="#512bd4"
           id="path145" /><path
           d="m 352.09,141.66 c 0.07,-4.44 -2.02,-8.07 -4.66,-8.11 -2.64,-0.04 -4.83,3.53 -4.9,7.96 -0.07,4.44 2.02,8.07 4.66,8.11 2.64,0.04 4.83,-3.52 4.9,-7.96 z"
           fill="#512bd4"
           id="path146" /><path
           d="m 300.51,145.4 c 0,1.13 0.43,2.16 1.11,2.96 0.77,0.84 1.69,1.31 2.67,1.3 2.37,-0.04 4.29,-2.97 4.61,-6.79 -0.82,-1.24 -2.22,-2.05 -3.81,-2.05 -2.53,0 -4.58,2.05 -4.58,4.58 z"
           fill="#8065e0"
           id="path147" /><path
           d="m 352,143 c -0.81,-1.31 -2.24,-2.19 -3.89,-2.19 -2.52,0 -4.57,2.05 -4.57,4.57 0,0.91 0.27,1.75 0.73,2.47 0.8,1.08 1.8,1.74 2.92,1.76 2.38,0.05 4.37,-2.81 4.81,-6.61 z"
           fill="#8065e0"
           id="path148" /></g><text
         xml:space="preserve"
         style="font-size:19.7556px;font-family:Arial;-inkscape-font-specification:Arial;fill:#512bd4;fill-opacity:1;stroke-width:0.264583"
         x="63.096519"
         y="20.194796"
         id="text2"><tspan
           sodipodi:role="line"
           id="tspan2"
           style="font-style:normal;font-variant:normal;font-weight:600;font-stretch:normal;font-size:19.7556px;font-family:'Open Sans';-inkscape-font-specification:'Open Sans Semi-Bold';fill:#512bd4;fill-opacity:1;stroke-width:0.264583"
           x="63.096519"
           y="20.194796">Ultimate</tspan></text><g
         id="g3"
         transform="translate(5.0827772,-80.539405)"><text
           xml:space="preserve"
           style="font-size:22.5774px;font-family:Arial;-inkscape-font-specification:Arial;fill:#512bd4;fill-opacity:1;stroke-width:0.264578"
           x="46.020496"
           y="121.77216"
           id="text3"><tspan
             sodipodi:role="line"
             id="tspan3"
             style="font-style:normal;font-variant:normal;font-weight:600;font-stretch:normal;font-size:22.5774px;font-family:'Open Sans';-inkscape-font-specification:'Open Sans Semi-Bold';fill:#512bd4;fill-opacity:1;stroke-width:0.264578"
             x="46.020496"
             y="121.77216">Cheat sheet</tspan></text><g
           style="fill:none"
           id="g2"
           transform="matrix(0.04385965,0,0,0.04385965,24.611251,103.30563)"><rect
             width="456"
             height="456"
             fill="#512bd4"
             id="rect1"
             x="0"
             y="0" /><path
             d="m 81.2738,291.333 c -3.2242,0 -5.9648,-1.074 -8.2218,-3.223 -2.257,-2.204 -3.3855,-4.821 -3.3855,-7.851 0,-3.086 1.1285,-5.73 3.3855,-7.934 2.257,-2.204 4.9976,-3.306 8.2218,-3.306 3.278,0 6.0455,1.102 8.3025,3.306 2.3107,2.204 3.4661,4.848 3.4661,7.934 0,3.03 -1.1554,5.647 -3.4661,7.851 -2.257,2.149 -5.0245,3.223 -8.3025,3.223 z"
             fill="#ffffff"
             id="path1-1" /><path
             d="m 210.167,289.515 h -20.958 l -55.215,-87.109 c -1.397,-2.204 -2.553,-4.491 -3.466,-6.86 h -0.484 c 0.43,2.535 0.645,7.962 0.645,16.281 v 77.688 h -18.54 V 171 h 22.328 l 53.362,85.043 c 2.257,3.527 3.708,5.951 4.353,7.273 h 0.322 c -0.537,-3.14 -0.806,-8.457 -0.806,-15.951 V 171 h 18.459 z"
             fill="#ffffff"
             id="path2-8" /><path
             d="M 300.449,289.515 H 235.561 V 171 h 62.309 v 16.695 h -43.124 v 33.554 h 39.739 v 16.612 h -39.739 v 35.042 h 45.703 z"
             fill="#ffffff"
             id="path3-6" /><path
             d="m 392.667,187.695 h -33.21 v 101.82 H 340.272 V 187.695 H 307.143 V 171 h 85.524 z"
             fill="#ffffff"
             id="path4-2" /></g></g></g></g></svg>
