<svg version="1.1" baseProfile="full" width="311.0" height="748.0" viewbox="0 0 311 748" xmlns="http://www.w3.org/2000/svg" xmlns:xlink="http://www.w3.org/1999/xlink" xmlns:ev="http://www.w3.org/2001/xml-events">
		<desc >#direction: right
	#spacing: 12
	[Control] &lt;:- [TabControl]
	[Control] &lt;:- [ToolBar]
	[Control] &lt;:- [TrackBar]
	[Control] &lt;:- [TreeView]
	[Control] &lt;:- [AxHost]
	[Control] &lt;:- [DataGridView]
	[Control] &lt;:- [Chart]
	[Control] &lt;:- [DateTimePicker]
	[Control] &lt;:- [GroupBox]
	[Control] &lt;:- [ElementHost]
	[Control] &lt;:- [ListView]
	[Control] &lt;:- [MdiClient]
	[Control] &lt;:- [MonthCalendar]
	[Control] &lt;:- [PictureBox]
	[Control] &lt;:- [PrintPreviewControl]
	[Control] &lt;:- [ProgressBar]
	</desc>
	<g stroke-width="1.0" text-align="left" font="12pt Helvetica, Arial, sans-serif" font-size="12pt" font-family="Helvetica" font-weight="bold" font-style="normal">
			<g font-family="Helvetica" font-size="12pt" font-weight="bold" font-style="normal" stroke-width="3.0" stroke-linejoin="round" stroke-linecap="round" stroke="#33322E">
				<g stroke="transparent" fill="transparent">
					<rect x="0.0" y="0.0" height="748.0" width="311.0" stroke="none"></rect>
				</g>
			<g transform="translate(8, 8)" fill="#33322E">
					<g transform="translate(20, 20)" fill="#eee8d5" font-family="Helvetica" font-size="12pt" font-weight="normal" font-style="normal">
						<path d="M39.1 326.0 L79 16 L120 16 L120.0 16.0 " fill="none"></path>
					<path d="M37.5 325.8 L39.1 326.0 L40.7 326.2 L38.6 330.0 Z"></path>
					<path d="M39.5 326.0 L79 60 L132.5 60 L132.5 60.0 " fill="none"></path>
					<path d="M37.9 325.8 L39.5 326.0 L41.0 326.3 L38.9 330.0 Z"></path>
					<path d="M40.0 326.1 L79 104 L127.5 104 L127.5 104.0 " fill="none"></path>
					<path d="M38.4 325.8 L40.0 326.1 L41.6 326.3 L39.3 330.0 Z"></path>
					<path d="M40.8 326.1 L79 148 L127.5 148 L127.5 148.0 " fill="none"></path>
					<path d="M39.2 325.8 L40.8 326.1 L42.3 326.4 L39.9 330.0 Z"></path>
					<path d="M42.0 326.1 L79 192 L134 192 L134.0 192.0 " fill="none"></path>
					<path d="M40.4 325.7 L42.0 326.1 L43.5 326.6 L40.9 330.0 Z"></path>
					<path d="M44.1 326.3 L79 236 L110 236 L110.0 236.0 " fill="none"></path>
					<path d="M42.6 325.7 L44.1 326.3 L45.6 326.8 L42.7 330.0 Z"></path>
					<path d="M49.0 326.6 L79 280 L141 280 L141.0 280.0 " fill="none"></path>
					<path d="M47.6 325.8 L49.0 326.6 L50.3 327.5 L46.8 330.0 Z"></path>
					<path d="M71.0 328.2 L79 324 L102 324 L102.0 324.0 " fill="none"></path>
					<path d="M70.2 326.7 L71.0 328.2 L71.7 329.6 L67.4 330.0 Z"></path>
					<path d="M71.0 363.8 L79 368 L123 368 L123.0 368.0 " fill="none"></path>
					<path d="M71.7 362.4 L71.0 363.8 L70.2 365.3 L67.4 362.0 Z"></path>
					<path d="M49.0 365.4 L79 412 L113 412 L113.0 412.0 " fill="none"></path>
					<path d="M50.3 364.5 L49.0 365.4 L47.6 366.2 L46.8 362.0 Z"></path>
					<path d="M44.1 365.7 L79 456 L129.5 456 L129.5 456.0 " fill="none"></path>
					<path d="M45.6 365.2 L44.1 365.7 L42.6 366.3 L42.7 362.0 Z"></path>
					<path d="M42.0 365.9 L79 500 L126 500 L126.0 500.0 " fill="none"></path>
					<path d="M43.5 365.4 L42.0 365.9 L40.4 366.3 L40.9 362.0 Z"></path>
					<path d="M40.8 365.9 L79 544 L104 544 L104.0 544.0 " fill="none"></path>
					<path d="M42.3 365.6 L40.8 365.9 L39.2 366.2 L39.9 362.0 Z"></path>
					<path d="M40.0 365.9 L79 588 L120 588 L120.0 588.0 " fill="none"></path>
					<path d="M41.6 365.7 L40.0 365.9 L38.4 366.2 L39.3 362.0 Z"></path>
					<path d="M39.5 366.0 L79 632 L85 632 L85.0 632.0 " fill="none"></path>
					<path d="M41.0 365.7 L39.5 366.0 L37.9 366.2 L38.9 362.0 Z"></path>
					<path d="M39.1 366.0 L79 676 L114 676 L114.0 676.0 " fill="none"></path>
					<path d="M40.7 365.8 L39.1 366.0 L37.5 366.2 L38.6 362.0 Z"></path>
					<g data-name="Control">
							<g fill="#eee8d5" stroke="#33322E" data-name="Control">
								<rect x="0.0" y="330.0" height="32.0" width="73.0" data-name="Control"></rect>
							</g>
						<g transform="translate(0, 330)" font-family="Helvetica" font-size="12pt" font-weight="bold" font-style="normal" data-name="Control">
								<g transform="translate(8, 8)" fill="#33322E" text-align="center" data-name="Control">
									<text x="28.5" y="14.1" stroke="none" text-anchor="middle" data-name="Control">Control</text>
								
								</g>
							</g>
						</g>
					<g data-name="TabControl">
							<g fill="#eee8d5" stroke="#33322E" data-name="TabControl">
								<rect x="120.0" y="0.0" height="32.0" width="100.0" data-name="TabControl"></rect>
							</g>
						<g transform="translate(120, 0)" font-family="Helvetica" font-size="12pt" font-weight="bold" font-style="normal" data-name="TabControl">
								<g transform="translate(8, 8)" fill="#33322E" text-align="center" data-name="TabControl">
									<text x="42.0" y="14.1" stroke="none" text-anchor="middle" data-name="TabControl">TabControl</text>
								
								</g>
							</g>
						</g>
					<g data-name="ToolBar">
							<g fill="#eee8d5" stroke="#33322E" data-name="ToolBar">
								<rect x="132.5" y="44.0" height="32.0" width="75.0" data-name="ToolBar"></rect>
							</g>
						<g transform="translate(132.5, 44)" font-family="Helvetica" font-size="12pt" font-weight="bold" font-style="normal" data-name="ToolBar">
								<g transform="translate(8, 8)" fill="#33322E" text-align="center" data-name="ToolBar">
									<text x="29.5" y="14.1" stroke="none" text-anchor="middle" data-name="ToolBar">ToolBar</text>
								
								</g>
							</g>
						</g>
					<g data-name="TrackBar">
							<g fill="#eee8d5" stroke="#33322E" data-name="TrackBar">
								<rect x="127.5" y="88.0" height="32.0" width="85.0" data-name="TrackBar"></rect>
							</g>
						<g transform="translate(127.5, 88)" font-family="Helvetica" font-size="12pt" font-weight="bold" font-style="normal" data-name="TrackBar">
								<g transform="translate(8, 8)" fill="#33322E" text-align="center" data-name="TrackBar">
									<text x="34.5" y="14.1" stroke="none" text-anchor="middle" data-name="TrackBar">TrackBar</text>
								
								</g>
							</g>
						</g>
					<g data-name="TreeView">
							<g fill="#eee8d5" stroke="#33322E" data-name="TreeView">
								<rect x="127.5" y="132.0" height="32.0" width="85.0" data-name="TreeView"></rect>
							</g>
						<g transform="translate(127.5, 132)" font-family="Helvetica" font-size="12pt" font-weight="bold" font-style="normal" data-name="TreeView">
								<g transform="translate(8, 8)" fill="#33322E" text-align="center" data-name="TreeView">
									<text x="34.5" y="14.1" stroke="none" text-anchor="middle" data-name="TreeView">TreeView</text>
								
								</g>
							</g>
						</g>
					<g data-name="AxHost">
							<g fill="#eee8d5" stroke="#33322E" data-name="AxHost">
								<rect x="134.0" y="176.0" height="32.0" width="72.0" data-name="AxHost"></rect>
							</g>
						<g transform="translate(134, 176)" font-family="Helvetica" font-size="12pt" font-weight="bold" font-style="normal" data-name="AxHost">
								<g transform="translate(8, 8)" fill="#33322E" text-align="center" data-name="AxHost">
									<text x="28.0" y="14.1" stroke="none" text-anchor="middle" data-name="AxHost">AxHost</text>
								
								</g>
							</g>
						</g>
					<g data-name="DataGridView">
							<g fill="#eee8d5" stroke="#33322E" data-name="DataGridView">
								<rect x="110.0" y="220.0" height="32.0" width="120.0" data-name="DataGridView"></rect>
							</g>
						<g transform="translate(110, 220)" font-family="Helvetica" font-size="12pt" font-weight="bold" font-style="normal" data-name="DataGridView">
								<g transform="translate(8, 8)" fill="#33322E" text-align="center" data-name="DataGridView">
									<text x="52.0" y="14.1" stroke="none" text-anchor="middle" data-name="DataGridView">DataGridView</text>
								
								</g>
							</g>
						</g>
					<g data-name="Chart">
							<g fill="#eee8d5" stroke="#33322E" data-name="Chart">
								<rect x="141.0" y="264.0" height="32.0" width="58.0" data-name="Chart"></rect>
							</g>
						<g transform="translate(141, 264)" font-family="Helvetica" font-size="12pt" font-weight="bold" font-style="normal" data-name="Chart">
								<g transform="translate(8, 8)" fill="#33322E" text-align="center" data-name="Chart">
									<text x="21.0" y="14.1" stroke="none" text-anchor="middle" data-name="Chart">Chart</text>
								
								</g>
							</g>
						</g>
					<g data-name="DateTimePicker">
							<g fill="#eee8d5" stroke="#33322E" data-name="DateTimePicker">
								<rect x="102.0" y="308.0" height="32.0" width="136.0" data-name="DateTimePicker"></rect>
							</g>
						<g transform="translate(102, 308)" font-family="Helvetica" font-size="12pt" font-weight="bold" font-style="normal" data-name="DateTimePicker">
								<g transform="translate(8, 8)" fill="#33322E" text-align="center" data-name="DateTimePicker">
									<text x="60.0" y="14.1" stroke="none" text-anchor="middle" data-name="DateTimePicker">DateTimePicker</text>
								
								</g>
							</g>
						</g>
					<g data-name="GroupBox">
							<g fill="#eee8d5" stroke="#33322E" data-name="GroupBox">
								<rect x="123.0" y="352.0" height="32.0" width="94.0" data-name="GroupBox"></rect>
							</g>
						<g transform="translate(123, 352)" font-family="Helvetica" font-size="12pt" font-weight="bold" font-style="normal" data-name="GroupBox">
								<g transform="translate(8, 8)" fill="#33322E" text-align="center" data-name="GroupBox">
									<text x="39.0" y="14.1" stroke="none" text-anchor="middle" data-name="GroupBox">GroupBox</text>
								
								</g>
							</g>
						</g>
					<g data-name="ElementHost">
							<g fill="#eee8d5" stroke="#33322E" data-name="ElementHost">
								<rect x="113.0" y="396.0" height="32.0" width="114.0" data-name="ElementHost"></rect>
							</g>
						<g transform="translate(113, 396)" font-family="Helvetica" font-size="12pt" font-weight="bold" font-style="normal" data-name="ElementHost">
								<g transform="translate(8, 8)" fill="#33322E" text-align="center" data-name="ElementHost">
									<text x="49.0" y="14.1" stroke="none" text-anchor="middle" data-name="ElementHost">ElementHost</text>
								
								</g>
							</g>
						</g>
					<g data-name="ListView">
							<g fill="#eee8d5" stroke="#33322E" data-name="ListView">
								<rect x="129.5" y="440.0" height="32.0" width="81.0" data-name="ListView"></rect>
							</g>
						<g transform="translate(129.5, 440)" font-family="Helvetica" font-size="12pt" font-weight="bold" font-style="normal" data-name="ListView">
								<g transform="translate(8, 8)" fill="#33322E" text-align="center" data-name="ListView">
									<text x="32.5" y="14.1" stroke="none" text-anchor="middle" data-name="ListView">ListView</text>
								
								</g>
							</g>
						</g>
					<g data-name="MdiClient">
							<g fill="#eee8d5" stroke="#33322E" data-name="MdiClient">
								<rect x="126.0" y="484.0" height="32.0" width="88.0" data-name="MdiClient"></rect>
							</g>
						<g transform="translate(126, 484)" font-family="Helvetica" font-size="12pt" font-weight="bold" font-style="normal" data-name="MdiClient">
								<g transform="translate(8, 8)" fill="#33322E" text-align="center" data-name="MdiClient">
									<text x="36.0" y="14.1" stroke="none" text-anchor="middle" data-name="MdiClient">MdiClient</text>
								
								</g>
							</g>
						</g>
					<g data-name="MonthCalendar">
							<g fill="#eee8d5" stroke="#33322E" data-name="MonthCalendar">
								<rect x="104.0" y="528.0" height="32.0" width="132.0" data-name="MonthCalendar"></rect>
							</g>
						<g transform="translate(104, 528)" font-family="Helvetica" font-size="12pt" font-weight="bold" font-style="normal" data-name="MonthCalendar">
								<g transform="translate(8, 8)" fill="#33322E" text-align="center" data-name="MonthCalendar">
									<text x="58.0" y="14.1" stroke="none" text-anchor="middle" data-name="MonthCalendar">MonthCalendar</text>
								
								</g>
							</g>
						</g>
					<g data-name="PictureBox">
							<g fill="#eee8d5" stroke="#33322E" data-name="PictureBox">
								<rect x="120.0" y="572.0" height="32.0" width="100.0" data-name="PictureBox"></rect>
							</g>
						<g transform="translate(120, 572)" font-family="Helvetica" font-size="12pt" font-weight="bold" font-style="normal" data-name="PictureBox">
								<g transform="translate(8, 8)" fill="#33322E" text-align="center" data-name="PictureBox">
									<text x="42.0" y="14.1" stroke="none" text-anchor="middle" data-name="PictureBox">PictureBox</text>
								
								</g>
							</g>
						</g>
					<g data-name="PrintPreviewControl">
							<g fill="#eee8d5" stroke="#33322E" data-name="PrintPreviewControl">
								<rect x="85.0" y="616.0" height="32.0" width="170.0" data-name="PrintPreviewControl"></rect>
							</g>
						<g transform="translate(85, 616)" font-family="Helvetica" font-size="12pt" font-weight="bold" font-style="normal" data-name="PrintPreviewControl">
								<g transform="translate(8, 8)" fill="#33322E" text-align="center" data-name="PrintPreviewControl">
									<text x="77.0" y="14.1" stroke="none" text-anchor="middle" data-name="PrintPreviewControl">PrintPreviewControl</text>
								
								</g>
							</g>
						</g>
					<g data-name="ProgressBar">
							<g fill="#eee8d5" stroke="#33322E" data-name="ProgressBar">
								<rect x="114.0" y="660.0" height="32.0" width="112.0" data-name="ProgressBar"></rect>
							</g>
						<g transform="translate(114, 660)" font-family="Helvetica" font-size="12pt" font-weight="bold" font-style="normal" data-name="ProgressBar">
								<g transform="translate(8, 8)" fill="#33322E" text-align="center" data-name="ProgressBar">
									<text x="48.0" y="14.1" stroke="none" text-anchor="middle" data-name="ProgressBar">ProgressBar</text>
								
								</g>
							</g>
						</g>
					</g>
				</g>
			</g>
		</g>
	</svg>