<svg version="1.1" baseProfile="full" width="734.5" height="304.0" viewbox="0 0 734.5 304" xmlns="http://www.w3.org/2000/svg" xmlns:xlink="http://www.w3.org/1999/xlink" xmlns:ev="http://www.w3.org/2001/xml-events">
		<desc >#.box: fill=#C06EF0
	
	[&lt;box&gt;DispatcherObject] &lt;:- [FrameworkTemplate]
	[FrameworkTemplate] &lt;:- [ControlTemplate]
	[FrameworkTemplate] &lt;:- [ItemsPanelTemplate]
	[FrameworkTemplate] &lt;:- [DataTemplate]
	
	[DataTemplate] &lt;:- [ItemContainerTemplate]
	[DataTemplate] &lt;:- [HierarchicalDataTemplate]
	
	
	</desc>
	<g stroke-width="1.0" text-align="left" font="12pt Helvetica, Arial, sans-serif" font-size="12pt" font-family="Helvetica" font-weight="bold" font-style="normal">
			<g font-family="Helvetica" font-size="12pt" font-weight="bold" font-style="normal" stroke-width="3.0" stroke-linejoin="round" stroke-linecap="round" stroke="#33322E">
				<g stroke="transparent" fill="transparent">
					<rect x="0.0" y="0.0" height="304.0" width="734.5" stroke="none"></rect>
				</g>
			<g transform="translate(8, 8)" fill="#33322E">
					<g transform="translate(20, 20)" fill="#eee8d5" font-family="Helvetica" font-size="12pt" font-weight="normal" font-style="normal">
						<path d="M267.0 45.3 L267 52 L267 72 L267.0 72.0 " fill="none"></path>
					<path d="M272.3 45.3 L267.0 45.3 L261.7 45.3 L267.0 32.0 Z"></path>
					<path d="M168.9 106.0 L71 124 L71 144 L71.0 144.0 " fill="none"></path>
					<path d="M169.8 111.3 L168.9 106.0 L167.9 100.8 L182.0 103.6 Z"></path>
					<path d="M267.0 117.3 L267 124 L267 144 L267.0 144.0 " fill="none"></path>
					<path d="M272.3 117.3 L267.0 117.3 L261.7 117.3 L267.0 104.0 Z"></path>
					<path d="M362.3 106.5 L452 124 L452 144 L452.0 144.0 " fill="none"></path>
					<path d="M363.3 101.3 L362.3 106.5 L361.3 111.8 L349.2 104.0 Z"></path>
					<path d="M385.4 179.8 L331 196 L331 216 L331.0 216.0 " fill="none"></path>
					<path d="M387.0 184.9 L385.4 179.8 L383.9 174.7 L398.2 176.0 Z"></path>
					<path d="M518.6 179.8 L573 196 L573 216 L573.0 216.0 " fill="none"></path>
					<path d="M520.1 174.7 L518.6 179.8 L517.0 184.9 L505.8 176.0 Z"></path>
					<g data-name="DispatcherObject">
							<g fill="#C06EF0" stroke="#33322E" data-name="DispatcherObject">
								<rect x="193.0" y="0.0" height="32.0" width="148.0" data-name="DispatcherObject"></rect>
							</g>
						<g transform="translate(193, 0)" font-family="Helvetica" font-size="12pt" font-weight="normal" font-style="normal" data-name="DispatcherObject">
								<g transform="translate(8, 8)" fill="#33322E" text-align="center" data-name="DispatcherObject">
									<text x="66.0" y="14.1" stroke="none" text-anchor="middle" data-name="DispatcherObject">DispatcherObject</text>
								
								</g>
							</g>
						</g>
					<g data-name="FrameworkTemplate">
							<g fill="#eee8d5" stroke="#33322E" data-name="FrameworkTemplate">
								<rect x="182.0" y="72.0" height="32.0" width="170.0" data-name="FrameworkTemplate"></rect>
							</g>
						<g transform="translate(182, 72)" font-family="Helvetica" font-size="12pt" font-weight="bold" font-style="normal" data-name="FrameworkTemplate">
								<g transform="translate(8, 8)" fill="#33322E" text-align="center" data-name="FrameworkTemplate">
									<text x="77.0" y="14.1" stroke="none" text-anchor="middle" data-name="FrameworkTemplate">FrameworkTemplate</text>
								
								</g>
							</g>
						</g>
					<g data-name="ControlTemplate">
							<g fill="#eee8d5" stroke="#33322E" data-name="ControlTemplate">
								<rect x="0.0" y="144.0" height="32.0" width="142.0" data-name="ControlTemplate"></rect>
							</g>
						<g transform="translate(0, 144)" font-family="Helvetica" font-size="12pt" font-weight="bold" font-style="normal" data-name="ControlTemplate">
								<g transform="translate(8, 8)" fill="#33322E" text-align="center" data-name="ControlTemplate">
									<text x="63.0" y="14.1" stroke="none" text-anchor="middle" data-name="ControlTemplate">ControlTemplate</text>
								
								</g>
							</g>
						</g>
					<g data-name="ItemsPanelTemplate">
							<g fill="#eee8d5" stroke="#33322E" data-name="ItemsPanelTemplate">
								<rect x="182.0" y="144.0" height="32.0" width="170.0" data-name="ItemsPanelTemplate"></rect>
							</g>
						<g transform="translate(182, 144)" font-family="Helvetica" font-size="12pt" font-weight="bold" font-style="normal" data-name="ItemsPanelTemplate">
								<g transform="translate(8, 8)" fill="#33322E" text-align="center" data-name="ItemsPanelTemplate">
									<text x="77.0" y="14.1" stroke="none" text-anchor="middle" data-name="ItemsPanelTemplate">ItemsPanelTemplate</text>
								
								</g>
							</g>
						</g>
					<g data-name="DataTemplate">
							<g fill="#eee8d5" stroke="#33322E" data-name="DataTemplate">
								<rect x="392.0" y="144.0" height="32.0" width="120.0" data-name="DataTemplate"></rect>
							</g>
						<g transform="translate(392, 144)" font-family="Helvetica" font-size="12pt" font-weight="bold" font-style="normal" data-name="DataTemplate">
								<g transform="translate(8, 8)" fill="#33322E" text-align="center" data-name="DataTemplate">
									<text x="52.0" y="14.1" stroke="none" text-anchor="middle" data-name="DataTemplate">DataTemplate</text>
								
								</g>
							</g>
						</g>
					<g data-name="ItemContainerTemplate">
							<g fill="#eee8d5" stroke="#33322E" data-name="ItemContainerTemplate">
								<rect x="234.5" y="216.0" height="32.0" width="193.0" data-name="ItemContainerTemplate"></rect>
							</g>
						<g transform="translate(234.5, 216)" font-family="Helvetica" font-size="12pt" font-weight="bold" font-style="normal" data-name="ItemContainerTemplate">
								<g transform="translate(8, 8)" fill="#33322E" text-align="center" data-name="ItemContainerTemplate">
									<text x="88.5" y="14.1" stroke="none" text-anchor="middle" data-name="ItemContainerTemplate">ItemContainerTemplate</text>
								
								</g>
							</g>
						</g>
					<g data-name="HierarchicalDataTemplate">
							<g fill="#eee8d5" stroke="#33322E" data-name="HierarchicalDataTemplate">
								<rect x="467.5" y="216.0" height="32.0" width="211.0" data-name="HierarchicalDataTemplate"></rect>
							</g>
						<g transform="translate(467.5, 216)" font-family="Helvetica" font-size="12pt" font-weight="bold" font-style="normal" data-name="HierarchicalDataTemplate">
								<g transform="translate(8, 8)" fill="#33322E" text-align="center" data-name="HierarchicalDataTemplate">
									<text x="97.5" y="14.1" stroke="none" text-anchor="middle" data-name="HierarchicalDataTemplate">HierarchicalDataTemplate</text>
								
								</g>
							</g>
						</g>
					</g>
				</g>
			</g>
		</g>
	</svg>