<svg version="1.1" baseProfile="full" width="1175.0" height="330.0" viewbox="0 0 1175 330" xmlns="http://www.w3.org/2000/svg" xmlns:xlink="http://www.w3.org/1999/xlink" xmlns:ev="http://www.w3.org/2001/xml-events">
		<title >wpf-core-objects</title>
	<desc >#spacing: 12
	#direction: right
	#title: wpf-core-objects
	
	[Object ] &lt;:- [DispatcherObject] &lt;:- [DependencyObject] &lt;:- [Visual] &lt;:- [UIElement] &lt;:- [FrameworkElement]
	[DependencyObject] &lt;:- [Freezable] &lt;- [Animatable]
	
	[Visual] &lt;:- [Viewport3DVisual]
	[Visual] &lt;:- [Visual3D]
	
	[Visual3D] &lt;:- [ModelVisual3D]
	[Visual3D] &lt;:- [Viewport2DVisual3D]
	[Visual3D] &lt;:- [UIElement3D] &lt;:- [ContainerUIElement3D]
	
	[Object] &lt;:- [PrintDialog]
	[Object] &lt;:- [CommonDialog] &lt;:- [CommonItemDialog] &lt;:- [FileDialog] &lt;:- [SaveFileDialog]
	[FileDialog] &lt;:- [OpenFileDialog]
	[CommonItemDialog] &lt;:- [OpenFolderDialog]</desc>
	<g stroke-width="1.0" text-align="left" font="12pt Helvetica, Arial, sans-serif" font-size="12pt" font-family="Helvetica" font-weight="bold" font-style="normal">
			<g font-family="Helvetica" font-size="12pt" font-weight="bold" font-style="normal" stroke-width="3.0" stroke-linejoin="round" stroke-linecap="round" stroke="#33322E">
				<g stroke="transparent" fill="transparent">
					<rect x="0.0" y="0.0" height="330.0" width="1175.0" stroke="none"></rect>
				</g>
			<g transform="translate(8, 8)" fill="#33322E">
					<g transform="translate(20, 20)" fill="#eee8d5" font-family="Helvetica" font-size="12pt" font-weight="normal" font-style="normal">
						<path d="M44.5 150.6 L72 104 L78 104 L78.0 104.0 " fill="none"></path>
					<path d="M43.1 149.7 L44.5 150.6 L45.9 151.4 L42.5 154.0 Z"></path>
					<path d="M230.0 104.0 L232 104 L241 104 L241.0 104.0 " fill="none"></path>
					<path d="M230.0 102.4 L230.0 104.0 L230.0 105.6 L226.0 104.0 Z"></path>
					<path d="M357.6 86.2 L411 60 L463 60 L463.0 60.0 " fill="none"></path>
					<path d="M356.9 84.8 L357.6 86.2 L358.3 87.7 L354.0 88.0 Z"></path>
					<path d="M528.4 42.1 L578 16 L612.5 16 L612.5 16.0 " fill="none"></path>
					<path d="M527.7 40.7 L528.4 42.1 L529.1 43.6 L524.9 44.0 Z"></path>
					<path d="M710.5 16.0 L741 16 L750.5 16 L750.5 16.0 " fill="none"></path>
					<path d="M710.5 14.4 L710.5 16.0 L710.5 17.6 L706.5 16.0 Z"></path>
					<path d="M357.6 121.8 L411 148 L449.5 148 L449.5 148.0 " fill="none"></path>
					<path d="M358.3 120.3 L357.6 121.8 L356.9 123.2 L354.0 120.0 Z"></path>
					<path d="M541.5 148.0 L578 148 L608.5 148 L608.5 148.0 " fill="none"></path>
					<path d="M543.5 146.4 L541.5 148.0 L543.5 149.6 L539.5 148.0 Z"></path>
					<path d="M530.0 60.0 L578 60 L584 60 L584.0 60.0 " fill="none"></path>
					<path d="M530.0 58.4 L530.0 60.0 L530.0 61.6 L526.0 60.0 Z"></path>
					<path d="M528.4 77.9 L578 104 L618 104 L618.0 104.0 " fill="none"></path>
					<path d="M529.1 76.4 L528.4 77.9 L527.7 79.3 L524.9 76.0 Z"></path>
					<path d="M692.7 86.1 L741 60 L767.5 60 L767.5 60.0 " fill="none"></path>
					<path d="M691.9 84.7 L692.7 86.1 L693.4 87.5 L689.1 88.0 Z"></path>
					<path d="M705.0 104.0 L741 104 L747 104 L747.0 104.0 " fill="none"></path>
					<path d="M705.0 102.4 L705.0 104.0 L705.0 105.6 L701.0 104.0 Z"></path>
					<path d="M692.7 121.9 L741 148 L775 148 L775.0 148.0 " fill="none"></path>
					<path d="M693.4 120.5 L692.7 121.9 L691.9 123.3 L689.1 120.0 Z"></path>
					<path d="M894.0 148.0 L924 148 L930 148 L930.0 148.0 " fill="none"></path>
					<path d="M894.0 146.4 L894.0 148.0 L894.0 149.6 L890.0 148.0 Z"></path>
					<path d="M70.0 170.0 L72 170 L101.5 170 L101.5 170.0 " fill="none"></path>
					<path d="M70.0 168.4 L70.0 170.0 L70.0 171.6 L66.0 170.0 Z"></path>
					<path d="M44.5 189.4 L72 236 L85 236 L85.0 236.0 " fill="none"></path>
					<path d="M45.9 188.6 L44.5 189.4 L43.1 190.3 L42.5 186.0 Z"></path>
					<path d="M223.0 236.0 L232 236 L238 236 L238.0 236.0 " fill="none"></path>
					<path d="M223.0 234.4 L223.0 236.0 L223.0 237.6 L219.0 236.0 Z"></path>
					<path d="M390.5 219.0 L411 214 L448.5 214 L448.5 214.0 " fill="none"></path>
					<path d="M390.1 217.5 L390.5 219.0 L390.9 220.6 L386.6 220.0 Z"></path>
					<path d="M544.4 200.9 L578 192 L594.5 192 L594.5 192.0 " fill="none"></path>
					<path d="M544.0 199.3 L544.4 200.9 L544.8 202.4 L540.5 201.9 Z"></path>
					<path d="M544.4 227.1 L578 236 L593 236 L593.0 236.0 " fill="none"></path>
					<path d="M544.8 225.6 L544.4 227.1 L544.0 228.7 L540.5 226.1 Z"></path>
					<path d="M390.5 253.0 L411 258 L417 258 L417.0 258.0 " fill="none"></path>
					<path d="M390.9 251.4 L390.5 253.0 L390.1 254.5 L386.6 252.0 Z"></path>
					<g data-name="Object">
							<g fill="#eee8d5" stroke="#33322E" data-name="Object">
								<rect x="0.0" y="154.0" height="32.0" width="66.0" data-name="Object"></rect>
							</g>
						<g transform="translate(0, 154)" font-family="Helvetica" font-size="12pt" font-weight="bold" font-style="normal" data-name="Object">
								<g transform="translate(8, 8)" fill="#33322E" text-align="center" data-name="Object">
									<text x="25.0" y="14.1" stroke="none" text-anchor="middle" data-name="Object">Object</text>
								
								</g>
							</g>
						</g>
					<g data-name="DispatcherObject">
							<g fill="#eee8d5" stroke="#33322E" data-name="DispatcherObject">
								<rect x="78.0" y="88.0" height="32.0" width="148.0" data-name="DispatcherObject"></rect>
							</g>
						<g transform="translate(78, 88)" font-family="Helvetica" font-size="12pt" font-weight="bold" font-style="normal" data-name="DispatcherObject">
								<g transform="translate(8, 8)" fill="#33322E" text-align="center" data-name="DispatcherObject">
									<text x="66.0" y="14.1" stroke="none" text-anchor="middle" data-name="DispatcherObject">DispatcherObject</text>
								
								</g>
							</g>
						</g>
					<g data-name="DependencyObject">
							<g fill="#eee8d5" stroke="#33322E" data-name="DependencyObject">
								<rect x="241.0" y="88.0" height="32.0" width="161.0" data-name="DependencyObject"></rect>
							</g>
						<g transform="translate(241, 88)" font-family="Helvetica" font-size="12pt" font-weight="bold" font-style="normal" data-name="DependencyObject">
								<g transform="translate(8, 8)" fill="#33322E" text-align="center" data-name="DependencyObject">
									<text x="72.5" y="14.1" stroke="none" text-anchor="middle" data-name="DependencyObject">DependencyObject</text>
								
								</g>
							</g>
						</g>
					<g data-name="Visual">
							<g fill="#eee8d5" stroke="#33322E" data-name="Visual">
								<rect x="463.0" y="44.0" height="32.0" width="63.0" data-name="Visual"></rect>
							</g>
						<g transform="translate(463, 44)" font-family="Helvetica" font-size="12pt" font-weight="bold" font-style="normal" data-name="Visual">
								<g transform="translate(8, 8)" fill="#33322E" text-align="center" data-name="Visual">
									<text x="23.5" y="14.1" stroke="none" text-anchor="middle" data-name="Visual">Visual</text>
								
								</g>
							</g>
						</g>
					<g data-name="UIElement">
							<g fill="#eee8d5" stroke="#33322E" data-name="UIElement">
								<rect x="612.5" y="0.0" height="32.0" width="94.0" data-name="UIElement"></rect>
							</g>
						<g transform="translate(612.5, 0)" font-family="Helvetica" font-size="12pt" font-weight="bold" font-style="normal" data-name="UIElement">
								<g transform="translate(8, 8)" fill="#33322E" text-align="center" data-name="UIElement">
									<text x="39.0" y="14.1" stroke="none" text-anchor="middle" data-name="UIElement">UIElement</text>
								
								</g>
							</g>
						</g>
					<g data-name="FrameworkElement">
							<g fill="#eee8d5" stroke="#33322E" data-name="FrameworkElement">
								<rect x="750.5" y="0.0" height="32.0" width="164.0" data-name="FrameworkElement"></rect>
							</g>
						<g transform="translate(750.5, 0)" font-family="Helvetica" font-size="12pt" font-weight="bold" font-style="normal" data-name="FrameworkElement">
								<g transform="translate(8, 8)" fill="#33322E" text-align="center" data-name="FrameworkElement">
									<text x="74.0" y="14.1" stroke="none" text-anchor="middle" data-name="FrameworkElement">FrameworkElement</text>
								
								</g>
							</g>
						</g>
					<g data-name="Freezable">
							<g fill="#eee8d5" stroke="#33322E" data-name="Freezable">
								<rect x="449.5" y="132.0" height="32.0" width="90.0" data-name="Freezable"></rect>
							</g>
						<g transform="translate(449.5, 132)" font-family="Helvetica" font-size="12pt" font-weight="bold" font-style="normal" data-name="Freezable">
								<g transform="translate(8, 8)" fill="#33322E" text-align="center" data-name="Freezable">
									<text x="37.0" y="14.1" stroke="none" text-anchor="middle" data-name="Freezable">Freezable</text>
								
								</g>
							</g>
						</g>
					<g data-name="Animatable">
							<g fill="#eee8d5" stroke="#33322E" data-name="Animatable">
								<rect x="608.5" y="132.0" height="32.0" width="102.0" data-name="Animatable"></rect>
							</g>
						<g transform="translate(608.5, 132)" font-family="Helvetica" font-size="12pt" font-weight="bold" font-style="normal" data-name="Animatable">
								<g transform="translate(8, 8)" fill="#33322E" text-align="center" data-name="Animatable">
									<text x="43.0" y="14.1" stroke="none" text-anchor="middle" data-name="Animatable">Animatable</text>
								
								</g>
							</g>
						</g>
					<g data-name="Viewport3DVisual">
							<g fill="#eee8d5" stroke="#33322E" data-name="Viewport3DVisual">
								<rect x="584.0" y="44.0" height="32.0" width="151.0" data-name="Viewport3DVisual"></rect>
							</g>
						<g transform="translate(584, 44)" font-family="Helvetica" font-size="12pt" font-weight="bold" font-style="normal" data-name="Viewport3DVisual">
								<g transform="translate(8, 8)" fill="#33322E" text-align="center" data-name="Viewport3DVisual">
									<text x="67.5" y="14.1" stroke="none" text-anchor="middle" data-name="Viewport3DVisual">Viewport3DVisual</text>
								
								</g>
							</g>
						</g>
					<g data-name="Visual3D">
							<g fill="#eee8d5" stroke="#33322E" data-name="Visual3D">
								<rect x="618.0" y="88.0" height="32.0" width="83.0" data-name="Visual3D"></rect>
							</g>
						<g transform="translate(618, 88)" font-family="Helvetica" font-size="12pt" font-weight="bold" font-style="normal" data-name="Visual3D">
								<g transform="translate(8, 8)" fill="#33322E" text-align="center" data-name="Visual3D">
									<text x="33.5" y="14.1" stroke="none" text-anchor="middle" data-name="Visual3D">Visual3D</text>
								
								</g>
							</g>
						</g>
					<g data-name="ModelVisual3D">
							<g fill="#eee8d5" stroke="#33322E" data-name="ModelVisual3D">
								<rect x="767.5" y="44.0" height="32.0" width="130.0" data-name="ModelVisual3D"></rect>
							</g>
						<g transform="translate(767.5, 44)" font-family="Helvetica" font-size="12pt" font-weight="bold" font-style="normal" data-name="ModelVisual3D">
								<g transform="translate(8, 8)" fill="#33322E" text-align="center" data-name="ModelVisual3D">
									<text x="57.0" y="14.1" stroke="none" text-anchor="middle" data-name="ModelVisual3D">ModelVisual3D</text>
								
								</g>
							</g>
						</g>
					<g data-name="Viewport2DVisual3D">
							<g fill="#eee8d5" stroke="#33322E" data-name="Viewport2DVisual3D">
								<rect x="747.0" y="88.0" height="32.0" width="171.0" data-name="Viewport2DVisual3D"></rect>
							</g>
						<g transform="translate(747, 88)" font-family="Helvetica" font-size="12pt" font-weight="bold" font-style="normal" data-name="Viewport2DVisual3D">
								<g transform="translate(8, 8)" fill="#33322E" text-align="center" data-name="Viewport2DVisual3D">
									<text x="77.5" y="14.1" stroke="none" text-anchor="middle" data-name="Viewport2DVisual3D">Viewport2DVisual3D</text>
								
								</g>
							</g>
						</g>
					<g data-name="UIElement3D">
							<g fill="#eee8d5" stroke="#33322E" data-name="UIElement3D">
								<rect x="775.0" y="132.0" height="32.0" width="115.0" data-name="UIElement3D"></rect>
							</g>
						<g transform="translate(775, 132)" font-family="Helvetica" font-size="12pt" font-weight="bold" font-style="normal" data-name="UIElement3D">
								<g transform="translate(8, 8)" fill="#33322E" text-align="center" data-name="UIElement3D">
									<text x="49.5" y="14.1" stroke="none" text-anchor="middle" data-name="UIElement3D">UIElement3D</text>
								
								</g>
							</g>
						</g>
					<g data-name="ContainerUIElement3D">
							<g fill="#eee8d5" stroke="#33322E" data-name="ContainerUIElement3D">
								<rect x="930.0" y="132.0" height="32.0" width="189.0" data-name="ContainerUIElement3D"></rect>
							</g>
						<g transform="translate(930, 132)" font-family="Helvetica" font-size="12pt" font-weight="bold" font-style="normal" data-name="ContainerUIElement3D">
								<g transform="translate(8, 8)" fill="#33322E" text-align="center" data-name="ContainerUIElement3D">
									<text x="86.5" y="14.1" stroke="none" text-anchor="middle" data-name="ContainerUIElement3D">ContainerUIElement3D</text>
								
								</g>
							</g>
						</g>
					<g data-name="PrintDialog">
							<g fill="#eee8d5" stroke="#33322E" data-name="PrintDialog">
								<rect x="101.5" y="154.0" height="32.0" width="101.0" data-name="PrintDialog"></rect>
							</g>
						<g transform="translate(101.5, 154)" font-family="Helvetica" font-size="12pt" font-weight="bold" font-style="normal" data-name="PrintDialog">
								<g transform="translate(8, 8)" fill="#33322E" text-align="center" data-name="PrintDialog">
									<text x="42.5" y="14.1" stroke="none" text-anchor="middle" data-name="PrintDialog">PrintDialog</text>
								
								</g>
							</g>
						</g>
					<g data-name="CommonDialog">
							<g fill="#eee8d5" stroke="#33322E" data-name="CommonDialog">
								<rect x="85.0" y="220.0" height="32.0" width="134.0" data-name="CommonDialog"></rect>
							</g>
						<g transform="translate(85, 220)" font-family="Helvetica" font-size="12pt" font-weight="bold" font-style="normal" data-name="CommonDialog">
								<g transform="translate(8, 8)" fill="#33322E" text-align="center" data-name="CommonDialog">
									<text x="59.0" y="14.1" stroke="none" text-anchor="middle" data-name="CommonDialog">CommonDialog</text>
								
								</g>
							</g>
						</g>
					<g data-name="CommonItemDialog">
							<g fill="#eee8d5" stroke="#33322E" data-name="CommonItemDialog">
								<rect x="238.0" y="220.0" height="32.0" width="167.0" data-name="CommonItemDialog"></rect>
							</g>
						<g transform="translate(238, 220)" font-family="Helvetica" font-size="12pt" font-weight="bold" font-style="normal" data-name="CommonItemDialog">
								<g transform="translate(8, 8)" fill="#33322E" text-align="center" data-name="CommonItemDialog">
									<text x="75.5" y="14.1" stroke="none" text-anchor="middle" data-name="CommonItemDialog">CommonItemDialog</text>
								
								</g>
							</g>
						</g>
					<g data-name="FileDialog">
							<g fill="#eee8d5" stroke="#33322E" data-name="FileDialog">
								<rect x="448.5" y="198.0" height="32.0" width="92.0" data-name="FileDialog"></rect>
							</g>
						<g transform="translate(448.5, 198)" font-family="Helvetica" font-size="12pt" font-weight="bold" font-style="normal" data-name="FileDialog">
								<g transform="translate(8, 8)" fill="#33322E" text-align="center" data-name="FileDialog">
									<text x="38.0" y="14.1" stroke="none" text-anchor="middle" data-name="FileDialog">FileDialog</text>
								
								</g>
							</g>
						</g>
					<g data-name="SaveFileDialog">
							<g fill="#eee8d5" stroke="#33322E" data-name="SaveFileDialog">
								<rect x="594.5" y="176.0" height="32.0" width="130.0" data-name="SaveFileDialog"></rect>
							</g>
						<g transform="translate(594.5, 176)" font-family="Helvetica" font-size="12pt" font-weight="bold" font-style="normal" data-name="SaveFileDialog">
								<g transform="translate(8, 8)" fill="#33322E" text-align="center" data-name="SaveFileDialog">
									<text x="57.0" y="14.1" stroke="none" text-anchor="middle" data-name="SaveFileDialog">SaveFileDialog</text>
								
								</g>
							</g>
						</g>
					<g data-name="OpenFileDialog">
							<g fill="#eee8d5" stroke="#33322E" data-name="OpenFileDialog">
								<rect x="593.0" y="220.0" height="32.0" width="133.0" data-name="OpenFileDialog"></rect>
							</g>
						<g transform="translate(593, 220)" font-family="Helvetica" font-size="12pt" font-weight="bold" font-style="normal" data-name="OpenFileDialog">
								<g transform="translate(8, 8)" fill="#33322E" text-align="center" data-name="OpenFileDialog">
									<text x="58.5" y="14.1" stroke="none" text-anchor="middle" data-name="OpenFileDialog">OpenFileDialog</text>
								
								</g>
							</g>
						</g>
					<g data-name="OpenFolderDialog">
							<g fill="#eee8d5" stroke="#33322E" data-name="OpenFolderDialog">
								<rect x="417.0" y="242.0" height="32.0" width="155.0" data-name="OpenFolderDialog"></rect>
							</g>
						<g transform="translate(417, 242)" font-family="Helvetica" font-size="12pt" font-weight="bold" font-style="normal" data-name="OpenFolderDialog">
								<g transform="translate(8, 8)" fill="#33322E" text-align="center" data-name="OpenFolderDialog">
									<text x="69.5" y="14.1" stroke="none" text-anchor="middle" data-name="OpenFolderDialog">OpenFolderDialog</text>
								
								</g>
							</g>
						</g>
					</g>
				</g>
			</g>
		</g>
	</svg>