<svg version="1.1" baseProfile="full" width="991.0" height="1144.0" viewbox="0 0 991 1144" xmlns="http://www.w3.org/2000/svg" xmlns:xlink="http://www.w3.org/1999/xlink" xmlns:ev="http://www.w3.org/2001/xml-events">
		<desc >#direction: right
	#spacing: 12
	#.box: fill=#C06EF0
		
		[&lt;box&gt;Animatable] &lt;:- [Camera] &lt;:- [ProjectionCamera] &lt;:- [PerspectiveCamera]
		
		[Animatable] &lt;:- [Geometry3D] &lt;:- [MeshGeometry3D]
		[Animatable] &lt;:- [Model3D] &lt;:- [Light] &lt;:- [DirectionalLight]
		
		[Animatable] &lt;:- [GeneralTransform3D] &lt;:- [Transform3D]
		
		[Transform3D] &lt;:- [AffineTransform3D]
		[Transform3D] &lt;:- [MatrixTransform3D]
		[Transform3D] &lt;:- [Transform3DGroup]
		
		[AffineTransform3D] &lt;:- [RotateTransform3D]
		[AffineTransform3D] &lt;:- [ScaleTransform3D]
		[AffineTransform3D] &lt;:- [TranslateTransform3D]
		
		[GeneralTransform3D] &lt;:-[GeneralTransform3DGroup]
		
		[Animatable] &lt;:- [Material] &lt;:- [MaterialGroup]
		[Material] &lt;:- [DiffuseMaterial]
		[Material] &lt;:- [EmissiveMaterial]
		[Material] &lt;:- [SpecularMaterial]
		
		[Model3D] &lt;:- [GeometryModel3D]
		[Model3D] &lt;:- [Model3DGroup]
		
		[ProjectionCamera] &lt;:- [OrthographicCamera]
		
		[Light] &lt;:- [PointLightBase] &lt;:- [SpotLight]
		[Light] &lt;:- [AmbientLight]
		[PointLightBase] &lt;:- [PointLight]
		
		[Animatable] &lt;:-[Brush] &lt;:- [TileBrush] &lt;:- [VisualBrush]
		[Brush] &lt;:- [BitmapCacheBrush]
		[TileBrush] &lt;:- [DrawingBrush]
		[TileBrush] &lt;:- [ImageBrush]
		
		[Animatable] &lt;:- [Drawing]
		[Animatable] &lt;:- [Pen]
		[Drawing] &lt;:- [DrawingGroup]
		[Drawing] &lt;:- [GeometryDrawing]
		[Drawing] &lt;:- [GlyphRunDrawing]
		[Drawing] &lt;:- [ImageDrawing]
		[Drawing] &lt;:- [VideoDrawing]
		
		[Animatable] &lt;:- [ImageSource] &lt;:- [BitmapSource] &lt;:- [BitmapImage]
		[BitmapSource] &lt;:- [InteropBitmap]
		[BitmapSource] &lt;:- [BitmapFrame]
		[BitmapSource] &lt;:- [CachedBitmap]
		[BitmapSource] &lt;:- [ColorConvertedBitmap]
		[BitmapSource] &lt;:- [CroppedBitmap]
		[BitmapSource] &lt;:- [FormatConvertedBitmap]
		[BitmapSource] &lt;:- [RenderTargetBitmap]
		[BitmapSource] &lt;:- [TransformedBitmap]
		[BitmapSource] &lt;:- [WriteableBitmap]</desc>
	<g stroke-width="1.0" text-align="left" font="12pt Helvetica, Arial, sans-serif" font-size="12pt" font-family="Helvetica" font-weight="bold" font-style="normal">
			<g font-family="Helvetica" font-size="12pt" font-weight="bold" font-style="normal" stroke-width="3.0" stroke-linejoin="round" stroke-linecap="round" stroke="#33322E">
				<g stroke="transparent" fill="transparent">
					<rect x="0.0" y="0.0" height="1144.0" width="991.0" stroke="none"></rect>
				</g>
			<g transform="translate(8, 8)" fill="#33322E">
					<g transform="translate(20, 20)" fill="#eee8d5" font-family="Helvetica" font-size="12pt" font-weight="normal" font-style="normal">
						<path d="M53.6 436.0 L108 16 L163.5 16 L163.5 16.0 " fill="none"></path>
					<path d="M52.0 435.8 L53.6 436.0 L55.2 436.2 L53.1 440.0 Z"></path>
					<path d="M242.5 16.0 L294 16 L334.5 16 L334.5 16.0 " fill="none"></path>
					<path d="M242.5 14.4 L242.5 16.0 L242.5 17.6 L238.5 16.0 Z"></path>
					<path d="M491.5 16.0 L528 16 L553.5 16 L553.5 16.0 " fill="none"></path>
					<path d="M491.5 14.4 L491.5 16.0 L491.5 17.6 L487.5 16.0 Z"></path>
					<path d="M54.0 436.0 L108 82 L145.5 82 L145.5 82.0 " fill="none"></path>
					<path d="M52.5 435.8 L54.0 436.0 L55.6 436.3 L53.4 440.0 Z"></path>
					<path d="M260.5 82.0 L294 82 L335 82 L335.0 82.0 " fill="none"></path>
					<path d="M260.5 80.4 L260.5 82.0 L260.5 83.6 L256.5 82.0 Z"></path>
					<path d="M55.7 436.1 L108 214 L159.5 214 L159.5 214.0 " fill="none"></path>
					<path d="M54.1 435.7 L55.7 436.1 L57.2 436.5 L54.8 440.0 Z"></path>
					<path d="M226.8 195.7 L294 148 L383.5 148 L383.5 148.0 " fill="none"></path>
					<path d="M225.9 194.4 L226.8 195.7 L227.7 197.0 L223.5 198.0 Z"></path>
					<path d="M442.2 136.3 L528 104 L567 104 L567.0 104.0 " fill="none"></path>
					<path d="M441.7 134.8 L442.2 136.3 L442.8 137.7 L438.5 137.7 Z"></path>
					<path d="M59.5 436.3 L108 324 L114 324 L114.0 324.0 " fill="none"></path>
					<path d="M58.0 435.7 L59.5 436.3 L61.0 437.0 L57.9 440.0 Z"></path>
					<path d="M272.5 307.1 L294 302 L353.5 302 L353.5 302.0 " fill="none"></path>
					<path d="M272.2 305.5 L272.5 307.1 L272.9 308.6 L268.6 308.0 Z"></path>
					<path d="M442.8 284.0 L528 236 L556 236 L556.0 236.0 " fill="none"></path>
					<path d="M442.1 282.6 L442.8 284.0 L443.6 285.4 L439.4 286.0 Z"></path>
					<path d="M472.5 302.0 L528 302 L555 302 L555.0 302.0 " fill="none"></path>
					<path d="M472.5 300.4 L472.5 302.0 L472.5 303.6 L468.5 302.0 Z"></path>
					<path d="M435.5 320.4 L528 390 L554.5 390 L554.5 390.0 " fill="none"></path>
					<path d="M436.4 319.1 L435.5 320.4 L434.5 321.7 L432.3 318.0 Z"></path>
					<path d="M718.5 219.2 L744 214 L760.5 214 L760.5 214.0 " fill="none"></path>
					<path d="M718.1 217.6 L718.5 219.2 L718.8 220.8 L714.5 220.0 Z"></path>
					<path d="M718.5 252.8 L744 258 L764 258 L764.0 258.0 " fill="none"></path>
					<path d="M718.8 251.2 L718.5 252.8 L718.1 254.4 L714.5 252.0 Z"></path>
					<path d="M665.6 254.1 L744 302 L750 302 L750.0 302.0 " fill="none"></path>
					<path d="M666.4 252.7 L665.6 254.1 L664.8 255.5 L662.2 252.0 Z"></path>
					<path d="M272.5 340.9 L294 346 L300 346 L300.0 346.0 " fill="none"></path>
					<path d="M272.9 339.4 L272.5 340.9 L272.2 342.5 L268.6 340.0 Z"></path>
					<path d="M106.0 456.0 L108 456 L162.5 456 L162.5 456.0 " fill="none"></path>
					<path d="M106.0 454.4 L106.0 456.0 L106.0 457.6 L102.0 456.0 Z"></path>
					<path d="M226.8 437.7 L294 390 L349 390 L349.0 390.0 " fill="none"></path>
					<path d="M225.9 436.4 L226.8 437.7 L227.7 439.0 L223.5 440.0 Z"></path>
					<path d="M243.4 446.0 L294 434 L345.5 434 L345.5 434.0 " fill="none"></path>
					<path d="M243.0 444.4 L243.4 446.0 L243.8 447.5 L239.5 446.9 Z"></path>
					<path d="M243.4 466.0 L294 478 L338 478 L338.0 478.0 " fill="none"></path>
					<path d="M243.8 464.5 L243.4 466.0 L243.0 467.6 L239.5 465.1 Z"></path>
					<path d="M226.8 474.3 L294 522 L339 522 L339.0 522.0 " fill="none"></path>
					<path d="M227.7 473.0 L226.8 474.3 L225.9 475.6 L223.5 472.0 Z"></path>
					<path d="M246.4 203.3 L294 192 L332.5 192 L332.5 192.0 " fill="none"></path>
					<path d="M246.0 201.7 L246.4 203.3 L246.8 204.8 L242.5 204.2 Z"></path>
					<path d="M246.4 224.7 L294 236 L345.5 236 L345.5 236.0 " fill="none"></path>
					<path d="M246.8 223.2 L246.4 224.7 L246.0 226.3 L242.5 223.8 Z"></path>
					<path d="M457.3 33.4 L528 60 L548 60 L548.0 60.0 " fill="none"></path>
					<path d="M457.9 31.9 L457.3 33.4 L456.7 34.9 L453.5 32.0 Z"></path>
					<path d="M442.5 148.0 L528 148 L569.5 148 L569.5 148.0 " fill="none"></path>
					<path d="M442.5 146.4 L442.5 148.0 L442.5 149.6 L438.5 148.0 Z"></path>
					<path d="M706.4 133.7 L744 126 L797 126 L797.0 126.0 " fill="none"></path>
					<path d="M706.1 132.1 L706.4 133.7 L706.7 135.2 L702.5 134.5 Z"></path>
					<path d="M442.2 159.7 L528 192 L576.5 192 L576.5 192.0 " fill="none"></path>
					<path d="M442.8 158.3 L442.2 159.7 L441.7 161.2 L438.5 158.3 Z"></path>
					<path d="M706.4 162.3 L744 170 L795 170 L795.0 170.0 " fill="none"></path>
					<path d="M706.7 160.8 L706.4 162.3 L706.1 163.9 L702.5 161.5 Z"></path>
					<path d="M59.5 475.7 L108 588 L170 588 L170.0 588.0 " fill="none"></path>
					<path d="M61.0 475.0 L59.5 475.7 L58.0 476.3 L57.9 472.0 Z"></path>
					<path d="M235.9 579.7 L294 566 L366 566 L366.0 566.0 " fill="none"></path>
					<path d="M235.5 578.2 L235.9 579.7 L236.3 581.3 L232.0 580.7 Z"></path>
					<path d="M427.8 547.0 L528 434 L581.5 434 L581.5 434.0 " fill="none"></path>
					<path d="M426.6 545.9 L427.8 547.0 L429.0 548.1 L425.2 550.0 Z"></path>
					<path d="M235.9 596.3 L294 610 L329 610 L329.0 610.0 " fill="none"></path>
					<path d="M236.3 594.7 L235.9 596.3 L235.5 597.8 L232.0 595.3 Z"></path>
					<path d="M460.0 566.0 L528 566 L573.5 566 L573.5 566.0 " fill="none"></path>
					<path d="M460.0 564.4 L460.0 566.0 L460.0 567.6 L456.0 566.0 Z"></path>
					<path d="M442.8 584.0 L528 632 L582 632 L582.0 632.0 " fill="none"></path>
					<path d="M443.6 582.6 L442.8 584.0 L442.1 585.4 L439.4 582.0 Z"></path>
					<path d="M55.0 475.9 L108 742 L161.5 742 L161.5 742.0 " fill="none"></path>
					<path d="M56.5 475.6 L55.0 475.9 L53.4 476.2 L54.2 472.0 Z"></path>
					<path d="M54.2 475.9 L108 808 L178.5 808 L178.5 808.0 " fill="none"></path>
					<path d="M55.8 475.7 L54.2 475.9 L52.7 476.2 L53.6 472.0 Z"></path>
					<path d="M220.8 723.3 L294 654 L347.5 654 L347.5 654.0 " fill="none"></path>
					<path d="M219.7 722.1 L220.8 723.3 L221.9 724.4 L217.9 726.0 Z"></path>
					<path d="M238.4 724.3 L294 698 L334 698 L334.0 698.0 " fill="none"></path>
					<path d="M237.7 722.8 L238.4 724.3 L239.1 725.7 L234.8 726.0 Z"></path>
					<path d="M244.5 742.0 L294 742 L333 742 L333.0 742.0 " fill="none"></path>
					<path d="M244.5 740.4 L244.5 742.0 L244.5 743.6 L240.5 742.0 Z"></path>
					<path d="M238.4 759.7 L294 786 L348.5 786 L348.5 786.0 " fill="none"></path>
					<path d="M239.1 758.3 L238.4 759.7 L237.7 761.2 L234.8 758.0 Z"></path>
					<path d="M220.8 760.7 L294 830 L350 830 L350.0 830.0 " fill="none"></path>
					<path d="M221.9 759.6 L220.8 760.7 L219.7 761.9 L217.9 758.0 Z"></path>
					<path d="M53.7 476.0 L108 874 L143 874 L143.0 874.0 " fill="none"></path>
					<path d="M55.3 475.7 L53.7 476.0 L52.1 476.2 L53.2 472.0 Z"></path>
					<path d="M263.0 874.0 L294 874 L349 874 L349.0 874.0 " fill="none"></path>
					<path d="M263.0 872.4 L263.0 874.0 L263.0 875.6 L259.0 874.0 Z"></path>
					<path d="M422.5 854.6 L528 676 L578 676 L578.0 676.0 " fill="none"></path>
					<path d="M421.1 853.7 L422.5 854.6 L423.9 855.4 L420.5 858.0 Z"></path>
					<path d="M425.6 854.8 L528 720 L574 720 L574.0 720.0 " fill="none"></path>
					<path d="M424.3 853.8 L425.6 854.8 L426.8 855.8 L423.2 858.0 Z"></path>
					<path d="M430.9 855.3 L528 764 L577 764 L577.0 764.0 " fill="none"></path>
					<path d="M429.8 854.1 L430.9 855.3 L432.0 856.4 L428.0 858.0 Z"></path>
					<path d="M442.8 856.0 L528 808 L572 808 L572.0 808.0 " fill="none"></path>
					<path d="M442.1 854.6 L442.8 856.0 L443.6 857.4 L439.4 858.0 Z"></path>
					<path d="M476.9 861.6 L528 852 L540.5 852 L540.5 852.0 " fill="none"></path>
					<path d="M476.6 860.0 L476.9 861.6 L477.2 863.2 L473.0 862.3 Z"></path>
					<path d="M476.9 886.4 L528 896 L568 896 L568.0 896.0 " fill="none"></path>
					<path d="M477.2 884.8 L476.9 886.4 L476.6 888.0 L473.0 885.7 Z"></path>
					<path d="M442.8 892.0 L528 940 L534 940 L534.0 940.0 " fill="none"></path>
					<path d="M443.6 890.6 L442.8 892.0 L442.1 893.4 L439.4 890.0 Z"></path>
					<path d="M430.9 892.7 L528 984 L549.5 984 L549.5 984.0 " fill="none"></path>
					<path d="M432.0 891.6 L430.9 892.7 L429.8 893.9 L428.0 890.0 Z"></path>
					<path d="M425.6 893.2 L528 1028 L552.5 1028 L552.5 1028.0 " fill="none"></path>
					<path d="M426.8 892.2 L425.6 893.2 L424.3 894.2 L423.2 890.0 Z"></path>
					<path d="M422.5 893.4 L528 1072 L565 1072 L565.0 1072.0 " fill="none"></path>
					<path d="M423.9 892.6 L422.5 893.4 L421.1 894.3 L420.5 890.0 Z"></path>
					<g data-name="Animatable">
							<g fill="#C06EF0" stroke="#33322E" data-name="Animatable">
								<rect x="0.0" y="440.0" height="32.0" width="102.0" data-name="Animatable"></rect>
							</g>
						<g transform="translate(0, 440)" font-family="Helvetica" font-size="12pt" font-weight="normal" font-style="normal" data-name="Animatable">
								<g transform="translate(8, 8)" fill="#33322E" text-align="center" data-name="Animatable">
									<text x="43.0" y="14.1" stroke="none" text-anchor="middle" data-name="Animatable">Animatable</text>
								
								</g>
							</g>
						</g>
					<g data-name="Camera">
							<g fill="#eee8d5" stroke="#33322E" data-name="Camera">
								<rect x="163.5" y="0.0" height="32.0" width="75.0" data-name="Camera"></rect>
							</g>
						<g transform="translate(163.5, 0)" font-family="Helvetica" font-size="12pt" font-weight="bold" font-style="normal" data-name="Camera">
								<g transform="translate(8, 8)" fill="#33322E" text-align="center" data-name="Camera">
									<text x="29.5" y="14.1" stroke="none" text-anchor="middle" data-name="Camera">Camera</text>
								
								</g>
							</g>
						</g>
					<g data-name="ProjectionCamera">
							<g fill="#eee8d5" stroke="#33322E" data-name="ProjectionCamera">
								<rect x="334.5" y="0.0" height="32.0" width="153.0" data-name="ProjectionCamera"></rect>
							</g>
						<g transform="translate(334.5, 0)" font-family="Helvetica" font-size="12pt" font-weight="bold" font-style="normal" data-name="ProjectionCamera">
								<g transform="translate(8, 8)" fill="#33322E" text-align="center" data-name="ProjectionCamera">
									<text x="68.5" y="14.1" stroke="none" text-anchor="middle" data-name="ProjectionCamera">ProjectionCamera</text>
								
								</g>
							</g>
						</g>
					<g data-name="PerspectiveCamera">
							<g fill="#eee8d5" stroke="#33322E" data-name="PerspectiveCamera">
								<rect x="553.5" y="0.0" height="32.0" width="165.0" data-name="PerspectiveCamera"></rect>
							</g>
						<g transform="translate(553.5, 0)" font-family="Helvetica" font-size="12pt" font-weight="bold" font-style="normal" data-name="PerspectiveCamera">
								<g transform="translate(8, 8)" fill="#33322E" text-align="center" data-name="PerspectiveCamera">
									<text x="74.5" y="14.1" stroke="none" text-anchor="middle" data-name="PerspectiveCamera">PerspectiveCamera</text>
								
								</g>
							</g>
						</g>
					<g data-name="Geometry3D">
							<g fill="#eee8d5" stroke="#33322E" data-name="Geometry3D">
								<rect x="145.5" y="66.0" height="32.0" width="111.0" data-name="Geometry3D"></rect>
							</g>
						<g transform="translate(145.5, 66)" font-family="Helvetica" font-size="12pt" font-weight="bold" font-style="normal" data-name="Geometry3D">
								<g transform="translate(8, 8)" fill="#33322E" text-align="center" data-name="Geometry3D">
									<text x="47.5" y="14.1" stroke="none" text-anchor="middle" data-name="Geometry3D">Geometry3D</text>
								
								</g>
							</g>
						</g>
					<g data-name="MeshGeometry3D">
							<g fill="#eee8d5" stroke="#33322E" data-name="MeshGeometry3D">
								<rect x="335.0" y="66.0" height="32.0" width="152.0" data-name="MeshGeometry3D"></rect>
							</g>
						<g transform="translate(335, 66)" font-family="Helvetica" font-size="12pt" font-weight="bold" font-style="normal" data-name="MeshGeometry3D">
								<g transform="translate(8, 8)" fill="#33322E" text-align="center" data-name="MeshGeometry3D">
									<text x="68.0" y="14.1" stroke="none" text-anchor="middle" data-name="MeshGeometry3D">MeshGeometry3D</text>
								
								</g>
							</g>
						</g>
					<g data-name="Model3D">
							<g fill="#eee8d5" stroke="#33322E" data-name="Model3D">
								<rect x="159.5" y="198.0" height="32.0" width="83.0" data-name="Model3D"></rect>
							</g>
						<g transform="translate(159.5, 198)" font-family="Helvetica" font-size="12pt" font-weight="bold" font-style="normal" data-name="Model3D">
								<g transform="translate(8, 8)" fill="#33322E" text-align="center" data-name="Model3D">
									<text x="33.5" y="14.1" stroke="none" text-anchor="middle" data-name="Model3D">Model3D</text>
								
								</g>
							</g>
						</g>
					<g data-name="Light">
							<g fill="#eee8d5" stroke="#33322E" data-name="Light">
								<rect x="383.5" y="132.0" height="32.0" width="55.0" data-name="Light"></rect>
							</g>
						<g transform="translate(383.5, 132)" font-family="Helvetica" font-size="12pt" font-weight="bold" font-style="normal" data-name="Light">
								<g transform="translate(8, 8)" fill="#33322E" text-align="center" data-name="Light">
									<text x="19.5" y="14.1" stroke="none" text-anchor="middle" data-name="Light">Light</text>
								
								</g>
							</g>
						</g>
					<g data-name="DirectionalLight">
							<g fill="#eee8d5" stroke="#33322E" data-name="DirectionalLight">
								<rect x="567.0" y="88.0" height="32.0" width="138.0" data-name="DirectionalLight"></rect>
							</g>
						<g transform="translate(567, 88)" font-family="Helvetica" font-size="12pt" font-weight="bold" font-style="normal" data-name="DirectionalLight">
								<g transform="translate(8, 8)" fill="#33322E" text-align="center" data-name="DirectionalLight">
									<text x="61.0" y="14.1" stroke="none" text-anchor="middle" data-name="DirectionalLight">DirectionalLight</text>
								
								</g>
							</g>
						</g>
					<g data-name="GeneralTransform3D">
							<g fill="#eee8d5" stroke="#33322E" data-name="GeneralTransform3D">
								<rect x="114.0" y="308.0" height="32.0" width="174.0" data-name="GeneralTransform3D"></rect>
							</g>
						<g transform="translate(114, 308)" font-family="Helvetica" font-size="12pt" font-weight="bold" font-style="normal" data-name="GeneralTransform3D">
								<g transform="translate(8, 8)" fill="#33322E" text-align="center" data-name="GeneralTransform3D">
									<text x="79.0" y="14.1" stroke="none" text-anchor="middle" data-name="GeneralTransform3D">GeneralTransform3D</text>
								
								</g>
							</g>
						</g>
					<g data-name="Transform3D">
							<g fill="#eee8d5" stroke="#33322E" data-name="Transform3D">
								<rect x="353.5" y="286.0" height="32.0" width="115.0" data-name="Transform3D"></rect>
							</g>
						<g transform="translate(353.5, 286)" font-family="Helvetica" font-size="12pt" font-weight="bold" font-style="normal" data-name="Transform3D">
								<g transform="translate(8, 8)" fill="#33322E" text-align="center" data-name="Transform3D">
									<text x="49.5" y="14.1" stroke="none" text-anchor="middle" data-name="Transform3D">Transform3D</text>
								
								</g>
							</g>
						</g>
					<g data-name="AffineTransform3D">
							<g fill="#eee8d5" stroke="#33322E" data-name="AffineTransform3D">
								<rect x="556.0" y="220.0" height="32.0" width="160.0" data-name="AffineTransform3D"></rect>
							</g>
						<g transform="translate(556, 220)" font-family="Helvetica" font-size="12pt" font-weight="bold" font-style="normal" data-name="AffineTransform3D">
								<g transform="translate(8, 8)" fill="#33322E" text-align="center" data-name="AffineTransform3D">
									<text x="72.0" y="14.1" stroke="none" text-anchor="middle" data-name="AffineTransform3D">AffineTransform3D</text>
								
								</g>
							</g>
						</g>
					<g data-name="MatrixTransform3D">
							<g fill="#eee8d5" stroke="#33322E" data-name="MatrixTransform3D">
								<rect x="555.0" y="286.0" height="32.0" width="162.0" data-name="MatrixTransform3D"></rect>
							</g>
						<g transform="translate(555, 286)" font-family="Helvetica" font-size="12pt" font-weight="bold" font-style="normal" data-name="MatrixTransform3D">
								<g transform="translate(8, 8)" fill="#33322E" text-align="center" data-name="MatrixTransform3D">
									<text x="73.0" y="14.1" stroke="none" text-anchor="middle" data-name="MatrixTransform3D">MatrixTransform3D</text>
								
								</g>
							</g>
						</g>
					<g data-name="Transform3DGroup">
							<g fill="#eee8d5" stroke="#33322E" data-name="Transform3DGroup">
								<rect x="554.5" y="374.0" height="32.0" width="163.0" data-name="Transform3DGroup"></rect>
							</g>
						<g transform="translate(554.5, 374)" font-family="Helvetica" font-size="12pt" font-weight="bold" font-style="normal" data-name="Transform3DGroup">
								<g transform="translate(8, 8)" fill="#33322E" text-align="center" data-name="Transform3DGroup">
									<text x="73.5" y="14.1" stroke="none" text-anchor="middle" data-name="Transform3DGroup">Transform3DGroup</text>
								
								</g>
							</g>
						</g>
					<g data-name="RotateTransform3D">
							<g fill="#eee8d5" stroke="#33322E" data-name="RotateTransform3D">
								<rect x="760.5" y="198.0" height="32.0" width="164.0" data-name="RotateTransform3D"></rect>
							</g>
						<g transform="translate(760.5, 198)" font-family="Helvetica" font-size="12pt" font-weight="bold" font-style="normal" data-name="RotateTransform3D">
								<g transform="translate(8, 8)" fill="#33322E" text-align="center" data-name="RotateTransform3D">
									<text x="74.0" y="14.1" stroke="none" text-anchor="middle" data-name="RotateTransform3D">RotateTransform3D</text>
								
								</g>
							</g>
						</g>
					<g data-name="ScaleTransform3D">
							<g fill="#eee8d5" stroke="#33322E" data-name="ScaleTransform3D">
								<rect x="764.0" y="242.0" height="32.0" width="157.0" data-name="ScaleTransform3D"></rect>
							</g>
						<g transform="translate(764, 242)" font-family="Helvetica" font-size="12pt" font-weight="bold" font-style="normal" data-name="ScaleTransform3D">
								<g transform="translate(8, 8)" fill="#33322E" text-align="center" data-name="ScaleTransform3D">
									<text x="70.5" y="14.1" stroke="none" text-anchor="middle" data-name="ScaleTransform3D">ScaleTransform3D</text>
								
								</g>
							</g>
						</g>
					<g data-name="TranslateTransform3D">
							<g fill="#eee8d5" stroke="#33322E" data-name="TranslateTransform3D">
								<rect x="750.0" y="286.0" height="32.0" width="185.0" data-name="TranslateTransform3D"></rect>
							</g>
						<g transform="translate(750, 286)" font-family="Helvetica" font-size="12pt" font-weight="bold" font-style="normal" data-name="TranslateTransform3D">
								<g transform="translate(8, 8)" fill="#33322E" text-align="center" data-name="TranslateTransform3D">
									<text x="84.5" y="14.1" stroke="none" text-anchor="middle" data-name="TranslateTransform3D">TranslateTransform3D</text>
								
								</g>
							</g>
						</g>
					<g data-name="GeneralTransform3DGroup">
							<g fill="#eee8d5" stroke="#33322E" data-name="GeneralTransform3DGroup">
								<rect x="300.0" y="330.0" height="32.0" width="222.0" data-name="GeneralTransform3DGroup"></rect>
							</g>
						<g transform="translate(300, 330)" font-family="Helvetica" font-size="12pt" font-weight="bold" font-style="normal" data-name="GeneralTransform3DGroup">
								<g transform="translate(8, 8)" fill="#33322E" text-align="center" data-name="GeneralTransform3DGroup">
									<text x="103.0" y="14.1" stroke="none" text-anchor="middle" data-name="GeneralTransform3DGroup">GeneralTransform3DGroup</text>
								
								</g>
							</g>
						</g>
					<g data-name="Material">
							<g fill="#eee8d5" stroke="#33322E" data-name="Material">
								<rect x="162.5" y="440.0" height="32.0" width="77.0" data-name="Material"></rect>
							</g>
						<g transform="translate(162.5, 440)" font-family="Helvetica" font-size="12pt" font-weight="bold" font-style="normal" data-name="Material">
								<g transform="translate(8, 8)" fill="#33322E" text-align="center" data-name="Material">
									<text x="30.5" y="14.1" stroke="none" text-anchor="middle" data-name="Material">Material</text>
								
								</g>
							</g>
						</g>
					<g data-name="MaterialGroup">
							<g fill="#eee8d5" stroke="#33322E" data-name="MaterialGroup">
								<rect x="349.0" y="374.0" height="32.0" width="124.0" data-name="MaterialGroup"></rect>
							</g>
						<g transform="translate(349, 374)" font-family="Helvetica" font-size="12pt" font-weight="bold" font-style="normal" data-name="MaterialGroup">
								<g transform="translate(8, 8)" fill="#33322E" text-align="center" data-name="MaterialGroup">
									<text x="54.0" y="14.1" stroke="none" text-anchor="middle" data-name="MaterialGroup">MaterialGroup</text>
								
								</g>
							</g>
						</g>
					<g data-name="DiffuseMaterial">
							<g fill="#eee8d5" stroke="#33322E" data-name="DiffuseMaterial">
								<rect x="345.5" y="418.0" height="32.0" width="131.0" data-name="DiffuseMaterial"></rect>
							</g>
						<g transform="translate(345.5, 418)" font-family="Helvetica" font-size="12pt" font-weight="bold" font-style="normal" data-name="DiffuseMaterial">
								<g transform="translate(8, 8)" fill="#33322E" text-align="center" data-name="DiffuseMaterial">
									<text x="57.5" y="14.1" stroke="none" text-anchor="middle" data-name="DiffuseMaterial">DiffuseMaterial</text>
								
								</g>
							</g>
						</g>
					<g data-name="EmissiveMaterial">
							<g fill="#eee8d5" stroke="#33322E" data-name="EmissiveMaterial">
								<rect x="338.0" y="462.0" height="32.0" width="146.0" data-name="EmissiveMaterial"></rect>
							</g>
						<g transform="translate(338, 462)" font-family="Helvetica" font-size="12pt" font-weight="bold" font-style="normal" data-name="EmissiveMaterial">
								<g transform="translate(8, 8)" fill="#33322E" text-align="center" data-name="EmissiveMaterial">
									<text x="65.0" y="14.1" stroke="none" text-anchor="middle" data-name="EmissiveMaterial">EmissiveMaterial</text>
								
								</g>
							</g>
						</g>
					<g data-name="SpecularMaterial">
							<g fill="#eee8d5" stroke="#33322E" data-name="SpecularMaterial">
								<rect x="339.0" y="506.0" height="32.0" width="144.0" data-name="SpecularMaterial"></rect>
							</g>
						<g transform="translate(339, 506)" font-family="Helvetica" font-size="12pt" font-weight="bold" font-style="normal" data-name="SpecularMaterial">
								<g transform="translate(8, 8)" fill="#33322E" text-align="center" data-name="SpecularMaterial">
									<text x="64.0" y="14.1" stroke="none" text-anchor="middle" data-name="SpecularMaterial">SpecularMaterial</text>
								
								</g>
							</g>
						</g>
					<g data-name="GeometryModel3D">
							<g fill="#eee8d5" stroke="#33322E" data-name="GeometryModel3D">
								<rect x="332.5" y="176.0" height="32.0" width="157.0" data-name="GeometryModel3D"></rect>
							</g>
						<g transform="translate(332.5, 176)" font-family="Helvetica" font-size="12pt" font-weight="bold" font-style="normal" data-name="GeometryModel3D">
								<g transform="translate(8, 8)" fill="#33322E" text-align="center" data-name="GeometryModel3D">
									<text x="70.5" y="14.1" stroke="none" text-anchor="middle" data-name="GeometryModel3D">GeometryModel3D</text>
								
								</g>
							</g>
						</g>
					<g data-name="Model3DGroup">
							<g fill="#eee8d5" stroke="#33322E" data-name="Model3DGroup">
								<rect x="345.5" y="220.0" height="32.0" width="131.0" data-name="Model3DGroup"></rect>
							</g>
						<g transform="translate(345.5, 220)" font-family="Helvetica" font-size="12pt" font-weight="bold" font-style="normal" data-name="Model3DGroup">
								<g transform="translate(8, 8)" fill="#33322E" text-align="center" data-name="Model3DGroup">
									<text x="57.5" y="14.1" stroke="none" text-anchor="middle" data-name="Model3DGroup">Model3DGroup</text>
								
								</g>
							</g>
						</g>
					<g data-name="OrthographicCamera">
							<g fill="#eee8d5" stroke="#33322E" data-name="OrthographicCamera">
								<rect x="548.0" y="44.0" height="32.0" width="176.0" data-name="OrthographicCamera"></rect>
							</g>
						<g transform="translate(548, 44)" font-family="Helvetica" font-size="12pt" font-weight="bold" font-style="normal" data-name="OrthographicCamera">
								<g transform="translate(8, 8)" fill="#33322E" text-align="center" data-name="OrthographicCamera">
									<text x="80.0" y="14.1" stroke="none" text-anchor="middle" data-name="OrthographicCamera">OrthographicCamera</text>
								
								</g>
							</g>
						</g>
					<g data-name="PointLightBase">
							<g fill="#eee8d5" stroke="#33322E" data-name="PointLightBase">
								<rect x="569.5" y="132.0" height="32.0" width="133.0" data-name="PointLightBase"></rect>
							</g>
						<g transform="translate(569.5, 132)" font-family="Helvetica" font-size="12pt" font-weight="bold" font-style="normal" data-name="PointLightBase">
								<g transform="translate(8, 8)" fill="#33322E" text-align="center" data-name="PointLightBase">
									<text x="58.5" y="14.1" stroke="none" text-anchor="middle" data-name="PointLightBase">PointLightBase</text>
								
								</g>
							</g>
						</g>
					<g data-name="SpotLight">
							<g fill="#eee8d5" stroke="#33322E" data-name="SpotLight">
								<rect x="797.0" y="110.0" height="32.0" width="91.0" data-name="SpotLight"></rect>
							</g>
						<g transform="translate(797, 110)" font-family="Helvetica" font-size="12pt" font-weight="bold" font-style="normal" data-name="SpotLight">
								<g transform="translate(8, 8)" fill="#33322E" text-align="center" data-name="SpotLight">
									<text x="37.5" y="14.1" stroke="none" text-anchor="middle" data-name="SpotLight">SpotLight</text>
								
								</g>
							</g>
						</g>
					<g data-name="AmbientLight">
							<g fill="#eee8d5" stroke="#33322E" data-name="AmbientLight">
								<rect x="576.5" y="176.0" height="32.0" width="119.0" data-name="AmbientLight"></rect>
							</g>
						<g transform="translate(576.5, 176)" font-family="Helvetica" font-size="12pt" font-weight="bold" font-style="normal" data-name="AmbientLight">
								<g transform="translate(8, 8)" fill="#33322E" text-align="center" data-name="AmbientLight">
									<text x="51.5" y="14.1" stroke="none" text-anchor="middle" data-name="AmbientLight">AmbientLight</text>
								
								</g>
							</g>
						</g>
					<g data-name="PointLight">
							<g fill="#eee8d5" stroke="#33322E" data-name="PointLight">
								<rect x="795.0" y="154.0" height="32.0" width="95.0" data-name="PointLight"></rect>
							</g>
						<g transform="translate(795, 154)" font-family="Helvetica" font-size="12pt" font-weight="bold" font-style="normal" data-name="PointLight">
								<g transform="translate(8, 8)" fill="#33322E" text-align="center" data-name="PointLight">
									<text x="39.5" y="14.1" stroke="none" text-anchor="middle" data-name="PointLight">PointLight</text>
								
								</g>
							</g>
						</g>
					<g data-name="Brush">
							<g fill="#eee8d5" stroke="#33322E" data-name="Brush">
								<rect x="170.0" y="572.0" height="32.0" width="62.0" data-name="Brush"></rect>
							</g>
						<g transform="translate(170, 572)" font-family="Helvetica" font-size="12pt" font-weight="bold" font-style="normal" data-name="Brush">
								<g transform="translate(8, 8)" fill="#33322E" text-align="center" data-name="Brush">
									<text x="23.0" y="14.1" stroke="none" text-anchor="middle" data-name="Brush">Brush</text>
								
								</g>
							</g>
						</g>
					<g data-name="TileBrush">
							<g fill="#eee8d5" stroke="#33322E" data-name="TileBrush">
								<rect x="366.0" y="550.0" height="32.0" width="90.0" data-name="TileBrush"></rect>
							</g>
						<g transform="translate(366, 550)" font-family="Helvetica" font-size="12pt" font-weight="bold" font-style="normal" data-name="TileBrush">
								<g transform="translate(8, 8)" fill="#33322E" text-align="center" data-name="TileBrush">
									<text x="37.0" y="14.1" stroke="none" text-anchor="middle" data-name="TileBrush">TileBrush</text>
								
								</g>
							</g>
						</g>
					<g data-name="VisualBrush">
							<g fill="#eee8d5" stroke="#33322E" data-name="VisualBrush">
								<rect x="581.5" y="418.0" height="32.0" width="109.0" data-name="VisualBrush"></rect>
							</g>
						<g transform="translate(581.5, 418)" font-family="Helvetica" font-size="12pt" font-weight="bold" font-style="normal" data-name="VisualBrush">
								<g transform="translate(8, 8)" fill="#33322E" text-align="center" data-name="VisualBrush">
									<text x="46.5" y="14.1" stroke="none" text-anchor="middle" data-name="VisualBrush">VisualBrush</text>
								
								</g>
							</g>
						</g>
					<g data-name="BitmapCacheBrush">
							<g fill="#eee8d5" stroke="#33322E" data-name="BitmapCacheBrush">
								<rect x="329.0" y="594.0" height="32.0" width="164.0" data-name="BitmapCacheBrush"></rect>
							</g>
						<g transform="translate(329, 594)" font-family="Helvetica" font-size="12pt" font-weight="bold" font-style="normal" data-name="BitmapCacheBrush">
								<g transform="translate(8, 8)" fill="#33322E" text-align="center" data-name="BitmapCacheBrush">
									<text x="74.0" y="14.1" stroke="none" text-anchor="middle" data-name="BitmapCacheBrush">BitmapCacheBrush</text>
								
								</g>
							</g>
						</g>
					<g data-name="DrawingBrush">
							<g fill="#eee8d5" stroke="#33322E" data-name="DrawingBrush">
								<rect x="573.5" y="550.0" height="32.0" width="125.0" data-name="DrawingBrush"></rect>
							</g>
						<g transform="translate(573.5, 550)" font-family="Helvetica" font-size="12pt" font-weight="bold" font-style="normal" data-name="DrawingBrush">
								<g transform="translate(8, 8)" fill="#33322E" text-align="center" data-name="DrawingBrush">
									<text x="54.5" y="14.1" stroke="none" text-anchor="middle" data-name="DrawingBrush">DrawingBrush</text>
								
								</g>
							</g>
						</g>
					<g data-name="ImageBrush">
							<g fill="#eee8d5" stroke="#33322E" data-name="ImageBrush">
								<rect x="582.0" y="616.0" height="32.0" width="108.0" data-name="ImageBrush"></rect>
							</g>
						<g transform="translate(582, 616)" font-family="Helvetica" font-size="12pt" font-weight="bold" font-style="normal" data-name="ImageBrush">
								<g transform="translate(8, 8)" fill="#33322E" text-align="center" data-name="ImageBrush">
									<text x="46.0" y="14.1" stroke="none" text-anchor="middle" data-name="ImageBrush">ImageBrush</text>
								
								</g>
							</g>
						</g>
					<g data-name="Drawing">
							<g fill="#eee8d5" stroke="#33322E" data-name="Drawing">
								<rect x="161.5" y="726.0" height="32.0" width="79.0" data-name="Drawing"></rect>
							</g>
						<g transform="translate(161.5, 726)" font-family="Helvetica" font-size="12pt" font-weight="bold" font-style="normal" data-name="Drawing">
								<g transform="translate(8, 8)" fill="#33322E" text-align="center" data-name="Drawing">
									<text x="31.5" y="14.1" stroke="none" text-anchor="middle" data-name="Drawing">Drawing</text>
								
								</g>
							</g>
						</g>
					<g data-name="Pen">
							<g fill="#eee8d5" stroke="#33322E" data-name="Pen">
								<rect x="178.5" y="792.0" height="32.0" width="45.0" data-name="Pen"></rect>
							</g>
						<g transform="translate(178.5, 792)" font-family="Helvetica" font-size="12pt" font-weight="bold" font-style="normal" data-name="Pen">
								<g transform="translate(8, 8)" fill="#33322E" text-align="center" data-name="Pen">
									<text x="14.5" y="14.1" stroke="none" text-anchor="middle" data-name="Pen">Pen</text>
								
								</g>
							</g>
						</g>
					<g data-name="DrawingGroup">
							<g fill="#eee8d5" stroke="#33322E" data-name="DrawingGroup">
								<rect x="347.5" y="638.0" height="32.0" width="127.0" data-name="DrawingGroup"></rect>
							</g>
						<g transform="translate(347.5, 638)" font-family="Helvetica" font-size="12pt" font-weight="bold" font-style="normal" data-name="DrawingGroup">
								<g transform="translate(8, 8)" fill="#33322E" text-align="center" data-name="DrawingGroup">
									<text x="55.5" y="14.1" stroke="none" text-anchor="middle" data-name="DrawingGroup">DrawingGroup</text>
								
								</g>
							</g>
						</g>
					<g data-name="GeometryDrawing">
							<g fill="#eee8d5" stroke="#33322E" data-name="GeometryDrawing">
								<rect x="334.0" y="682.0" height="32.0" width="154.0" data-name="GeometryDrawing"></rect>
							</g>
						<g transform="translate(334, 682)" font-family="Helvetica" font-size="12pt" font-weight="bold" font-style="normal" data-name="GeometryDrawing">
								<g transform="translate(8, 8)" fill="#33322E" text-align="center" data-name="GeometryDrawing">
									<text x="69.0" y="14.1" stroke="none" text-anchor="middle" data-name="GeometryDrawing">GeometryDrawing</text>
								
								</g>
							</g>
						</g>
					<g data-name="GlyphRunDrawing">
							<g fill="#eee8d5" stroke="#33322E" data-name="GlyphRunDrawing">
								<rect x="333.0" y="726.0" height="32.0" width="156.0" data-name="GlyphRunDrawing"></rect>
							</g>
						<g transform="translate(333, 726)" font-family="Helvetica" font-size="12pt" font-weight="bold" font-style="normal" data-name="GlyphRunDrawing">
								<g transform="translate(8, 8)" fill="#33322E" text-align="center" data-name="GlyphRunDrawing">
									<text x="70.0" y="14.1" stroke="none" text-anchor="middle" data-name="GlyphRunDrawing">GlyphRunDrawing</text>
								
								</g>
							</g>
						</g>
					<g data-name="ImageDrawing">
							<g fill="#eee8d5" stroke="#33322E" data-name="ImageDrawing">
								<rect x="348.5" y="770.0" height="32.0" width="125.0" data-name="ImageDrawing"></rect>
							</g>
						<g transform="translate(348.5, 770)" font-family="Helvetica" font-size="12pt" font-weight="bold" font-style="normal" data-name="ImageDrawing">
								<g transform="translate(8, 8)" fill="#33322E" text-align="center" data-name="ImageDrawing">
									<text x="54.5" y="14.1" stroke="none" text-anchor="middle" data-name="ImageDrawing">ImageDrawing</text>
								
								</g>
							</g>
						</g>
					<g data-name="VideoDrawing">
							<g fill="#eee8d5" stroke="#33322E" data-name="VideoDrawing">
								<rect x="350.0" y="814.0" height="32.0" width="122.0" data-name="VideoDrawing"></rect>
							</g>
						<g transform="translate(350, 814)" font-family="Helvetica" font-size="12pt" font-weight="bold" font-style="normal" data-name="VideoDrawing">
								<g transform="translate(8, 8)" fill="#33322E" text-align="center" data-name="VideoDrawing">
									<text x="53.0" y="14.1" stroke="none" text-anchor="middle" data-name="VideoDrawing">VideoDrawing</text>
								
								</g>
							</g>
						</g>
					<g data-name="ImageSource">
							<g fill="#eee8d5" stroke="#33322E" data-name="ImageSource">
								<rect x="143.0" y="858.0" height="32.0" width="116.0" data-name="ImageSource"></rect>
							</g>
						<g transform="translate(143, 858)" font-family="Helvetica" font-size="12pt" font-weight="bold" font-style="normal" data-name="ImageSource">
								<g transform="translate(8, 8)" fill="#33322E" text-align="center" data-name="ImageSource">
									<text x="50.0" y="14.1" stroke="none" text-anchor="middle" data-name="ImageSource">ImageSource</text>
								
								</g>
							</g>
						</g>
					<g data-name="BitmapSource">
							<g fill="#eee8d5" stroke="#33322E" data-name="BitmapSource">
								<rect x="349.0" y="858.0" height="32.0" width="124.0" data-name="BitmapSource"></rect>
							</g>
						<g transform="translate(349, 858)" font-family="Helvetica" font-size="12pt" font-weight="bold" font-style="normal" data-name="BitmapSource">
								<g transform="translate(8, 8)" fill="#33322E" text-align="center" data-name="BitmapSource">
									<text x="54.0" y="14.1" stroke="none" text-anchor="middle" data-name="BitmapSource">BitmapSource</text>
								
								</g>
							</g>
						</g>
					<g data-name="BitmapImage">
							<g fill="#eee8d5" stroke="#33322E" data-name="BitmapImage">
								<rect x="578.0" y="660.0" height="32.0" width="116.0" data-name="BitmapImage"></rect>
							</g>
						<g transform="translate(578, 660)" font-family="Helvetica" font-size="12pt" font-weight="bold" font-style="normal" data-name="BitmapImage">
								<g transform="translate(8, 8)" fill="#33322E" text-align="center" data-name="BitmapImage">
									<text x="50.0" y="14.1" stroke="none" text-anchor="middle" data-name="BitmapImage">BitmapImage</text>
								
								</g>
							</g>
						</g>
					<g data-name="InteropBitmap">
							<g fill="#eee8d5" stroke="#33322E" data-name="InteropBitmap">
								<rect x="574.0" y="704.0" height="32.0" width="124.0" data-name="InteropBitmap"></rect>
							</g>
						<g transform="translate(574, 704)" font-family="Helvetica" font-size="12pt" font-weight="bold" font-style="normal" data-name="InteropBitmap">
								<g transform="translate(8, 8)" fill="#33322E" text-align="center" data-name="InteropBitmap">
									<text x="54.0" y="14.1" stroke="none" text-anchor="middle" data-name="InteropBitmap">InteropBitmap</text>
								
								</g>
							</g>
						</g>
					<g data-name="BitmapFrame">
							<g fill="#eee8d5" stroke="#33322E" data-name="BitmapFrame">
								<rect x="577.0" y="748.0" height="32.0" width="118.0" data-name="BitmapFrame"></rect>
							</g>
						<g transform="translate(577, 748)" font-family="Helvetica" font-size="12pt" font-weight="bold" font-style="normal" data-name="BitmapFrame">
								<g transform="translate(8, 8)" fill="#33322E" text-align="center" data-name="BitmapFrame">
									<text x="51.0" y="14.1" stroke="none" text-anchor="middle" data-name="BitmapFrame">BitmapFrame</text>
								
								</g>
							</g>
						</g>
					<g data-name="CachedBitmap">
							<g fill="#eee8d5" stroke="#33322E" data-name="CachedBitmap">
								<rect x="572.0" y="792.0" height="32.0" width="128.0" data-name="CachedBitmap"></rect>
							</g>
						<g transform="translate(572, 792)" font-family="Helvetica" font-size="12pt" font-weight="bold" font-style="normal" data-name="CachedBitmap">
								<g transform="translate(8, 8)" fill="#33322E" text-align="center" data-name="CachedBitmap">
									<text x="56.0" y="14.1" stroke="none" text-anchor="middle" data-name="CachedBitmap">CachedBitmap</text>
								
								</g>
							</g>
						</g>
					<g data-name="ColorConvertedBitmap">
							<g fill="#eee8d5" stroke="#33322E" data-name="ColorConvertedBitmap">
								<rect x="540.5" y="836.0" height="32.0" width="191.0" data-name="ColorConvertedBitmap"></rect>
							</g>
						<g transform="translate(540.5, 836)" font-family="Helvetica" font-size="12pt" font-weight="bold" font-style="normal" data-name="ColorConvertedBitmap">
								<g transform="translate(8, 8)" fill="#33322E" text-align="center" data-name="ColorConvertedBitmap">
									<text x="87.5" y="14.1" stroke="none" text-anchor="middle" data-name="ColorConvertedBitmap">ColorConvertedBitmap</text>
								
								</g>
							</g>
						</g>
					<g data-name="CroppedBitmap">
							<g fill="#eee8d5" stroke="#33322E" data-name="CroppedBitmap">
								<rect x="568.0" y="880.0" height="32.0" width="136.0" data-name="CroppedBitmap"></rect>
							</g>
						<g transform="translate(568, 880)" font-family="Helvetica" font-size="12pt" font-weight="bold" font-style="normal" data-name="CroppedBitmap">
								<g transform="translate(8, 8)" fill="#33322E" text-align="center" data-name="CroppedBitmap">
									<text x="60.0" y="14.1" stroke="none" text-anchor="middle" data-name="CroppedBitmap">CroppedBitmap</text>
								
								</g>
							</g>
						</g>
					<g data-name="FormatConvertedBitmap">
							<g fill="#eee8d5" stroke="#33322E" data-name="FormatConvertedBitmap">
								<rect x="534.0" y="924.0" height="32.0" width="204.0" data-name="FormatConvertedBitmap"></rect>
							</g>
						<g transform="translate(534, 924)" font-family="Helvetica" font-size="12pt" font-weight="bold" font-style="normal" data-name="FormatConvertedBitmap">
								<g transform="translate(8, 8)" fill="#33322E" text-align="center" data-name="FormatConvertedBitmap">
									<text x="94.0" y="14.1" stroke="none" text-anchor="middle" data-name="FormatConvertedBitmap">FormatConvertedBitmap</text>
								
								</g>
							</g>
						</g>
					<g data-name="RenderTargetBitmap">
							<g fill="#eee8d5" stroke="#33322E" data-name="RenderTargetBitmap">
								<rect x="549.5" y="968.0" height="32.0" width="173.0" data-name="RenderTargetBitmap"></rect>
							</g>
						<g transform="translate(549.5, 968)" font-family="Helvetica" font-size="12pt" font-weight="bold" font-style="normal" data-name="RenderTargetBitmap">
								<g transform="translate(8, 8)" fill="#33322E" text-align="center" data-name="RenderTargetBitmap">
									<text x="78.5" y="14.1" stroke="none" text-anchor="middle" data-name="RenderTargetBitmap">RenderTargetBitmap</text>
								
								</g>
							</g>
						</g>
					<g data-name="TransformedBitmap">
							<g fill="#eee8d5" stroke="#33322E" data-name="TransformedBitmap">
								<rect x="552.5" y="1012.0" height="32.0" width="167.0" data-name="TransformedBitmap"></rect>
							</g>
						<g transform="translate(552.5, 1012)" font-family="Helvetica" font-size="12pt" font-weight="bold" font-style="normal" data-name="TransformedBitmap">
								<g transform="translate(8, 8)" fill="#33322E" text-align="center" data-name="TransformedBitmap">
									<text x="75.5" y="14.1" stroke="none" text-anchor="middle" data-name="TransformedBitmap">TransformedBitmap</text>
								
								</g>
							</g>
						</g>
					<g data-name="WriteableBitmap">
							<g fill="#eee8d5" stroke="#33322E" data-name="WriteableBitmap">
								<rect x="565.0" y="1056.0" height="32.0" width="142.0" data-name="WriteableBitmap"></rect>
							</g>
						<g transform="translate(565, 1056)" font-family="Helvetica" font-size="12pt" font-weight="bold" font-style="normal" data-name="WriteableBitmap">
								<g transform="translate(8, 8)" fill="#33322E" text-align="center" data-name="WriteableBitmap">
									<text x="63.0" y="14.1" stroke="none" text-anchor="middle" data-name="WriteableBitmap">WriteableBitmap</text>
								
								</g>
							</g>
						</g>
					</g>
				</g>
			</g>
		</g>
	</svg>