<svg version="1.1" baseProfile="full" width="753.0" height="1012.0" viewbox="0 0 753 1012" xmlns="http://www.w3.org/2000/svg" xmlns:xlink="http://www.w3.org/1999/xlink" xmlns:ev="http://www.w3.org/2001/xml-events">
		<title >wpf-frameworkelements</title>
	<desc >#direction: right
	#spacing: 12
	#title: wpf-frameworkelements
	
	[FrameworkElement] &lt;:- [AccessText]
	[FrameworkElement] &lt;:- [Popup]
	[FrameworkElement] &lt;:- [TextBlock]
	[FrameworkElement] &lt;:- [Decorator] &lt;:- [Border]
	[FrameworkElement] &lt;:- [Page]
	[FrameworkElement] &lt;:- [Panel]
	[FrameworkElement] &lt;:- [Viewport3D]
	
	[Decorator] &lt;:- [BulletDecorator]
	[Decorator] &lt;:- [Viewbox]
	
	[Panel] &lt;:- [Canvas]
	[Panel] &lt;:- [DockPanel]
	[Panel] &lt;:- [Grid]
	[Panel] &lt;:- [TabPanel]
	[Panel] &lt;:- [ToolBarOverflowPanel]
	[Panel] &lt;:- [UniformGrid]
	[Panel] &lt;:- [StackPanel]
	[Panel] &lt;:- [VirtualizingPanel] -[VirtualizingStackPanel]
	[Panel] &lt;:- [WrapPanel]
	[VirtualizingPanel] &lt;:- [DataGridCellsPanel]
	
	[FrameworkElement] &lt;:- [Shape] &lt;:- [Path]
	[Shape] &lt;:- [Line]
	[Shape] &lt;:- [Ellipse]
	[Shape] &lt;:- [Polygon]
	[Shape] &lt;:- [Polyline]
	[Shape] &lt;:- [Rectangle]
	
	[FrameworkElement] &lt;:- [MediaElement]
	[FrameworkElement] &lt;:- [Image]
	[FrameworkElement] &lt;:- [HwndHost] &lt;:- [ActiveXHost] &lt;:- [WebBrowser]
	[HwndHost] &lt;:- [WindowsFormsHost]</desc>
	<g stroke-width="1.0" text-align="left" font="12pt Helvetica, Arial, sans-serif" font-size="12pt" font-family="Helvetica" font-weight="bold" font-style="normal">
			<g font-family="Helvetica" font-size="12pt" font-weight="bold" font-style="normal" stroke-width="3.0" stroke-linejoin="round" stroke-linecap="round" stroke="#33322E">
				<g stroke="transparent" fill="transparent">
					<rect x="0.0" y="0.0" height="1012.0" width="753.0" stroke="none"></rect>
				</g>
			<g transform="translate(8, 8)" fill="#33322E">
					<g transform="translate(20, 20)" fill="#eee8d5" font-family="Helvetica" font-size="12pt" font-weight="normal" font-style="normal">
						<path d="M86.4 392.1 L170 16 L186 16 L186.0 16.0 " fill="none"></path>
					<path d="M84.9 391.7 L86.4 392.1 L88.0 392.4 L85.6 396.0 Z"></path>
					<path d="M87.0 392.1 L170 60 L205 60 L205.0 60.0 " fill="none"></path>
					<path d="M85.4 391.7 L87.0 392.1 L88.5 392.5 L86.0 396.0 Z"></path>
					<path d="M87.7 392.2 L170 104 L192.5 104 L192.5 104.0 " fill="none"></path>
					<path d="M86.1 391.7 L87.7 392.2 L89.2 392.6 L86.6 396.0 Z"></path>
					<path d="M88.6 392.2 L170 148 L192 148 L192.0 148.0 " fill="none"></path>
					<path d="M87.1 391.7 L88.6 392.2 L90.1 392.7 L87.3 396.0 Z"></path>
					<path d="M266.1 129.8 L306 104 L371 104 L371.0 104.0 " fill="none"></path>
					<path d="M265.2 128.5 L266.1 129.8 L267.0 131.2 L262.7 132.0 Z"></path>
					<path d="M90.7 392.3 L170 214 L211 214 L211.0 214.0 " fill="none"></path>
					<path d="M89.3 391.7 L90.7 392.3 L92.2 393.0 L89.1 396.0 Z"></path>
					<path d="M168.0 412.0 L170 412 L208.5 412 L208.5 412.0 " fill="none"></path>
					<path d="M168.0 410.4 L168.0 412.0 L168.0 413.6 L164.0 412.0 Z"></path>
					<path d="M90.7 431.7 L170 610 L186 610 L186.0 610.0 " fill="none"></path>
					<path d="M92.2 431.0 L90.7 431.7 L89.3 432.3 L89.1 428.0 Z"></path>
					<path d="M288.0 148.0 L306 148 L337 148 L337.0 148.0 " fill="none"></path>
					<path d="M288.0 146.4 L288.0 148.0 L288.0 149.6 L284.0 148.0 Z"></path>
					<path d="M266.1 166.2 L306 192 L364.5 192 L364.5 192.0 " fill="none"></path>
					<path d="M267.0 164.8 L266.1 166.2 L265.2 167.5 L262.7 164.0 Z"></path>
					<path d="M245.6 392.3 L306 236 L368.5 236 L368.5 236.0 " fill="none"></path>
					<path d="M244.1 391.7 L245.6 392.3 L247.1 392.8 L244.2 396.0 Z"></path>
					<path d="M248.1 392.4 L306 280 L356 280 L356.0 280.0 " fill="none"></path>
					<path d="M246.7 391.7 L248.1 392.4 L249.5 393.2 L246.2 396.0 Z"></path>
					<path d="M252.8 392.8 L306 324 L380.5 324 L380.5 324.0 " fill="none"></path>
					<path d="M251.5 391.9 L252.8 392.8 L254.1 393.8 L250.4 396.0 Z"></path>
					<path d="M266.1 393.8 L306 368 L362 368 L362.0 368.0 " fill="none"></path>
					<path d="M265.2 392.5 L266.1 393.8 L267.0 395.2 L262.7 396.0 Z"></path>
					<path d="M271.5 412.0 L306 412 L312 412 L312.0 412.0 " fill="none"></path>
					<path d="M271.5 410.4 L271.5 412.0 L271.5 413.6 L267.5 412.0 Z"></path>
					<path d="M266.1 430.2 L306 456 L350 456 L350.0 456.0 " fill="none"></path>
					<path d="M267.0 428.8 L266.1 430.2 L265.2 431.5 L262.7 428.0 Z"></path>
					<path d="M252.8 431.2 L306 500 L354.5 500 L354.5 500.0 " fill="none"></path>
					<path d="M254.1 430.2 L252.8 431.2 L251.5 432.1 L250.4 428.0 Z"></path>
					<path d="M248.1 431.6 L306 544 L332.5 544 L332.5 544.0 " fill="none"></path>
					<path d="M249.5 430.8 L248.1 431.6 L246.7 432.3 L246.2 428.0 Z"></path>
					<path d="M477.0 528.0 L504 522 L510 522 L510.0 522.0 " fill="none"></path>
					<path d="M245.6 431.7 L306 588 L356 588 L356.0 588.0 " fill="none"></path>
					<path d="M247.1 431.2 L245.6 431.7 L244.1 432.3 L244.2 428.0 Z"></path>
					<path d="M417.4 563.4 L504 698 L521 698 L521.0 698.0 " fill="none"></path>
					<path d="M418.8 562.5 L417.4 563.4 L416.1 564.2 L415.3 560.0 Z"></path>
					<path d="M87.3 431.9 L170 742 L206 742 L206.0 742.0 " fill="none"></path>
					<path d="M88.8 431.5 L87.3 431.9 L85.8 432.3 L86.3 428.0 Z"></path>
					<path d="M250.0 722.6 L306 632 L379.5 632 L379.5 632.0 " fill="none"></path>
					<path d="M248.6 721.8 L250.0 722.6 L251.4 723.4 L247.9 726.0 Z"></path>
					<path d="M257.4 723.2 L306 676 L380.5 676 L380.5 676.0 " fill="none"></path>
					<path d="M256.2 722.1 L257.4 723.2 L258.5 724.4 L254.5 726.0 Z"></path>
					<path d="M273.8 730.4 L306 720 L371 720 L371.0 720.0 " fill="none"></path>
					<path d="M273.3 728.9 L273.8 730.4 L274.3 731.9 L270.0 731.6 Z"></path>
					<path d="M273.8 753.6 L306 764 L365.5 764 L365.5 764.0 " fill="none"></path>
					<path d="M274.3 752.1 L273.8 753.6 L273.3 755.1 L270.0 752.4 Z"></path>
					<path d="M257.4 760.8 L306 808 L366.5 808 L366.5 808.0 " fill="none"></path>
					<path d="M258.5 759.6 L257.4 760.8 L256.2 761.9 L254.5 758.0 Z"></path>
					<path d="M250.0 761.4 L306 852 L359 852 L359.0 852.0 " fill="none"></path>
					<path d="M251.4 760.6 L250.0 761.4 L248.6 762.2 L247.9 758.0 Z"></path>
					<path d="M86.2 431.9 L170 830 L176 830 L176.0 830.0 " fill="none"></path>
					<path d="M87.8 431.6 L86.2 431.9 L84.6 432.2 L85.4 428.0 Z"></path>
					<path d="M85.8 431.9 L170 874 L207 874 L207.0 874.0 " fill="none"></path>
					<path d="M87.4 431.6 L85.8 431.9 L84.2 432.2 L85.0 428.0 Z"></path>
					<path d="M85.3 431.9 L170 940 L190.5 940 L190.5 940.0 " fill="none"></path>
					<path d="M86.9 431.7 L85.3 431.9 L83.7 432.2 L84.7 428.0 Z"></path>
					<path d="M266.1 921.8 L306 896 L350 896 L350.0 896.0 " fill="none"></path>
					<path d="M265.2 920.5 L266.1 921.8 L267.0 923.2 L262.7 924.0 Z"></path>
					<path d="M464.0 896.0 L504 896 L546.5 896 L546.5 896.0 " fill="none"></path>
					<path d="M464.0 894.4 L464.0 896.0 L464.0 897.6 L460.0 896.0 Z"></path>
					<path d="M289.5 940.0 L306 940 L319.5 940 L319.5 940.0 " fill="none"></path>
					<path d="M289.5 938.4 L289.5 940.0 L289.5 941.6 L285.5 940.0 Z"></path>
					<g data-name="FrameworkElement">
							<g fill="#eee8d5" stroke="#33322E" data-name="FrameworkElement">
								<rect x="0.0" y="396.0" height="32.0" width="164.0" data-name="FrameworkElement"></rect>
							</g>
						<g transform="translate(0, 396)" font-family="Helvetica" font-size="12pt" font-weight="bold" font-style="normal" data-name="FrameworkElement">
								<g transform="translate(8, 8)" fill="#33322E" text-align="center" data-name="FrameworkElement">
									<text x="74.0" y="14.1" stroke="none" text-anchor="middle" data-name="FrameworkElement">FrameworkElement</text>
								
								</g>
							</g>
						</g>
					<g data-name="AccessText">
							<g fill="#eee8d5" stroke="#33322E" data-name="AccessText">
								<rect x="186.0" y="0.0" height="32.0" width="104.0" data-name="AccessText"></rect>
							</g>
						<g transform="translate(186, 0)" font-family="Helvetica" font-size="12pt" font-weight="bold" font-style="normal" data-name="AccessText">
								<g transform="translate(8, 8)" fill="#33322E" text-align="center" data-name="AccessText">
									<text x="44.0" y="14.1" stroke="none" text-anchor="middle" data-name="AccessText">AccessText</text>
								
								</g>
							</g>
						</g>
					<g data-name="Popup">
							<g fill="#eee8d5" stroke="#33322E" data-name="Popup">
								<rect x="205.0" y="44.0" height="32.0" width="66.0" data-name="Popup"></rect>
							</g>
						<g transform="translate(205, 44)" font-family="Helvetica" font-size="12pt" font-weight="bold" font-style="normal" data-name="Popup">
								<g transform="translate(8, 8)" fill="#33322E" text-align="center" data-name="Popup">
									<text x="25.0" y="14.1" stroke="none" text-anchor="middle" data-name="Popup">Popup</text>
								
								</g>
							</g>
						</g>
					<g data-name="TextBlock">
							<g fill="#eee8d5" stroke="#33322E" data-name="TextBlock">
								<rect x="192.5" y="88.0" height="32.0" width="91.0" data-name="TextBlock"></rect>
							</g>
						<g transform="translate(192.5, 88)" font-family="Helvetica" font-size="12pt" font-weight="bold" font-style="normal" data-name="TextBlock">
								<g transform="translate(8, 8)" fill="#33322E" text-align="center" data-name="TextBlock">
									<text x="37.5" y="14.1" stroke="none" text-anchor="middle" data-name="TextBlock">TextBlock</text>
								
								</g>
							</g>
						</g>
					<g data-name="Decorator">
							<g fill="#eee8d5" stroke="#33322E" data-name="Decorator">
								<rect x="192.0" y="132.0" height="32.0" width="92.0" data-name="Decorator"></rect>
							</g>
						<g transform="translate(192, 132)" font-family="Helvetica" font-size="12pt" font-weight="bold" font-style="normal" data-name="Decorator">
								<g transform="translate(8, 8)" fill="#33322E" text-align="center" data-name="Decorator">
									<text x="38.0" y="14.1" stroke="none" text-anchor="middle" data-name="Decorator">Decorator</text>
								
								</g>
							</g>
						</g>
					<g data-name="Border">
							<g fill="#eee8d5" stroke="#33322E" data-name="Border">
								<rect x="371.0" y="88.0" height="32.0" width="68.0" data-name="Border"></rect>
							</g>
						<g transform="translate(371, 88)" font-family="Helvetica" font-size="12pt" font-weight="bold" font-style="normal" data-name="Border">
								<g transform="translate(8, 8)" fill="#33322E" text-align="center" data-name="Border">
									<text x="26.0" y="14.1" stroke="none" text-anchor="middle" data-name="Border">Border</text>
								
								</g>
							</g>
						</g>
					<g data-name="Page">
							<g fill="#eee8d5" stroke="#33322E" data-name="Page">
								<rect x="211.0" y="198.0" height="32.0" width="54.0" data-name="Page"></rect>
							</g>
						<g transform="translate(211, 198)" font-family="Helvetica" font-size="12pt" font-weight="bold" font-style="normal" data-name="Page">
								<g transform="translate(8, 8)" fill="#33322E" text-align="center" data-name="Page">
									<text x="19.0" y="14.1" stroke="none" text-anchor="middle" data-name="Page">Page</text>
								
								</g>
							</g>
						</g>
					<g data-name="Panel">
							<g fill="#eee8d5" stroke="#33322E" data-name="Panel">
								<rect x="208.5" y="396.0" height="32.0" width="59.0" data-name="Panel"></rect>
							</g>
						<g transform="translate(208.5, 396)" font-family="Helvetica" font-size="12pt" font-weight="bold" font-style="normal" data-name="Panel">
								<g transform="translate(8, 8)" fill="#33322E" text-align="center" data-name="Panel">
									<text x="21.5" y="14.1" stroke="none" text-anchor="middle" data-name="Panel">Panel</text>
								
								</g>
							</g>
						</g>
					<g data-name="Viewport3D">
							<g fill="#eee8d5" stroke="#33322E" data-name="Viewport3D">
								<rect x="186.0" y="594.0" height="32.0" width="104.0" data-name="Viewport3D"></rect>
							</g>
						<g transform="translate(186, 594)" font-family="Helvetica" font-size="12pt" font-weight="bold" font-style="normal" data-name="Viewport3D">
								<g transform="translate(8, 8)" fill="#33322E" text-align="center" data-name="Viewport3D">
									<text x="44.0" y="14.1" stroke="none" text-anchor="middle" data-name="Viewport3D">Viewport3D</text>
								
								</g>
							</g>
						</g>
					<g data-name="BulletDecorator">
							<g fill="#eee8d5" stroke="#33322E" data-name="BulletDecorator">
								<rect x="337.0" y="132.0" height="32.0" width="136.0" data-name="BulletDecorator"></rect>
							</g>
						<g transform="translate(337, 132)" font-family="Helvetica" font-size="12pt" font-weight="bold" font-style="normal" data-name="BulletDecorator">
								<g transform="translate(8, 8)" fill="#33322E" text-align="center" data-name="BulletDecorator">
									<text x="60.0" y="14.1" stroke="none" text-anchor="middle" data-name="BulletDecorator">BulletDecorator</text>
								
								</g>
							</g>
						</g>
					<g data-name="Viewbox">
							<g fill="#eee8d5" stroke="#33322E" data-name="Viewbox">
								<rect x="364.5" y="176.0" height="32.0" width="81.0" data-name="Viewbox"></rect>
							</g>
						<g transform="translate(364.5, 176)" font-family="Helvetica" font-size="12pt" font-weight="bold" font-style="normal" data-name="Viewbox">
								<g transform="translate(8, 8)" fill="#33322E" text-align="center" data-name="Viewbox">
									<text x="32.5" y="14.1" stroke="none" text-anchor="middle" data-name="Viewbox">Viewbox</text>
								
								</g>
							</g>
						</g>
					<g data-name="Canvas">
							<g fill="#eee8d5" stroke="#33322E" data-name="Canvas">
								<rect x="368.5" y="220.0" height="32.0" width="73.0" data-name="Canvas"></rect>
							</g>
						<g transform="translate(368.5, 220)" font-family="Helvetica" font-size="12pt" font-weight="bold" font-style="normal" data-name="Canvas">
								<g transform="translate(8, 8)" fill="#33322E" text-align="center" data-name="Canvas">
									<text x="28.5" y="14.1" stroke="none" text-anchor="middle" data-name="Canvas">Canvas</text>
								
								</g>
							</g>
						</g>
					<g data-name="DockPanel">
							<g fill="#eee8d5" stroke="#33322E" data-name="DockPanel">
								<rect x="356.0" y="264.0" height="32.0" width="98.0" data-name="DockPanel"></rect>
							</g>
						<g transform="translate(356, 264)" font-family="Helvetica" font-size="12pt" font-weight="bold" font-style="normal" data-name="DockPanel">
								<g transform="translate(8, 8)" fill="#33322E" text-align="center" data-name="DockPanel">
									<text x="41.0" y="14.1" stroke="none" text-anchor="middle" data-name="DockPanel">DockPanel</text>
								
								</g>
							</g>
						</g>
					<g data-name="Grid">
							<g fill="#eee8d5" stroke="#33322E" data-name="Grid">
								<rect x="380.5" y="308.0" height="32.0" width="49.0" data-name="Grid"></rect>
							</g>
						<g transform="translate(380.5, 308)" font-family="Helvetica" font-size="12pt" font-weight="bold" font-style="normal" data-name="Grid">
								<g transform="translate(8, 8)" fill="#33322E" text-align="center" data-name="Grid">
									<text x="16.5" y="14.1" stroke="none" text-anchor="middle" data-name="Grid">Grid</text>
								
								</g>
							</g>
						</g>
					<g data-name="TabPanel">
							<g fill="#eee8d5" stroke="#33322E" data-name="TabPanel">
								<rect x="362.0" y="352.0" height="32.0" width="86.0" data-name="TabPanel"></rect>
							</g>
						<g transform="translate(362, 352)" font-family="Helvetica" font-size="12pt" font-weight="bold" font-style="normal" data-name="TabPanel">
								<g transform="translate(8, 8)" fill="#33322E" text-align="center" data-name="TabPanel">
									<text x="35.0" y="14.1" stroke="none" text-anchor="middle" data-name="TabPanel">TabPanel</text>
								
								</g>
							</g>
						</g>
					<g data-name="ToolBarOverflowPanel">
							<g fill="#eee8d5" stroke="#33322E" data-name="ToolBarOverflowPanel">
								<rect x="312.0" y="396.0" height="32.0" width="186.0" data-name="ToolBarOverflowPanel"></rect>
							</g>
						<g transform="translate(312, 396)" font-family="Helvetica" font-size="12pt" font-weight="bold" font-style="normal" data-name="ToolBarOverflowPanel">
								<g transform="translate(8, 8)" fill="#33322E" text-align="center" data-name="ToolBarOverflowPanel">
									<text x="85.0" y="14.1" stroke="none" text-anchor="middle" data-name="ToolBarOverflowPanel">ToolBarOverflowPanel</text>
								
								</g>
							</g>
						</g>
					<g data-name="UniformGrid">
							<g fill="#eee8d5" stroke="#33322E" data-name="UniformGrid">
								<rect x="350.0" y="440.0" height="32.0" width="110.0" data-name="UniformGrid"></rect>
							</g>
						<g transform="translate(350, 440)" font-family="Helvetica" font-size="12pt" font-weight="bold" font-style="normal" data-name="UniformGrid">
								<g transform="translate(8, 8)" fill="#33322E" text-align="center" data-name="UniformGrid">
									<text x="47.0" y="14.1" stroke="none" text-anchor="middle" data-name="UniformGrid">UniformGrid</text>
								
								</g>
							</g>
						</g>
					<g data-name="StackPanel">
							<g fill="#eee8d5" stroke="#33322E" data-name="StackPanel">
								<rect x="354.5" y="484.0" height="32.0" width="101.0" data-name="StackPanel"></rect>
							</g>
						<g transform="translate(354.5, 484)" font-family="Helvetica" font-size="12pt" font-weight="bold" font-style="normal" data-name="StackPanel">
								<g transform="translate(8, 8)" fill="#33322E" text-align="center" data-name="StackPanel">
									<text x="42.5" y="14.1" stroke="none" text-anchor="middle" data-name="StackPanel">StackPanel</text>
								
								</g>
							</g>
						</g>
					<g data-name="VirtualizingPanel">
							<g fill="#eee8d5" stroke="#33322E" data-name="VirtualizingPanel">
								<rect x="332.5" y="528.0" height="32.0" width="145.0" data-name="VirtualizingPanel"></rect>
							</g>
						<g transform="translate(332.5, 528)" font-family="Helvetica" font-size="12pt" font-weight="bold" font-style="normal" data-name="VirtualizingPanel">
								<g transform="translate(8, 8)" fill="#33322E" text-align="center" data-name="VirtualizingPanel">
									<text x="64.5" y="14.1" stroke="none" text-anchor="middle" data-name="VirtualizingPanel">VirtualizingPanel</text>
								
								</g>
							</g>
						</g>
					<g data-name="VirtualizingStackPanel">
							<g fill="#eee8d5" stroke="#33322E" data-name="VirtualizingStackPanel">
								<rect x="510.0" y="506.0" height="32.0" width="187.0" data-name="VirtualizingStackPanel"></rect>
							</g>
						<g transform="translate(510, 506)" font-family="Helvetica" font-size="12pt" font-weight="bold" font-style="normal" data-name="VirtualizingStackPanel">
								<g transform="translate(8, 8)" fill="#33322E" text-align="center" data-name="VirtualizingStackPanel">
									<text x="85.5" y="14.1" stroke="none" text-anchor="middle" data-name="VirtualizingStackPanel">VirtualizingStackPanel</text>
								
								</g>
							</g>
						</g>
					<g data-name="WrapPanel">
							<g fill="#eee8d5" stroke="#33322E" data-name="WrapPanel">
								<rect x="356.0" y="572.0" height="32.0" width="98.0" data-name="WrapPanel"></rect>
							</g>
						<g transform="translate(356, 572)" font-family="Helvetica" font-size="12pt" font-weight="bold" font-style="normal" data-name="WrapPanel">
								<g transform="translate(8, 8)" fill="#33322E" text-align="center" data-name="WrapPanel">
									<text x="41.0" y="14.1" stroke="none" text-anchor="middle" data-name="WrapPanel">WrapPanel</text>
								
								</g>
							</g>
						</g>
					<g data-name="DataGridCellsPanel">
							<g fill="#eee8d5" stroke="#33322E" data-name="DataGridCellsPanel">
								<rect x="521.0" y="682.0" height="32.0" width="165.0" data-name="DataGridCellsPanel"></rect>
							</g>
						<g transform="translate(521, 682)" font-family="Helvetica" font-size="12pt" font-weight="bold" font-style="normal" data-name="DataGridCellsPanel">
								<g transform="translate(8, 8)" fill="#33322E" text-align="center" data-name="DataGridCellsPanel">
									<text x="74.5" y="14.1" stroke="none" text-anchor="middle" data-name="DataGridCellsPanel">DataGridCellsPanel</text>
								
								</g>
							</g>
						</g>
					<g data-name="Shape">
							<g fill="#eee8d5" stroke="#33322E" data-name="Shape">
								<rect x="206.0" y="726.0" height="32.0" width="64.0" data-name="Shape"></rect>
							</g>
						<g transform="translate(206, 726)" font-family="Helvetica" font-size="12pt" font-weight="bold" font-style="normal" data-name="Shape">
								<g transform="translate(8, 8)" fill="#33322E" text-align="center" data-name="Shape">
									<text x="24.0" y="14.1" stroke="none" text-anchor="middle" data-name="Shape">Shape</text>
								
								</g>
							</g>
						</g>
					<g data-name="Path">
							<g fill="#eee8d5" stroke="#33322E" data-name="Path">
								<rect x="379.5" y="616.0" height="32.0" width="51.0" data-name="Path"></rect>
							</g>
						<g transform="translate(379.5, 616)" font-family="Helvetica" font-size="12pt" font-weight="bold" font-style="normal" data-name="Path">
								<g transform="translate(8, 8)" fill="#33322E" text-align="center" data-name="Path">
									<text x="17.5" y="14.1" stroke="none" text-anchor="middle" data-name="Path">Path</text>
								
								</g>
							</g>
						</g>
					<g data-name="Line">
							<g fill="#eee8d5" stroke="#33322E" data-name="Line">
								<rect x="380.5" y="660.0" height="32.0" width="49.0" data-name="Line"></rect>
							</g>
						<g transform="translate(380.5, 660)" font-family="Helvetica" font-size="12pt" font-weight="bold" font-style="normal" data-name="Line">
								<g transform="translate(8, 8)" fill="#33322E" text-align="center" data-name="Line">
									<text x="16.5" y="14.1" stroke="none" text-anchor="middle" data-name="Line">Line</text>
								
								</g>
							</g>
						</g>
					<g data-name="Ellipse">
							<g fill="#eee8d5" stroke="#33322E" data-name="Ellipse">
								<rect x="371.0" y="704.0" height="32.0" width="68.0" data-name="Ellipse"></rect>
							</g>
						<g transform="translate(371, 704)" font-family="Helvetica" font-size="12pt" font-weight="bold" font-style="normal" data-name="Ellipse">
								<g transform="translate(8, 8)" fill="#33322E" text-align="center" data-name="Ellipse">
									<text x="26.0" y="14.1" stroke="none" text-anchor="middle" data-name="Ellipse">Ellipse</text>
								
								</g>
							</g>
						</g>
					<g data-name="Polygon">
							<g fill="#eee8d5" stroke="#33322E" data-name="Polygon">
								<rect x="365.5" y="748.0" height="32.0" width="79.0" data-name="Polygon"></rect>
							</g>
						<g transform="translate(365.5, 748)" font-family="Helvetica" font-size="12pt" font-weight="bold" font-style="normal" data-name="Polygon">
								<g transform="translate(8, 8)" fill="#33322E" text-align="center" data-name="Polygon">
									<text x="31.5" y="14.1" stroke="none" text-anchor="middle" data-name="Polygon">Polygon</text>
								
								</g>
							</g>
						</g>
					<g data-name="Polyline">
							<g fill="#eee8d5" stroke="#33322E" data-name="Polyline">
								<rect x="366.5" y="792.0" height="32.0" width="77.0" data-name="Polyline"></rect>
							</g>
						<g transform="translate(366.5, 792)" font-family="Helvetica" font-size="12pt" font-weight="bold" font-style="normal" data-name="Polyline">
								<g transform="translate(8, 8)" fill="#33322E" text-align="center" data-name="Polyline">
									<text x="30.5" y="14.1" stroke="none" text-anchor="middle" data-name="Polyline">Polyline</text>
								
								</g>
							</g>
						</g>
					<g data-name="Rectangle">
							<g fill="#eee8d5" stroke="#33322E" data-name="Rectangle">
								<rect x="359.0" y="836.0" height="32.0" width="92.0" data-name="Rectangle"></rect>
							</g>
						<g transform="translate(359, 836)" font-family="Helvetica" font-size="12pt" font-weight="bold" font-style="normal" data-name="Rectangle">
								<g transform="translate(8, 8)" fill="#33322E" text-align="center" data-name="Rectangle">
									<text x="38.0" y="14.1" stroke="none" text-anchor="middle" data-name="Rectangle">Rectangle</text>
								
								</g>
							</g>
						</g>
					<g data-name="MediaElement">
							<g fill="#eee8d5" stroke="#33322E" data-name="MediaElement">
								<rect x="176.0" y="814.0" height="32.0" width="124.0" data-name="MediaElement"></rect>
							</g>
						<g transform="translate(176, 814)" font-family="Helvetica" font-size="12pt" font-weight="bold" font-style="normal" data-name="MediaElement">
								<g transform="translate(8, 8)" fill="#33322E" text-align="center" data-name="MediaElement">
									<text x="54.0" y="14.1" stroke="none" text-anchor="middle" data-name="MediaElement">MediaElement</text>
								
								</g>
							</g>
						</g>
					<g data-name="Image">
							<g fill="#eee8d5" stroke="#33322E" data-name="Image">
								<rect x="207.0" y="858.0" height="32.0" width="62.0" data-name="Image"></rect>
							</g>
						<g transform="translate(207, 858)" font-family="Helvetica" font-size="12pt" font-weight="bold" font-style="normal" data-name="Image">
								<g transform="translate(8, 8)" fill="#33322E" text-align="center" data-name="Image">
									<text x="23.0" y="14.1" stroke="none" text-anchor="middle" data-name="Image">Image</text>
								
								</g>
							</g>
						</g>
					<g data-name="HwndHost">
							<g fill="#eee8d5" stroke="#33322E" data-name="HwndHost">
								<rect x="190.5" y="924.0" height="32.0" width="95.0" data-name="HwndHost"></rect>
							</g>
						<g transform="translate(190.5, 924)" font-family="Helvetica" font-size="12pt" font-weight="bold" font-style="normal" data-name="HwndHost">
								<g transform="translate(8, 8)" fill="#33322E" text-align="center" data-name="HwndHost">
									<text x="39.5" y="14.1" stroke="none" text-anchor="middle" data-name="HwndHost">HwndHost</text>
								
								</g>
							</g>
						</g>
					<g data-name="ActiveXHost">
							<g fill="#eee8d5" stroke="#33322E" data-name="ActiveXHost">
								<rect x="350.0" y="880.0" height="32.0" width="110.0" data-name="ActiveXHost"></rect>
							</g>
						<g transform="translate(350, 880)" font-family="Helvetica" font-size="12pt" font-weight="bold" font-style="normal" data-name="ActiveXHost">
								<g transform="translate(8, 8)" fill="#33322E" text-align="center" data-name="ActiveXHost">
									<text x="47.0" y="14.1" stroke="none" text-anchor="middle" data-name="ActiveXHost">ActiveXHost</text>
								
								</g>
							</g>
						</g>
					<g data-name="WebBrowser">
							<g fill="#eee8d5" stroke="#33322E" data-name="WebBrowser">
								<rect x="546.5" y="880.0" height="32.0" width="114.0" data-name="WebBrowser"></rect>
							</g>
						<g transform="translate(546.5, 880)" font-family="Helvetica" font-size="12pt" font-weight="bold" font-style="normal" data-name="WebBrowser">
								<g transform="translate(8, 8)" fill="#33322E" text-align="center" data-name="WebBrowser">
									<text x="49.0" y="14.1" stroke="none" text-anchor="middle" data-name="WebBrowser">WebBrowser</text>
								
								</g>
							</g>
						</g>
					<g data-name="WindowsFormsHost">
							<g fill="#eee8d5" stroke="#33322E" data-name="WindowsFormsHost">
								<rect x="319.5" y="924.0" height="32.0" width="171.0" data-name="WindowsFormsHost"></rect>
							</g>
						<g transform="translate(319.5, 924)" font-family="Helvetica" font-size="12pt" font-weight="bold" font-style="normal" data-name="WindowsFormsHost">
								<g transform="translate(8, 8)" fill="#33322E" text-align="center" data-name="WindowsFormsHost">
									<text x="77.5" y="14.1" stroke="none" text-anchor="middle" data-name="WindowsFormsHost">WindowsFormsHost</text>
								
								</g>
							</g>
						</g>
					</g>
				</g>
			</g>
		</g>
	</svg>