<svg version="1.1" baseProfile="full" width="1105.8" height="520.0" viewbox="0 0 1105.75 520" xmlns="http://www.w3.org/2000/svg" xmlns:xlink="http://www.w3.org/1999/xlink" xmlns:ev="http://www.w3.org/2001/xml-events">
		<desc >#.box: fill=#C06EF0
	
	[Object ] &lt;:- [&lt;box&gt;DispatcherObject] &lt;:- [DependencyObject] &lt;:- [Visual] &lt;:- [UIElement] &lt;:- [&lt;box&gt;FrameworkElement] &lt;:- [&lt;box&gt;Control]
	[DependencyObject] &lt;:- [Freezable] &lt;- [&lt;box&gt;Animatable]
	
	[Visual] &lt;:- [Viewport3DVisual]
	[Visual] &lt;:- [Visual3D]
	
	[Visual3D] &lt;:- [ModelVisual3D]
	[Visual3D] &lt;:- [Viewport2DVisual3D]
	[Visual3D] &lt;:- [UIElement3D] &lt;:- [ContainerUIElement3D]
	
	[Object] &lt;:- [PrintDialog]
	[Object] &lt;:- [CommonDialog] &lt;:- [CommonItemDialog] &lt;:- [FileDialog] &lt;:- [SaveFileDialog]
	[FileDialog] &lt;:- [OpenFileDialog]
	[CommonItemDialog] &lt;:- [OpenFolderDialog]</desc>
	<g stroke-width="1.0" text-align="left" font="12pt Helvetica, Arial, sans-serif" font-size="12pt" font-family="Helvetica" font-weight="bold" font-style="normal">
			<g font-family="Helvetica" font-size="12pt" font-weight="bold" font-style="normal" stroke-width="3.0" stroke-linejoin="round" stroke-linecap="round" stroke="#33322E">
				<g stroke="transparent" fill="transparent">
					<rect x="0.0" y="0.0" height="520.0" width="1105.8" stroke="none"></rect>
				</g>
			<g transform="translate(8, 8)" fill="#33322E">
					<g transform="translate(20, 20)" fill="#eee8d5" font-family="Helvetica" font-size="12pt" font-weight="normal" font-style="normal">
						<path d="M627.3 23.3 L447.25 52 L447.25 72 L447.3 72.0 " fill="none"></path>
					<path d="M628.2 28.6 L627.3 23.3 L626.5 18.1 L640.5 21.3 Z"></path>
					<path d="M447.3 117.3 L447.25 124 L447.25 144 L447.3 144.0 " fill="none"></path>
					<path d="M452.6 117.3 L447.3 117.3 L441.9 117.3 L447.3 104.0 Z"></path>
					<path d="M355.7 178.7 L270.75 196 L270.75 216 L270.8 216.0 " fill="none"></path>
					<path d="M356.8 183.9 L355.7 178.7 L354.7 173.4 L368.8 176.0 Z"></path>
					<path d="M226.2 240.5 L82 268 L82 288 L82.0 288.0 " fill="none"></path>
					<path d="M227.2 245.7 L226.2 240.5 L225.2 235.3 L239.3 238.0 Z"></path>
					<path d="M82.0 333.3 L82 340 L82 360 L82.0 360.0 " fill="none"></path>
					<path d="M87.3 333.3 L82.0 333.3 L76.7 333.3 L82.0 320.0 Z"></path>
					<path d="M82.0 405.3 L82 412 L82 432 L82.0 432.0 " fill="none"></path>
					<path d="M87.3 405.3 L82.0 405.3 L76.7 405.3 L82.0 392.0 Z"></path>
					<path d="M511.4 180.0 L563 196 L563 216 L563.0 216.0 " fill="none"></path>
					<path d="M513.0 174.9 L511.4 180.0 L509.8 185.1 L498.7 176.0 Z"></path>
					<path d="M563.0 254.7 L563 268 L563 288 L563.0 288.0 " fill="none"></path>
					<path d="M568.3 261.3 L563.0 254.7 L557.7 261.3 L563.0 248.0 Z"></path>
					<path d="M251.2 258.8 L244.5 268 L244.5 288 L244.5 288.0 " fill="none"></path>
					<path d="M255.5 261.9 L251.2 258.8 L246.9 255.6 L259.1 248.0 Z"></path>
					<path d="M315.3 242.0 L430.5 268 L430.5 288 L430.5 288.0 " fill="none"></path>
					<path d="M316.4 236.8 L315.3 242.0 L314.1 247.2 L302.3 239.1 Z"></path>
					<path d="M376.0 316.2 L269 340 L269 360 L269.0 360.0 " fill="none"></path>
					<path d="M377.1 321.4 L376.0 316.2 L374.8 310.9 L389.0 313.3 Z"></path>
					<path d="M451.8 330.4 L459.5 340 L459.5 360 L459.5 360.0 " fill="none"></path>
					<path d="M455.9 327.0 L451.8 330.4 L447.6 333.7 L443.4 320.0 Z"></path>
					<path d="M485.1 313.3 L642.5 340 L642.5 360 L642.5 360.0 " fill="none"></path>
					<path d="M486.0 308.0 L485.1 313.3 L484.3 318.5 L472.0 311.0 Z"></path>
					<path d="M642.5 405.3 L642.5 412 L642.5 432 L642.5 432.0 " fill="none"></path>
					<path d="M647.8 405.3 L642.5 405.3 L637.2 405.3 L642.5 392.0 Z"></path>
					<path d="M653.0 42.6 L645.75 52 L645.75 72 L645.8 72.0 " fill="none"></path>
					<path d="M657.3 45.8 L653.0 42.6 L648.8 39.3 L661.2 32.0 Z"></path>
					<path d="M719.7 22.9 L915.5 52 L915.5 72 L915.5 72.0 " fill="none"></path>
					<path d="M720.5 17.6 L719.7 22.9 L718.9 28.1 L706.5 20.9 Z"></path>
					<path d="M915.5 117.3 L915.5 124 L915.5 144 L915.5 144.0 " fill="none"></path>
					<path d="M920.8 117.3 L915.5 117.3 L910.2 117.3 L915.5 104.0 Z"></path>
					<path d="M855.4 180.3 L808.75 196 L808.75 216 L808.8 216.0 " fill="none"></path>
					<path d="M857.1 185.3 L855.4 180.3 L853.7 175.2 L868.1 176.0 Z"></path>
					<path d="M756.5 253.0 L719 268 L719 288 L719.0 288.0 " fill="none"></path>
					<path d="M758.5 257.9 L756.5 253.0 L754.5 248.0 L768.9 248.0 Z"></path>
					<path d="M857.3 253.4 L890.5 268 L890.5 288 L890.5 288.0 " fill="none"></path>
					<path d="M859.4 248.5 L857.3 253.4 L855.1 258.3 L845.1 248.0 Z"></path>
					<path d="M952.0 183.1 L972.25 196 L972.25 216 L972.3 216.0 " fill="none"></path>
					<path d="M954.8 178.6 L952.0 183.1 L949.1 187.6 L940.7 176.0 Z"></path>
					<g data-name="Object">
							<g fill="#eee8d5" stroke="#33322E" data-name="Object">
								<rect x="640.5" y="0.0" height="32.0" width="66.0" data-name="Object"></rect>
							</g>
						<g transform="translate(640.5, 0)" font-family="Helvetica" font-size="12pt" font-weight="bold" font-style="normal" data-name="Object">
								<g transform="translate(8, 8)" fill="#33322E" text-align="center" data-name="Object">
									<text x="25.0" y="14.1" stroke="none" text-anchor="middle" data-name="Object">Object</text>
								
								</g>
							</g>
						</g>
					<g data-name="DispatcherObject">
							<g fill="#C06EF0" stroke="#33322E" data-name="DispatcherObject">
								<rect x="373.3" y="72.0" height="32.0" width="148.0" data-name="DispatcherObject"></rect>
							</g>
						<g transform="translate(373.25, 72)" font-family="Helvetica" font-size="12pt" font-weight="normal" font-style="normal" data-name="DispatcherObject">
								<g transform="translate(8, 8)" fill="#33322E" text-align="center" data-name="DispatcherObject">
									<text x="66.0" y="14.1" stroke="none" text-anchor="middle" data-name="DispatcherObject">DispatcherObject</text>
								
								</g>
							</g>
						</g>
					<g data-name="DependencyObject">
							<g fill="#eee8d5" stroke="#33322E" data-name="DependencyObject">
								<rect x="366.8" y="144.0" height="32.0" width="161.0" data-name="DependencyObject"></rect>
							</g>
						<g transform="translate(366.75, 144)" font-family="Helvetica" font-size="12pt" font-weight="bold" font-style="normal" data-name="DependencyObject">
								<g transform="translate(8, 8)" fill="#33322E" text-align="center" data-name="DependencyObject">
									<text x="72.5" y="14.1" stroke="none" text-anchor="middle" data-name="DependencyObject">DependencyObject</text>
								
								</g>
							</g>
						</g>
					<g data-name="Visual">
							<g fill="#eee8d5" stroke="#33322E" data-name="Visual">
								<rect x="239.3" y="216.0" height="32.0" width="63.0" data-name="Visual"></rect>
							</g>
						<g transform="translate(239.25, 216)" font-family="Helvetica" font-size="12pt" font-weight="bold" font-style="normal" data-name="Visual">
								<g transform="translate(8, 8)" fill="#33322E" text-align="center" data-name="Visual">
									<text x="23.5" y="14.1" stroke="none" text-anchor="middle" data-name="Visual">Visual</text>
								
								</g>
							</g>
						</g>
					<g data-name="UIElement">
							<g fill="#eee8d5" stroke="#33322E" data-name="UIElement">
								<rect x="35.0" y="288.0" height="32.0" width="94.0" data-name="UIElement"></rect>
							</g>
						<g transform="translate(35, 288)" font-family="Helvetica" font-size="12pt" font-weight="bold" font-style="normal" data-name="UIElement">
								<g transform="translate(8, 8)" fill="#33322E" text-align="center" data-name="UIElement">
									<text x="39.0" y="14.1" stroke="none" text-anchor="middle" data-name="UIElement">UIElement</text>
								
								</g>
							</g>
						</g>
					<g data-name="FrameworkElement">
							<g fill="#C06EF0" stroke="#33322E" data-name="FrameworkElement">
								<rect x="0.0" y="360.0" height="32.0" width="164.0" data-name="FrameworkElement"></rect>
							</g>
						<g transform="translate(0, 360)" font-family="Helvetica" font-size="12pt" font-weight="normal" font-style="normal" data-name="FrameworkElement">
								<g transform="translate(8, 8)" fill="#33322E" text-align="center" data-name="FrameworkElement">
									<text x="74.0" y="14.1" stroke="none" text-anchor="middle" data-name="FrameworkElement">FrameworkElement</text>
								
								</g>
							</g>
						</g>
					<g data-name="Control">
							<g fill="#C06EF0" stroke="#33322E" data-name="Control">
								<rect x="45.5" y="432.0" height="32.0" width="73.0" data-name="Control"></rect>
							</g>
						<g transform="translate(45.5, 432)" font-family="Helvetica" font-size="12pt" font-weight="normal" font-style="normal" data-name="Control">
								<g transform="translate(8, 8)" fill="#33322E" text-align="center" data-name="Control">
									<text x="28.5" y="14.1" stroke="none" text-anchor="middle" data-name="Control">Control</text>
								
								</g>
							</g>
						</g>
					<g data-name="Freezable">
							<g fill="#eee8d5" stroke="#33322E" data-name="Freezable">
								<rect x="518.0" y="216.0" height="32.0" width="90.0" data-name="Freezable"></rect>
							</g>
						<g transform="translate(518, 216)" font-family="Helvetica" font-size="12pt" font-weight="bold" font-style="normal" data-name="Freezable">
								<g transform="translate(8, 8)" fill="#33322E" text-align="center" data-name="Freezable">
									<text x="37.0" y="14.1" stroke="none" text-anchor="middle" data-name="Freezable">Freezable</text>
								
								</g>
							</g>
						</g>
					<g data-name="Animatable">
							<g fill="#C06EF0" stroke="#33322E" data-name="Animatable">
								<rect x="512.0" y="288.0" height="32.0" width="102.0" data-name="Animatable"></rect>
							</g>
						<g transform="translate(512, 288)" font-family="Helvetica" font-size="12pt" font-weight="normal" font-style="normal" data-name="Animatable">
								<g transform="translate(8, 8)" fill="#33322E" text-align="center" data-name="Animatable">
									<text x="43.0" y="14.1" stroke="none" text-anchor="middle" data-name="Animatable">Animatable</text>
								
								</g>
							</g>
						</g>
					<g data-name="Viewport3DVisual">
							<g fill="#eee8d5" stroke="#33322E" data-name="Viewport3DVisual">
								<rect x="169.0" y="288.0" height="32.0" width="151.0" data-name="Viewport3DVisual"></rect>
							</g>
						<g transform="translate(169, 288)" font-family="Helvetica" font-size="12pt" font-weight="bold" font-style="normal" data-name="Viewport3DVisual">
								<g transform="translate(8, 8)" fill="#33322E" text-align="center" data-name="Viewport3DVisual">
									<text x="67.5" y="14.1" stroke="none" text-anchor="middle" data-name="Viewport3DVisual">Viewport3DVisual</text>
								
								</g>
							</g>
						</g>
					<g data-name="Visual3D">
							<g fill="#eee8d5" stroke="#33322E" data-name="Visual3D">
								<rect x="389.0" y="288.0" height="32.0" width="83.0" data-name="Visual3D"></rect>
							</g>
						<g transform="translate(389, 288)" font-family="Helvetica" font-size="12pt" font-weight="bold" font-style="normal" data-name="Visual3D">
								<g transform="translate(8, 8)" fill="#33322E" text-align="center" data-name="Visual3D">
									<text x="33.5" y="14.1" stroke="none" text-anchor="middle" data-name="Visual3D">Visual3D</text>
								
								</g>
							</g>
						</g>
					<g data-name="ModelVisual3D">
							<g fill="#eee8d5" stroke="#33322E" data-name="ModelVisual3D">
								<rect x="204.0" y="360.0" height="32.0" width="130.0" data-name="ModelVisual3D"></rect>
							</g>
						<g transform="translate(204, 360)" font-family="Helvetica" font-size="12pt" font-weight="bold" font-style="normal" data-name="ModelVisual3D">
								<g transform="translate(8, 8)" fill="#33322E" text-align="center" data-name="ModelVisual3D">
									<text x="57.0" y="14.1" stroke="none" text-anchor="middle" data-name="ModelVisual3D">ModelVisual3D</text>
								
								</g>
							</g>
						</g>
					<g data-name="Viewport2DVisual3D">
							<g fill="#eee8d5" stroke="#33322E" data-name="Viewport2DVisual3D">
								<rect x="374.0" y="360.0" height="32.0" width="171.0" data-name="Viewport2DVisual3D"></rect>
							</g>
						<g transform="translate(374, 360)" font-family="Helvetica" font-size="12pt" font-weight="bold" font-style="normal" data-name="Viewport2DVisual3D">
								<g transform="translate(8, 8)" fill="#33322E" text-align="center" data-name="Viewport2DVisual3D">
									<text x="77.5" y="14.1" stroke="none" text-anchor="middle" data-name="Viewport2DVisual3D">Viewport2DVisual3D</text>
								
								</g>
							</g>
						</g>
					<g data-name="UIElement3D">
							<g fill="#eee8d5" stroke="#33322E" data-name="UIElement3D">
								<rect x="585.0" y="360.0" height="32.0" width="115.0" data-name="UIElement3D"></rect>
							</g>
						<g transform="translate(585, 360)" font-family="Helvetica" font-size="12pt" font-weight="bold" font-style="normal" data-name="UIElement3D">
								<g transform="translate(8, 8)" fill="#33322E" text-align="center" data-name="UIElement3D">
									<text x="49.5" y="14.1" stroke="none" text-anchor="middle" data-name="UIElement3D">UIElement3D</text>
								
								</g>
							</g>
						</g>
					<g data-name="ContainerUIElement3D">
							<g fill="#eee8d5" stroke="#33322E" data-name="ContainerUIElement3D">
								<rect x="548.0" y="432.0" height="32.0" width="189.0" data-name="ContainerUIElement3D"></rect>
							</g>
						<g transform="translate(548, 432)" font-family="Helvetica" font-size="12pt" font-weight="bold" font-style="normal" data-name="ContainerUIElement3D">
								<g transform="translate(8, 8)" fill="#33322E" text-align="center" data-name="ContainerUIElement3D">
									<text x="86.5" y="14.1" stroke="none" text-anchor="middle" data-name="ContainerUIElement3D">ContainerUIElement3D</text>
								
								</g>
							</g>
						</g>
					<g data-name="PrintDialog">
							<g fill="#eee8d5" stroke="#33322E" data-name="PrintDialog">
								<rect x="595.3" y="72.0" height="32.0" width="101.0" data-name="PrintDialog"></rect>
							</g>
						<g transform="translate(595.25, 72)" font-family="Helvetica" font-size="12pt" font-weight="bold" font-style="normal" data-name="PrintDialog">
								<g transform="translate(8, 8)" fill="#33322E" text-align="center" data-name="PrintDialog">
									<text x="42.5" y="14.1" stroke="none" text-anchor="middle" data-name="PrintDialog">PrintDialog</text>
								
								</g>
							</g>
						</g>
					<g data-name="CommonDialog">
							<g fill="#eee8d5" stroke="#33322E" data-name="CommonDialog">
								<rect x="848.5" y="72.0" height="32.0" width="134.0" data-name="CommonDialog"></rect>
							</g>
						<g transform="translate(848.5, 72)" font-family="Helvetica" font-size="12pt" font-weight="bold" font-style="normal" data-name="CommonDialog">
								<g transform="translate(8, 8)" fill="#33322E" text-align="center" data-name="CommonDialog">
									<text x="59.0" y="14.1" stroke="none" text-anchor="middle" data-name="CommonDialog">CommonDialog</text>
								
								</g>
							</g>
						</g>
					<g data-name="CommonItemDialog">
							<g fill="#eee8d5" stroke="#33322E" data-name="CommonItemDialog">
								<rect x="832.0" y="144.0" height="32.0" width="167.0" data-name="CommonItemDialog"></rect>
							</g>
						<g transform="translate(832, 144)" font-family="Helvetica" font-size="12pt" font-weight="bold" font-style="normal" data-name="CommonItemDialog">
								<g transform="translate(8, 8)" fill="#33322E" text-align="center" data-name="CommonItemDialog">
									<text x="75.5" y="14.1" stroke="none" text-anchor="middle" data-name="CommonItemDialog">CommonItemDialog</text>
								
								</g>
							</g>
						</g>
					<g data-name="FileDialog">
							<g fill="#eee8d5" stroke="#33322E" data-name="FileDialog">
								<rect x="762.8" y="216.0" height="32.0" width="92.0" data-name="FileDialog"></rect>
							</g>
						<g transform="translate(762.75, 216)" font-family="Helvetica" font-size="12pt" font-weight="bold" font-style="normal" data-name="FileDialog">
								<g transform="translate(8, 8)" fill="#33322E" text-align="center" data-name="FileDialog">
									<text x="38.0" y="14.1" stroke="none" text-anchor="middle" data-name="FileDialog">FileDialog</text>
								
								</g>
							</g>
						</g>
					<g data-name="SaveFileDialog">
							<g fill="#eee8d5" stroke="#33322E" data-name="SaveFileDialog">
								<rect x="654.0" y="288.0" height="32.0" width="130.0" data-name="SaveFileDialog"></rect>
							</g>
						<g transform="translate(654, 288)" font-family="Helvetica" font-size="12pt" font-weight="bold" font-style="normal" data-name="SaveFileDialog">
								<g transform="translate(8, 8)" fill="#33322E" text-align="center" data-name="SaveFileDialog">
									<text x="57.0" y="14.1" stroke="none" text-anchor="middle" data-name="SaveFileDialog">SaveFileDialog</text>
								
								</g>
							</g>
						</g>
					<g data-name="OpenFileDialog">
							<g fill="#eee8d5" stroke="#33322E" data-name="OpenFileDialog">
								<rect x="824.0" y="288.0" height="32.0" width="133.0" data-name="OpenFileDialog"></rect>
							</g>
						<g transform="translate(824, 288)" font-family="Helvetica" font-size="12pt" font-weight="bold" font-style="normal" data-name="OpenFileDialog">
								<g transform="translate(8, 8)" fill="#33322E" text-align="center" data-name="OpenFileDialog">
									<text x="58.5" y="14.1" stroke="none" text-anchor="middle" data-name="OpenFileDialog">OpenFileDialog</text>
								
								</g>
							</g>
						</g>
					<g data-name="OpenFolderDialog">
							<g fill="#eee8d5" stroke="#33322E" data-name="OpenFolderDialog">
								<rect x="894.8" y="216.0" height="32.0" width="155.0" data-name="OpenFolderDialog"></rect>
							</g>
						<g transform="translate(894.75, 216)" font-family="Helvetica" font-size="12pt" font-weight="bold" font-style="normal" data-name="OpenFolderDialog">
								<g transform="translate(8, 8)" fill="#33322E" text-align="center" data-name="OpenFolderDialog">
									<text x="69.5" y="14.1" stroke="none" text-anchor="middle" data-name="OpenFolderDialog">OpenFolderDialog</text>
								
								</g>
							</g>
						</g>
					</g>
				</g>
			</g>
		</g>
	</svg>